
<svg width="24" height="24" viewBox="0 0 24 24" fill="none" xmlns="http://www.w3.org/2000/svg">
<path d="M19.9869 12.0003C19.9869 14.9261 19.9869 17.8455 19.9869 20.7714C19.9869 21.4466 19.5543 21.8774 18.9317 21.8324C18.6696 21.8131 18.4598 21.6845 18.2698 21.5173C17.8962 21.1894 17.5161 20.8678 17.1491 20.5334C17.0376 20.4306 16.9721 20.437 16.8607 20.5334C16.3298 21.0093 15.7858 21.4723 15.255 21.9481C14.7569 22.3854 14.2784 22.4047 13.7738 21.9803C13.2364 21.5237 12.7055 21.0672 12.1943 20.5849C12.0239 20.4241 11.9387 20.4499 11.7814 20.5913C11.2833 21.0543 10.7656 21.498 10.2478 21.9417C9.69728 22.4111 9.23851 22.3983 8.69453 21.916C8.17678 21.4594 7.65246 21.0093 7.13471 20.5463C7.01674 20.4434 6.9512 20.4306 6.82667 20.5399C6.45966 20.8743 6.07953 21.1958 5.70596 21.5237C5.37171 21.8195 4.98503 21.9353 4.56558 21.7424C4.14613 21.5495 3.99539 21.1958 3.99539 20.7521C4.00195 14.9133 4.00195 9.08087 3.99539 3.24205C3.99539 2.79192 4.14613 2.43824 4.56558 2.24533C4.98503 2.05242 5.37171 2.16817 5.70596 2.46397C6.07953 2.79192 6.45966 3.11344 6.82667 3.44782C6.9512 3.55714 7.01674 3.55071 7.13471 3.44782C7.65902 2.9784 8.18988 2.52184 8.72075 2.05885C9.23195 1.60229 9.70383 1.58943 10.2281 2.03313C10.7525 2.48326 11.2833 2.93339 11.788 3.40281C11.9715 3.57643 12.0567 3.54428 12.2271 3.39638C12.7252 2.93339 13.2429 2.48969 13.7607 2.04599C14.2981 1.58943 14.7634 1.60229 15.2877 2.07171C15.8055 2.52827 16.3364 2.9784 16.8476 3.44139C16.9721 3.55714 17.0442 3.57643 17.1818 3.45425C17.5488 3.11987 17.929 2.79835 18.3025 2.4704C18.6433 2.1746 19.03 2.06528 19.4429 2.26462C19.8427 2.45111 20 2.79835 20 3.23562C19.9803 6.1486 19.9869 9.07444 19.9869 12.0003ZM4.99814 3.16488C4.99814 9.08087 4.99814 14.9454 4.99814 20.8485C5.38482 20.5077 5.73217 20.2055 6.08608 19.9033C6.80046 19.2859 7.15437 19.2859 7.86219 19.8968C8.32096 20.2955 8.79284 20.6749 9.21884 21.0993C9.44168 21.318 9.5662 21.2665 9.75626 21.0865C10.2347 20.6428 10.7262 20.2248 11.2112 19.794C11.7486 19.3181 12.2271 19.3245 12.7711 19.8004C13.2888 20.2569 13.8131 20.7071 14.3243 21.1765C14.4554 21.2922 14.5209 21.3051 14.6586 21.1765C15.2025 20.6813 15.7596 20.1991 16.3167 19.7232C16.7558 19.3503 17.2146 19.3503 17.6734 19.7168C17.8831 19.884 18.0797 20.0705 18.2894 20.2441C18.5123 20.437 18.7416 20.6235 18.9841 20.8292C18.9841 14.9197 18.9841 9.06158 18.9841 3.15202C18.5319 3.54428 18.1256 3.91081 17.6996 4.25805C17.2146 4.66317 16.7689 4.65674 16.297 4.25805C15.7465 3.78863 15.2025 3.31278 14.6651 2.82407C14.5341 2.70189 14.462 2.70189 14.3309 2.81764C13.8262 3.2742 13.3085 3.7179 12.7973 4.16803C12.214 4.68246 11.7618 4.68246 11.1719 4.1616C10.6607 3.71147 10.1429 3.26777 9.63829 2.81121C9.52032 2.70189 9.44823 2.70189 9.32371 2.81121C8.83216 3.26134 8.33407 3.69218 7.84253 4.12945C7.18058 4.71461 6.78735 4.71461 6.1123 4.13588C5.74528 3.81435 5.38482 3.49926 4.99814 3.16488Z" fill="#585666"/>
<path d="M11.9977 12.489C10.5362 12.489 9.07468 12.489 7.61316 12.489C7.48208 12.489 7.351 12.4826 7.22648 12.4569C6.97743 12.4054 6.85946 12.2382 6.85946 11.9939C6.85946 11.7559 6.98399 11.5887 7.23303 11.5373C7.35756 11.5116 7.49519 11.5116 7.62627 11.5116C10.5428 11.5116 13.4527 11.5116 16.3692 11.5116C16.4019 11.5116 16.4347 11.5116 16.4675 11.5116C16.9066 11.518 17.136 11.6852 17.1294 12.0067C17.1294 12.3282 16.9066 12.489 16.4609 12.489C14.9666 12.489 13.4854 12.489 11.9977 12.489Z" fill="#585666"/>
<path d="M11.9846 15.3763C10.4903 15.3763 8.99604 15.3763 7.50175 15.3763C7.07575 15.3763 6.87913 15.2412 6.85947 14.939C6.83981 14.6818 6.95122 14.5017 7.21338 14.4374C7.3379 14.4053 7.47553 14.4053 7.60006 14.4053C10.5231 14.4053 13.4461 14.4053 16.3692 14.4053C16.5002 14.4053 16.6313 14.4117 16.7558 14.4374C17.0049 14.4953 17.1163 14.6753 17.1098 14.9068C17.1032 15.1448 16.9787 15.312 16.7231 15.3505C16.6051 15.3698 16.4871 15.3698 16.3626 15.3698C14.9076 15.3763 13.4461 15.3763 11.9846 15.3763Z" fill="#585666"/>
<path d="M9.78902 8.6243C10.5755 8.6243 11.3554 8.6243 12.1419 8.6243C12.3778 8.6243 12.5679 8.7079 12.6727 8.9201C12.7579 9.10015 12.7186 9.27378 12.581 9.42811C12.4565 9.56957 12.2861 9.5953 12.1091 9.5953C10.5493 9.5953 8.996 9.60173 7.43618 9.5953C7.0495 9.5953 6.84633 9.40238 6.85288 9.09372C6.85943 8.80435 7.0626 8.63073 7.43618 8.6243C8.21609 8.61787 9.00256 8.6243 9.78902 8.6243Z" fill="#585666"/>
</svg>
