<svg width="24" height="24" viewBox="0 0 24 24" fill="none" xmlns="http://www.w3.org/2000/svg">
<path d="M8.69086 6.44126C8.46141 7.37022 8.24752 8.23834 8.03751 9.10645C7.66806 10.6115 7.29861 12.1124 6.92915 13.6174C6.82026 14.0636 6.54803 14.2949 6.10469 14.2949C5.01578 14.2989 3.92686 14.303 2.83795 14.2949C2.33627 14.2989 1.99015 13.9419 1.99793 13.4633C2.00571 12.9805 2.35572 12.6479 2.8574 12.6479C3.68575 12.6479 4.51799 12.6438 5.34634 12.6519C5.48245 12.6519 5.53301 12.6154 5.56801 12.4734C6.20969 9.83664 6.85915 7.2039 7.50472 4.5671C7.6525 3.96672 7.80028 3.36228 7.94418 2.7619C8.02584 2.42115 8.17363 2.14124 8.51974 2.03577C8.97475 1.89784 9.4181 2.16964 9.52699 2.66454C9.79922 3.91398 10.0676 5.16748 10.332 6.41692C10.9154 9.14296 11.4948 11.8731 12.0782 14.5991C12.1676 15.021 12.2571 15.4429 12.3465 15.8648C12.3582 15.9297 12.3543 16.0027 12.4243 16.0473C12.7276 14.4693 13.0271 12.8953 13.3304 11.3214C13.5054 10.4005 13.6804 9.47966 13.8554 8.55881C13.9254 8.19777 14.1004 7.93003 14.4543 7.83673C14.7577 7.7556 15.0338 7.83268 15.2516 8.08013C15.3488 8.18966 15.4071 8.32758 15.4693 8.46145C15.9982 9.60542 16.5271 10.7494 17.0483 11.8934C17.1183 12.0434 17.1999 12.0921 17.3555 12.0921C18.3083 12.084 19.2611 12.084 20.2139 12.0921C20.5678 12.0921 20.8556 12.3152 20.9684 12.656C21.0772 12.9724 20.98 13.3253 20.7272 13.5566C20.5795 13.6904 20.4045 13.7513 20.21 13.7513C19.0239 13.7513 17.8377 13.7553 16.6516 13.7513C16.2899 13.7513 16.0488 13.5566 15.8932 13.2158C15.6288 12.6317 15.3566 12.0475 15.0843 11.4633C15.0571 11.4066 15.0493 11.3295 14.9677 11.2889C14.8549 11.8812 14.7382 12.4694 14.6254 13.0576C14.2443 15.0494 13.8632 17.0412 13.4821 19.0371C13.4043 19.4468 13.3265 19.8565 13.2487 20.2662C13.1632 20.7124 12.8676 20.9883 12.4632 21.0005C12.0704 21.0086 11.7554 20.7327 11.662 20.2906C10.8804 16.6153 10.0987 12.9359 9.3131 9.26061C9.12643 8.38438 8.93587 7.50815 8.74919 6.63192C8.73753 6.59135 8.72197 6.54673 8.69086 6.44126Z" fill="#585666"/>
</svg>
