<svg width="16" height="16" viewBox="0 0 16 16" fill="none" xmlns="http://www.w3.org/2000/svg">
<path d="M8 0.125C4.62266 0.125 1.875 2.87266 1.875 6.25C1.875 7.89062 2.86897 9.9975 4.82928 12.5118C5.72739 13.6608 6.7 14.7495 7.74081 15.771C7.8106 15.8377 7.90344 15.875 8 15.875C8.09656 15.875 8.1894 15.8377 8.25919 15.771C9.3 14.7495 10.2726 13.6608 11.1707 12.5118C13.131 9.9975 14.125 7.89062 14.125 6.25C14.125 2.87266 11.3773 0.125 8 0.125ZM8 10.625C5.5875 10.625 3.625 8.6625 3.625 6.25C3.625 3.8375 5.5875 1.875 8 1.875C10.4125 1.875 12.375 3.8375 12.375 6.25C12.375 8.6625 10.4125 10.625 8 10.625Z" fill="#4CAF50"/>
<path d="M11.0022 5.72254L8.25224 3.22254C8.18322 3.15979 8.09328 3.12502 7.99999 3.12502C7.90671 3.12502 7.81677 3.15979 7.74774 3.22254L4.99774 5.72254C4.93367 5.7808 4.89173 5.85942 4.87903 5.94508C4.86633 6.03074 4.88365 6.11816 4.92805 6.1925C4.96309 6.24911 5.01219 6.29567 5.07057 6.32765C5.12895 6.35963 5.19462 6.37595 5.26118 6.375H5.62499V8.75C5.62499 8.84946 5.6645 8.94484 5.73483 9.01517C5.80515 9.0855 5.90053 9.125 5.99999 9.125H6.87499C6.97445 9.125 7.06983 9.0855 7.14016 9.01517C7.21048 8.94484 7.24999 8.84946 7.24999 8.75V7.375C7.24999 7.27555 7.2895 7.18017 7.35983 7.10984C7.43015 7.03951 7.52554 7 7.62499 7H8.37499C8.47445 7 8.56983 7.03951 8.64016 7.10984C8.71048 7.18017 8.74999 7.27555 8.74999 7.375V8.75C8.74999 8.84946 8.7895 8.94484 8.85983 9.01517C8.93015 9.0855 9.02554 9.125 9.12499 9.125H10C10.0995 9.125 10.1948 9.0855 10.2652 9.01517C10.3355 8.94484 10.375 8.84946 10.375 8.75V6.375H10.7388C10.8054 6.37595 10.871 6.35963 10.9294 6.32765C10.9878 6.29567 11.0369 6.24911 11.0719 6.1925C11.1163 6.11816 11.1337 6.03074 11.121 5.94508C11.1083 5.85942 11.0663 5.7808 11.0022 5.72254Z" fill="#5D9CEC"/>
</svg>
