<svg width="24" height="24" viewBox="0 0 24 24" fill="none" xmlns="http://www.w3.org/2000/svg">
<path d="M18.9995 9.83157C19.0351 10.9203 18.7329 11.9311 18.3171 12.9121C17.624 14.5434 16.6821 16.0149 15.6655 17.4419C14.8018 18.6533 13.8776 19.8127 12.9144 20.9386C12.1467 21.8342 10.8955 21.8527 10.1278 20.9721C8.738 19.3816 7.4371 17.7131 6.29258 15.9146C5.54971 14.7515 4.89215 13.5401 4.41586 12.2247C3.95024 10.9389 3.88271 9.62719 4.17772 8.3043C4.74642 5.70312 6.19661 3.81541 8.51408 2.71548C10.7071 1.67501 12.9109 1.77162 15.0151 2.99046C17.4249 4.38767 18.7365 6.56894 18.9853 9.44511C18.9924 9.53058 18.9995 9.61976 19.0031 9.70523C19.0031 9.7461 18.9995 9.79069 18.9995 9.83157ZM5.25115 9.9319C5.22627 10.441 5.3329 10.9724 5.4964 11.4926C5.89094 12.7412 6.51651 13.8708 7.19895 14.9633C8.32925 16.7767 9.63726 18.4489 11.0164 20.0579C11.2972 20.3849 11.713 20.3812 11.9938 20.0505C13.0815 18.7759 14.13 17.4642 15.079 16.0707C15.9179 14.8407 16.6998 13.5736 17.2614 12.1726C17.5209 11.5261 17.7342 10.8609 17.7519 10.1511C17.7804 8.91744 17.5031 7.76177 16.9202 6.68786C15.6157 4.27247 12.9109 2.94587 10.437 3.42895C7.50463 4.00492 5.27603 6.74731 5.25115 9.9319Z" fill="#585666"/>
<path d="M11.4924 13.7741C9.42019 13.7741 7.74607 12.0165 7.74962 9.85005C7.75318 7.69107 9.44151 5.9297 11.5066 5.93341C13.5717 5.93713 15.2494 7.6985 15.2494 9.86491C15.2494 12.0276 13.5717 13.7741 11.4924 13.7741ZM11.4995 12.4698C12.8751 12.4698 13.9982 11.303 14.0018 9.86863C14.0053 8.42312 12.8822 7.24144 11.5031 7.23772C10.1311 7.23772 9.00077 8.41568 8.99721 9.84633C8.99721 11.2918 10.1168 12.4698 11.4995 12.4698Z" fill="#585666"/>
</svg>
