<svg width="24" height="24" viewBox="0 0 24 24" fill="none" xmlns="http://www.w3.org/2000/svg">
<path d="M3.67997 14.7528C3.67997 15.6366 3.68378 16.5165 3.67616 17.4002C3.67616 17.5374 3.72187 17.5831 3.84758 17.6136C4.97131 17.9031 5.66079 19.0535 5.42462 20.2458C5.20368 21.3581 4.09137 22.139 2.96002 21.979C1.87057 21.8228 1.1011 21.0191 1.00967 19.9372C0.922061 18.9087 1.54297 17.9564 2.52576 17.6478C2.75432 17.5755 2.80003 17.4841 2.80003 17.2631C2.7886 15.3547 2.79241 13.4424 2.79622 11.534C2.79622 11.153 2.94097 11.0083 3.32571 11.0045C3.67616 11.0045 4.02281 11.0045 4.37326 11.0045C4.45706 11.0045 4.50658 11.0007 4.5142 10.8864C4.63229 9.40078 5.18463 8.0942 6.14838 6.96285C7.11593 5.82388 8.32728 5.06202 9.7748 4.68872C10.1481 4.59348 10.529 4.52111 10.9138 4.50968C11.0204 4.50587 11.0623 4.47921 11.0585 4.36874C11.0509 4.1897 11.0509 4.01448 11.0585 3.83544C11.0661 3.70973 11.0242 3.67164 10.8985 3.67545C10.43 3.68307 9.95765 3.67926 9.48911 3.67926C8.19396 3.67926 6.8988 3.68307 5.60365 3.67545C5.46652 3.67545 5.42081 3.72116 5.39033 3.84306C5.12368 4.86394 4.16756 5.52295 3.05906 5.45819C2.03818 5.40105 1.17728 4.60491 1.03634 3.58403C0.899205 2.60124 1.35251 1.67939 2.18674 1.25657C3.05906 0.810881 4.09137 0.955633 4.79609 1.62606C5.08559 1.90414 5.28748 2.23936 5.38652 2.6279C5.417 2.75361 5.46652 2.79551 5.59984 2.79551C7.53114 2.7917 9.45863 2.7917 11.3899 2.7917C11.8166 2.7917 11.9499 2.92502 11.9499 3.34785C11.9499 3.68307 11.9499 4.02209 11.9499 4.35731C11.9499 4.44873 11.9537 4.50587 12.0756 4.51349C13.5612 4.61634 14.8716 5.16488 16.0106 6.12481C17.2753 7.19141 18.079 8.53989 18.3914 10.1664C18.4371 10.395 18.5095 10.4483 18.7113 10.4293C18.8447 10.4179 18.978 10.414 19.1113 10.4293C19.2751 10.4483 19.3246 10.395 19.3246 10.2236C19.317 8.89796 19.3208 7.57233 19.3208 6.2429C19.3208 6.02577 19.3132 5.81245 19.3246 5.59532C19.3284 5.47343 19.2942 5.4201 19.1685 5.38962C18.2619 5.15345 17.6029 4.35731 17.5381 3.43166C17.4657 2.44125 17.9952 1.5575 18.8751 1.188C20.0636 0.688984 21.4197 1.25657 21.8502 2.44125C22.2959 3.66783 21.6712 4.99727 20.4522 5.36296C20.2503 5.42391 20.197 5.50009 20.2008 5.70579C20.2122 7.40092 20.2084 9.09604 20.2046 10.7912C20.2046 11.1873 20.0598 11.3283 19.6675 11.3321C19.3437 11.3321 19.0199 11.3397 18.6961 11.3283C18.5475 11.3245 18.5247 11.374 18.5209 11.5111C18.4904 13.5376 17.759 15.2632 16.2734 16.646C15.0964 17.7393 13.6983 18.3602 12.0946 18.4897C11.9766 18.5011 11.9423 18.5316 11.9461 18.6459C11.9537 18.8249 11.9537 19.0001 11.9461 19.1792C11.9385 19.3011 11.988 19.3277 12.1023 19.3277C13.8812 19.3239 15.6563 19.3239 17.4352 19.3277C17.5533 19.3277 17.5838 19.2782 17.6105 19.183C17.9038 18.1126 18.9094 17.4231 19.9989 17.545C21.1036 17.6707 21.9226 18.524 21.9949 19.6249C22.0673 20.7372 21.355 21.6933 20.2693 21.9485C19.0961 22.2228 17.919 21.5219 17.6181 20.36C17.5838 20.2343 17.5267 20.2115 17.4086 20.2115C15.4735 20.2153 13.5384 20.2153 11.5994 20.2153C11.1919 20.2153 11.0547 20.0782 11.0547 19.663C11.0547 19.3277 11.0509 18.9887 11.0547 18.6535C11.0547 18.5468 11.0357 18.5049 10.9138 18.4935C8.3768 18.2345 6.49883 16.9698 5.27225 14.7452C4.81132 13.911 4.55991 13.0044 4.5142 12.0482C4.51039 11.9416 4.4723 11.9035 4.36564 11.9073C4.20184 11.9149 4.03423 11.9187 3.87044 11.9073C3.72187 11.8959 3.67616 11.9416 3.67997 12.0977C3.68759 12.9777 3.67997 13.8652 3.67997 14.7528ZM15.7477 15.8727C17.3172 14.4671 18.1552 11.8311 17.2181 9.32079C16.361 7.01999 13.8507 4.95156 10.4948 5.46581C8.09111 5.83531 5.8284 7.77803 5.43224 10.6921C5.30272 11.6444 5.40176 12.5853 5.71412 13.4996C6.02648 14.41 6.52931 15.1909 7.24164 15.8918C7.24926 15.808 7.24926 15.7775 7.25307 15.747C7.32544 14.1052 8.59012 12.8863 10.2281 12.8825C11.0928 12.8786 11.9537 12.871 12.8184 12.8863C13.8012 12.9015 14.5897 13.3129 15.1763 14.1014C15.5687 14.6157 15.7363 15.2061 15.7477 15.8727ZM8.19776 16.1051C8.19776 16.227 8.20919 16.3489 8.19396 16.467C8.17872 16.6155 8.23205 16.7031 8.36156 16.7679C8.55584 16.8631 8.73868 16.9774 8.93295 17.065C9.96146 17.5298 11.0357 17.6936 12.1594 17.5793C13.0965 17.4841 13.9612 17.1793 14.7573 16.6879C14.8259 16.646 14.8945 16.6079 14.8907 16.5013C14.883 16.227 14.8983 15.9527 14.8792 15.6823C14.7992 14.6538 14.0336 13.8614 13.0013 13.7967C12.0451 13.7357 11.0852 13.7624 10.1291 13.7891C9.55006 13.8043 9.06628 14.0595 8.68535 14.4976C8.28919 14.9585 8.16348 15.507 8.19776 16.1051ZM21.0998 19.762C21.0998 19.0078 20.5169 18.4211 19.7627 18.4173C19.0161 18.4173 18.418 19.0154 18.4218 19.762C18.4218 20.5124 19.0161 21.1029 19.7627 21.099C20.5284 21.0952 21.0998 20.5238 21.0998 19.762ZM21.0998 3.23739C21.0998 2.47553 20.5284 1.90414 19.7627 1.90033C19.0085 1.89652 18.4218 2.47934 18.418 3.23358C18.4142 3.98019 19.0085 4.57444 19.7589 4.57825C20.5131 4.58206 21.1036 3.98781 21.0998 3.23739ZM1.90104 19.762C1.90104 20.5238 2.47624 21.0952 3.2381 21.099C3.98852 21.1029 4.58277 20.5086 4.57896 19.7582C4.57515 19.0078 3.9809 18.4135 3.23429 18.4173C2.48386 18.4211 1.90104 19.0078 1.90104 19.762ZM3.23429 1.90033C2.47243 1.90414 1.90104 2.47934 1.90485 3.24119C1.90485 3.99543 2.49529 4.58206 3.24191 4.57825C3.99233 4.57444 4.58277 3.97638 4.57896 3.22977C4.57515 2.47934 3.98471 1.89652 3.23429 1.90033Z" fill="#585666"/>
<path d="M13.8241 9.59133C13.8013 10.9131 12.7613 11.9264 11.4548 11.8997C10.1672 11.8731 9.15776 10.8293 9.18062 9.55324C9.20347 8.23904 10.2472 7.22577 11.5386 7.25244C12.8337 7.28672 13.8432 8.31903 13.8241 9.59133ZM11.5043 10.955C12.2776 10.955 12.9289 10.2922 12.9289 9.51895C12.9251 8.74948 12.2776 8.10952 11.5005 8.10952C10.7158 8.10952 10.072 8.7571 10.0758 9.54181C10.0758 10.296 10.7424 10.955 11.5043 10.955Z" fill="#585666"/>
</svg>
