<svg width="16" height="16" viewBox="0 0 16 16" fill="none" xmlns="http://www.w3.org/2000/svg">
<path d="M8 16C12.4183 16 16 12.4183 16 8C16 3.58172 12.4183 0 8 0C3.58172 0 0 3.58172 0 8C0 12.4183 3.58172 16 8 16Z" fill="#3CB64B"/>
<path d="M7.06241 6.69518C7.14662 7.21888 7.6004 7.62066 8.14748 7.62066C8.69457 7.62066 9.14836 7.21888 9.23257 6.69516C9.03942 6.56075 9.04812 6.37591 9.04812 6.37591V5.80347H7.24686V6.37591C7.24686 6.37591 7.25557 6.56076 7.06241 6.69518Z" fill="#D6B24E"/>
<path d="M9.56701 3.42248C9.5667 3.42248 9.5664 3.42257 9.5661 3.42257C9.54694 2.64184 8.91628 2.00912 8.14752 2.00912H8.14752C7.37876 2.00912 6.7481 2.64184 6.72894 3.42257C6.72864 3.42257 6.72834 3.42248 6.72803 3.42248C6.57129 3.42248 6.44424 3.67858 6.44424 3.9945C6.44424 4.31041 6.57129 4.56651 6.72803 4.56651V4.68501C6.72803 5.48244 7.3668 6.13489 8.14752 6.13489H8.14752C8.92824 6.13489 9.56701 5.48244 9.56701 4.68501V4.56651C9.72374 4.56651 9.8508 4.31041 9.8508 3.9945C9.8508 3.67858 9.72374 3.42248 9.56701 3.42248Z" fill="#FFD25A"/>
<path d="M8.95252 1.83058C8.95252 1.83058 7.45284 0.860403 6.62591 2.14914C5.98379 3.14987 6.39795 4.0008 6.61518 4.25762L6.84884 4.36171V3.54722C6.95932 3.25272 7.16599 3.02553 7.55095 3.29308C7.85378 3.50356 8.10687 3.47917 8.30255 3.37196C8.72655 3.13969 9.23079 3.25554 9.49677 3.60286V4.36171H9.66424L9.84801 3.91481C10.3245 1.72179 8.95252 1.83058 8.95252 1.83058Z" fill="#293B44"/>
<path d="M8.50359 6.84433L9.2766 7.22435L8.47358 9.57878L8.23739 9.03819L8.2164 7.13824L8.50359 6.84433Z" fill="#E6E7E8"/>
<path d="M12.4494 10.3444C12.4494 10.3444 11.9488 10.6511 11.0286 10.8942C10.9563 10.9145 10.8839 10.9347 10.8058 10.9521C10.1142 11.117 9.22009 11.2357 8.14655 11.1865L8.81208 8.89472L9.24612 6.98783L9.59915 6.5943L11.888 7.49421C11.888 7.49421 12.4928 9.10886 12.4494 10.3444Z" fill="#344E5C"/>
<path d="M9.05072 6.31305L8.14655 6.78391L8.85183 7.22439L9.05072 6.31305Z" fill="#DAD7DC"/>
<path d="M7.78945 6.84433L7.01645 7.22435L7.81947 9.57878L8.05565 9.03819L8.07664 7.13824L7.78945 6.84433Z" fill="#E6E7E8"/>
<path d="M8.14653 11.1865C7.07301 11.2357 6.17887 11.117 5.4873 10.9521C5.40918 10.9347 5.33684 10.9145 5.2645 10.8942C4.34431 10.6511 3.84372 10.3444 3.84372 10.3444C3.80033 9.10886 4.40508 7.49421 4.40508 7.49421L6.69395 6.5943L7.04696 6.98783L7.481 8.89472L8.14653 11.1865Z" fill="#344E5C"/>
<path d="M7.24237 6.31305L8.14654 6.78391L7.44126 7.22439L7.24237 6.31305Z" fill="#DAD7DC"/>
<path d="M8.50245 9.78593L8.14653 10.4573L7.79062 9.78593L7.98449 7.31479L7.81665 6.9907L8.14653 6.78525L8.4764 6.9907L8.30857 7.31479L8.50245 9.78593Z" fill="#F37735"/>
<path d="M9.33293 7.87323L9.73802 8.11051L8.14653 11.1864L6.55504 8.11051L6.96015 7.87323L6.49716 7.61859L6.69394 6.59426L7.24372 6.31357L8.14653 10.4572L9.04934 6.31357L9.59913 6.59426L9.7959 7.61859L9.33293 7.87323Z" fill="#293B44"/>
<path d="M5.70721 8.81949L5.48729 10.9521C5.40918 10.9347 5.33684 10.9145 5.2645 10.8942L5.70721 8.81949Z" fill="#293B44"/>
<path d="M11.0286 10.8942C10.9563 10.9145 10.8839 10.9347 10.8058 10.9521L10.5859 8.81949L11.0286 10.8942Z" fill="#293B44"/>
<path d="M14.1136 10.6919L12.5084 9.08661V10.0018H3.78475V9.08661L2.1795 10.6918L3.78475 12.2971V11.3819H7.4565V13.2097H6.54134L8.14658 14.8149L9.75183 13.2097H8.83667V11.3819H12.5084V12.2971L14.1136 10.6919Z" fill="#ECECEC"/>
</svg>
