<svg width="15" height="15" viewBox="0 0 15 15" fill="none" xmlns="http://www.w3.org/2000/svg">
<path d="M14.3182 9.54548H0.681826C0.306826 9.54548 0 9.23865 0 8.86365V1.36365C0 0.98865 0.306826 0.681824 0.681826 0.681824H14.3182C14.6932 0.681824 15 0.98865 15 1.36365V8.86365C15 9.23865 14.6932 9.54548 14.3182 9.54548Z" fill="#0E9347"/>
<path d="M12.6136 6.81818C11.8295 6.81818 11.1136 7.19318 10.7045 7.8068C10.3636 7.63638 9.98863 7.5 9.54545 7.5C8.35228 7.5 7.36363 8.38638 7.19318 9.54545H14.3182C14.6591 9.54545 14.9318 9.30683 15 8.9659C14.8636 7.77273 13.8409 6.81818 12.6136 6.81818Z" fill="#0D8944"/>
<path d="M12.9545 8.86362H2.04545C2.04545 8.11362 1.43182 7.5 0.681824 7.5V2.72727C1.43182 2.72727 2.04545 2.11365 2.04545 1.36365H12.9545C12.9545 2.11365 13.5682 2.72727 14.3182 2.72727V7.5C13.5682 7.5 12.9545 8.11362 12.9545 8.86362Z" fill="#3BB54A"/>
<path d="M12.6136 6.81818C11.8295 6.81818 11.1136 7.19318 10.7045 7.8068C10.3636 7.63638 9.9886 7.5 9.54543 7.5C8.59088 7.5 7.77271 8.04545 7.39771 8.86363H12.9545C12.9545 8.11363 13.5341 7.53407 14.2841 7.5C13.8409 7.0909 13.2614 6.81818 12.6136 6.81818Z" fill="#0E9347"/>
<path d="M7.49998 8.18182C9.00621 8.18182 10.2273 6.80815 10.2273 5.11364C10.2273 3.41914 9.00621 2.04547 7.49998 2.04547C5.99375 2.04547 4.77271 3.41914 4.77271 5.11364C4.77271 6.80815 5.99375 8.18182 7.49998 8.18182Z" fill="#0E9347"/>
<path d="M3.40909 5.79548C3.78565 5.79548 4.09092 5.49021 4.09092 5.11365C4.09092 4.73709 3.78565 4.43182 3.40909 4.43182C3.03253 4.43182 2.72726 4.73709 2.72726 5.11365C2.72726 5.49021 3.03253 5.79548 3.40909 5.79548Z" fill="#0E9347"/>
<path d="M11.5909 5.79548C11.9674 5.79548 12.2727 5.49021 12.2727 5.11365C12.2727 4.73709 11.9674 4.43182 11.5909 4.43182C11.2143 4.43182 10.9091 4.73709 10.9091 5.11365C10.9091 5.49021 11.2143 5.79548 11.5909 5.79548Z" fill="#0E9347"/>
<path d="M7.8409 4.77273H7.15908C6.95453 4.77273 6.81818 4.63635 6.81818 4.43183C6.81818 4.22728 6.95456 4.09093 7.15908 4.09093H8.1818C8.38635 4.09093 8.5227 3.95456 8.5227 3.75003C8.5227 3.54548 8.38632 3.40914 8.1818 3.40914H7.8409C7.8409 3.20459 7.70453 3.06824 7.50001 3.06824C7.29546 3.06824 7.15911 3.20461 7.15911 3.40914C6.57956 3.40914 6.13638 3.85231 6.13638 4.43186C6.13638 5.01141 6.57956 5.45459 7.15911 5.45459H7.84093C8.04548 5.45459 8.18183 5.59096 8.18183 5.79548C8.18183 6.00003 8.04545 6.13638 7.84093 6.13638H6.81821C6.61366 6.13638 6.47731 6.27276 6.47731 6.47728C6.47731 6.68183 6.61369 6.81818 6.81821 6.81818H7.15911C7.15911 7.02273 7.29548 7.15908 7.50001 7.15908C7.70456 7.15908 7.8409 7.0227 7.8409 6.81818C8.42045 6.81818 8.86363 6.37501 8.86363 5.79545C8.86363 5.2159 8.42045 4.77273 7.8409 4.77273Z" fill="#89C763"/>
<path d="M8.86364 12.2728C10.1816 12.2728 11.25 11.2043 11.25 9.88638C11.25 8.56842 10.1816 7.5 8.86364 7.5C7.54568 7.5 6.47726 8.56842 6.47726 9.88638C6.47726 11.2043 7.54568 12.2728 8.86364 12.2728Z" fill="#FFCA5D"/>
<path d="M11.9318 11.5909C13.2498 11.5909 14.3182 10.5225 14.3182 9.20455C14.3182 7.88659 13.2498 6.81818 11.9318 6.81818C10.6139 6.81818 9.54544 7.88659 9.54544 9.20455C9.54544 10.5225 10.6139 11.5909 11.9318 11.5909Z" fill="#F6B545"/>
<path d="M11.9318 6.81818C10.6023 6.81818 9.54544 7.875 9.54544 9.20455C9.54544 10.5341 10.6023 11.5909 11.9318 11.5909C13.2614 11.5909 14.3182 10.5341 14.3182 9.20455C14.3182 7.875 13.2614 6.81818 11.9318 6.81818ZM11.9318 10.9091C10.9773 10.9091 10.2273 10.1591 10.2273 9.20455C10.2273 8.25 10.9773 7.5 11.9318 7.5C12.8864 7.5 13.6364 8.25 13.6364 9.20455C13.6364 10.1591 12.8864 10.9091 11.9318 10.9091Z" fill="#FFCB5B"/>
<path d="M11.9318 11.5568C13.2614 11.5909 14.3182 10.5 14.3182 9.20453H14.2841C14.1136 9.20453 13.9773 9.34091 13.9432 9.51135C13.875 9.98863 13.6364 10.4318 13.2955 10.7386C13.0228 11.0114 12.6478 11.1818 12.2386 11.25C12.0682 11.25 11.9318 11.3864 11.9318 11.5568Z" fill="#F6B545"/>
<path d="M11.9318 6.85228C10.6023 6.81818 9.54544 7.90911 9.54544 9.20456H9.57954C9.74999 9.20456 9.88637 9.06818 9.92044 8.89773C9.98862 8.42046 10.2273 7.97728 10.5682 7.67045C10.8409 7.39773 11.2159 7.22728 11.625 7.15908C11.7954 7.15911 11.9318 7.02273 11.9318 6.85228Z" fill="#FFE27A"/>
<path d="M10.4659 9.44317C10.4659 8.48862 11.2159 7.73862 12.1705 7.73862C12.5796 7.73862 12.9546 7.875 13.2614 8.14772C12.9205 7.73862 12.4773 7.5 11.9318 7.5C10.9773 7.5 10.2273 8.25 10.2273 9.20455C10.2273 9.75 10.4659 10.1932 10.8409 10.5C10.6023 10.2273 10.4659 9.85228 10.4659 9.44317Z" fill="#F19920"/>
<path d="M12.9546 10.2614C12.9205 10.2614 12.8864 10.2614 12.8523 10.2273C12.7841 10.1591 12.7841 10.0568 12.8523 9.98867C13.0568 9.78412 13.1591 9.47729 13.1591 9.20457C13.1591 9.10229 13.2273 9.03412 13.3296 9.03412C13.4318 9.03412 13.5 9.10229 13.5 9.20457C13.5 9.57957 13.3636 9.95457 13.125 10.2273C13.0568 10.2614 12.9886 10.2614 12.9546 10.2614Z" fill="#FFCB5B"/>
<path d="M11.9318 10.2272C11.7273 10.2272 11.5909 10.0909 11.5909 9.88635V8.52272C11.5909 8.31817 11.7273 8.18182 11.9318 8.18182C12.1364 8.18182 12.2727 8.3182 12.2727 8.52272V9.88635C12.2727 10.0909 12.1364 10.2272 11.9318 10.2272Z" fill="#F19920"/>
<path d="M13.1932 11.2159C12.9546 10.3636 12.3409 9.6818 11.5568 9.375C11.4204 8.5909 10.9091 7.9091 10.2614 7.5C9.85225 7.94317 9.57953 8.52272 9.57953 9.17045C9.57953 10.5 10.6364 11.5568 11.9659 11.5568C12.4091 11.5909 12.8182 11.4546 13.1932 11.2159Z" fill="#F19920"/>
<path d="M10.8409 10.5C10.6023 10.1931 10.4318 9.81815 10.4318 9.40907C10.4318 8.9318 10.6363 8.48863 10.9772 8.1818C10.9091 8.07952 10.8409 8.01135 10.7727 7.94318C10.4318 8.25 10.2272 8.69318 10.2272 9.20455C10.2273 9.74997 10.4659 10.1931 10.8409 10.5Z" fill="#E78825"/>
<path d="M11.5909 9.40906V9.88633C11.5909 10.0909 11.7273 10.2272 11.9318 10.2272C12.1363 10.2272 12.2727 10.0909 12.2727 9.88633V9.81816C12.0682 9.64768 11.8295 9.51133 11.5909 9.40906Z" fill="#E78825"/>
<path d="M13.1932 11.2159C13.125 10.9773 13.0568 10.7727 12.9204 10.5682C12.6477 10.7727 12.3068 10.9091 11.9318 10.9091C10.9773 10.9091 10.2273 10.1591 10.2273 9.20454C10.2273 8.69316 10.4318 8.24999 10.7727 7.94316C10.6023 7.77271 10.4318 7.63633 10.2273 7.53406C9.81817 7.97723 9.54544 8.55678 9.54544 9.20451C9.54544 10.5341 10.6023 11.5909 11.9318 11.5909C12.4091 11.5909 12.8182 11.4546 13.1932 11.2159Z" fill="#F6B545"/>
<path d="M13.0909 10.9091C12.8523 11.0796 12.5454 11.1818 12.2386 11.25C12.0682 11.2841 11.9318 11.4205 11.9318 11.5909C12.4091 11.5909 12.8182 11.4545 13.1932 11.2159C13.1591 11.1136 13.125 11.0114 13.0909 10.9091Z" fill="#F19920"/>
<path d="M10.2273 7.53412C9.81816 7.97729 9.54544 8.55684 9.54544 9.20457H9.57954C9.74999 9.20457 9.88637 9.06819 9.92044 8.89774C9.98861 8.42047 10.2273 8.01136 10.5341 7.70457C10.4318 7.67047 10.3295 7.60229 10.2273 7.53412Z" fill="#FFCB5B"/>
<path d="M8.86364 12.2728C10.1816 12.2728 11.25 11.2043 11.25 9.88638C11.25 8.56842 10.1816 7.5 8.86364 7.5C7.54568 7.5 6.47726 8.56842 6.47726 9.88638C6.47726 11.2043 7.54568 12.2728 8.86364 12.2728Z" fill="#F6B545"/>
<path d="M8.52271 11.5909C8.52271 11.8295 8.55681 12.0341 8.62498 12.2727C8.69315 12.2727 8.79543 12.2727 8.8636 12.2727C10.1932 12.2727 11.25 11.2159 11.25 9.88636C11.25 9.64773 11.2159 9.44318 11.1477 9.20453C11.0795 9.20453 10.9773 9.20453 10.9091 9.20453C9.57953 9.20456 8.52271 10.2614 8.52271 11.5909Z" fill="#F19920"/>
<path d="M8.86364 7.5C7.53409 7.5 6.47726 8.55683 6.47726 9.88638C6.47726 11.2159 7.53409 12.2728 8.86364 12.2728C10.1932 12.2728 11.25 11.2159 11.25 9.88638C11.25 8.55685 10.1932 7.5 8.86364 7.5ZM8.86364 11.5909C7.90909 11.5909 7.15909 10.8409 7.15909 9.88635C7.15909 8.9318 7.90909 8.1818 8.86364 8.1818C9.81819 8.1818 10.5682 8.9318 10.5682 9.88635C10.5682 10.8409 9.81819 11.5909 8.86364 11.5909Z" fill="#FFCB5B"/>
<path d="M8.86362 12.2386C10.1932 12.2727 11.25 11.1818 11.25 9.88635H11.2159C11.0454 9.88635 10.9091 10.0227 10.875 10.1932C10.8068 10.6705 10.5682 11.1136 10.2273 11.4205C9.95454 11.6932 9.57954 11.8636 9.17044 11.9318C8.99999 11.9318 8.86362 12.0682 8.86362 12.2386Z" fill="#F6B545"/>
<path d="M8.86364 7.5341C7.53409 7.5 6.47726 8.59093 6.47726 9.88638H6.51137C6.68182 9.88638 6.81819 9.75 6.85226 9.57956C6.92044 9.10228 7.15909 8.65911 7.49999 8.35228C7.77271 8.07955 8.14771 7.9091 8.55681 7.8409C8.72729 7.8409 8.86364 7.70455 8.86364 7.5341Z" fill="#FFE27A"/>
<path d="M7.39774 10.125C7.39774 9.17045 8.14774 8.42045 9.10229 8.42045C9.51139 8.42045 9.88639 8.55682 10.1932 8.82955C9.85229 8.42045 9.40909 8.18182 8.86364 8.18182C7.90909 8.18182 7.15909 8.93182 7.15909 9.88637C7.15909 10.4318 7.39771 10.875 7.77271 11.1818C7.53412 10.9091 7.39774 10.5341 7.39774 10.125Z" fill="#F19920"/>
<path d="M9.88638 10.9432C9.85228 10.9432 9.8182 10.9432 9.7841 10.9091C9.71593 10.8409 9.71593 10.7386 9.7841 10.6704C9.98865 10.4659 10.0909 10.1591 10.0909 9.88633C10.0909 9.78406 10.1591 9.71588 10.2614 9.71588C10.3637 9.71588 10.4318 9.78406 10.4318 9.88633C10.4318 10.2613 10.2954 10.6363 10.0568 10.9091C9.98862 10.9432 9.92045 10.9432 9.88638 10.9432Z" fill="#FFCB5B"/>
<path d="M8.8636 10.9091C8.65905 10.9091 8.52271 10.7727 8.52271 10.5682V9.20461C8.52271 9.00006 8.65908 8.86371 8.8636 8.86371C9.06815 8.86371 9.2045 9.00009 9.2045 9.20461V10.5682C9.20453 10.7727 9.06815 10.9091 8.8636 10.9091Z" fill="#F19920"/>
<path d="M10.4318 9.23863C10.5 9.44318 10.5682 9.64773 10.5682 9.88636C10.5682 10.8409 9.81822 11.5909 8.86366 11.5909C8.76139 11.5909 8.62504 11.5909 8.52277 11.5568V11.5909C8.52277 11.8295 8.55687 12.0341 8.62504 12.2727C8.69322 12.2727 8.79549 12.2727 8.86366 12.2727C10.1932 12.2727 11.25 11.2159 11.25 9.88636C11.25 9.64773 11.2159 9.44318 11.1478 9.20453C11.0796 9.20453 10.9773 9.20453 10.9091 9.20453C10.7386 9.20456 10.6023 9.20456 10.4318 9.23863Z" fill="#F6B545"/>
<path d="M10.5682 14.3182C11.8861 14.3182 12.9545 13.2498 12.9545 11.9318C12.9545 10.6139 11.8861 9.54547 10.5682 9.54547C9.25021 9.54547 8.18179 10.6139 8.18179 11.9318C8.18179 13.2498 9.25021 14.3182 10.5682 14.3182Z" fill="#F6B545"/>
<path d="M10.5682 9.54547C9.23862 9.54547 8.18179 10.6023 8.18179 11.9318C8.18179 13.2614 9.23862 14.3182 10.5682 14.3182C11.8977 14.3182 12.9545 13.2614 12.9545 11.9318C12.9545 10.6023 11.8977 9.54547 10.5682 9.54547ZM10.5682 13.6364C9.61362 13.6364 8.86362 12.8864 8.86362 11.9318C8.86362 10.9773 9.61362 10.2273 10.5682 10.2273C11.5227 10.2273 12.2727 10.9773 12.2727 11.9318C12.2727 12.8864 11.5227 13.6364 10.5682 13.6364Z" fill="#FFCB5B"/>
<path d="M10.5682 14.2841C11.8977 14.3182 12.9546 13.2273 12.9546 11.9318H12.9205C12.75 11.9318 12.6136 12.0682 12.5796 12.2386C12.5114 12.7159 12.2727 13.1591 11.9318 13.4659C11.6591 13.7386 11.2841 13.9091 10.875 13.9773C10.7046 13.9773 10.5682 14.1136 10.5682 14.2841Z" fill="#F6B545"/>
<path d="M10.5682 9.57957C9.23862 9.54547 8.18179 10.6364 8.18179 11.9319H8.21589C8.38634 11.9319 8.52272 11.7955 8.55679 11.625C8.62497 11.1478 8.86362 10.7046 9.20452 10.3977C9.47724 10.125 9.85224 9.95458 10.2613 9.88637C10.4318 9.8864 10.5682 9.75002 10.5682 9.57957Z" fill="#FFE27A"/>
<path d="M9.10227 12.1705C9.10227 11.2159 9.85227 10.4659 10.8068 10.4659C11.2159 10.4659 11.5909 10.6023 11.8977 10.875C11.5568 10.4659 11.1136 10.2273 10.5682 10.2273C9.61362 10.2273 8.86362 10.9773 8.86362 11.9318C8.86362 12.4773 9.10224 12.9205 9.47724 13.2273C9.23862 12.9546 9.10227 12.5796 9.10227 12.1705Z" fill="#F19920"/>
<path d="M11.5909 12.9886C11.5568 12.9886 11.5227 12.9886 11.4886 12.9545C11.4205 12.8864 11.4205 12.7841 11.4886 12.7159C11.6932 12.5114 11.7955 12.2045 11.7955 11.9318C11.7955 11.8295 11.8636 11.7614 11.9659 11.7614C12.0682 11.7614 12.1364 11.8295 12.1364 11.9318C12.1364 12.3068 12 12.6818 11.7614 12.9545C11.6932 12.9886 11.625 12.9886 11.5909 12.9886Z" fill="#FFCB5B"/>
<path d="M10.5682 12.9546C10.3636 12.9546 10.2273 12.8182 10.2273 12.6137V11.25C10.2273 11.0455 10.3637 10.9091 10.5682 10.9091C10.7727 10.9091 10.9091 11.0455 10.9091 11.25V12.6136C10.9091 12.8182 10.7727 12.9546 10.5682 12.9546Z" fill="#F19920"/>
</svg>
