<svg width="24" height="24" viewBox="0 0 24 24" fill="none" xmlns="http://www.w3.org/2000/svg">
<path d="M11.5401 2C14.5194 2 17.5032 2 20.4825 2C20.9537 2 21.0932 2.13005 21.0932 2.56895C21.0932 7.69355 21.0932 12.8182 21.0932 17.9428C21.0932 18.0118 21.0932 18.0809 21.0845 18.146C21.0496 18.3654 20.862 18.5158 20.6352 18.5117C20.4084 18.5076 20.2252 18.3573 20.199 18.1338C20.1859 18.0322 20.1903 17.9306 20.1903 17.829C20.1903 12.9157 20.1903 7.99834 20.1946 3.08507C20.1946 2.88593 20.1379 2.84123 19.9329 2.8453C18.1226 2.85342 16.3123 2.85342 14.5064 2.8453C14.3101 2.8453 14.2664 2.89406 14.2708 3.06881C14.2795 4.23516 14.2752 5.39744 14.2752 6.56378C14.2752 6.86858 14.1661 7.01488 13.9131 7.06771C13.7648 7.10022 13.6426 7.04739 13.5205 6.98236C12.9229 6.64912 12.3253 6.31588 11.7277 5.97858C11.6011 5.90543 11.5095 5.8973 11.3743 5.97451C10.7811 6.31588 10.1834 6.64912 9.58146 6.9783C9.15833 7.20994 8.82681 7.03113 8.82681 6.57597C8.82681 5.40556 8.82244 4.23516 8.83117 3.06068C8.83117 2.89 8.78318 2.84936 8.60433 2.84936C6.78094 2.85749 4.95756 2.85749 3.13417 2.84936C2.95532 2.84936 2.90733 2.89 2.90733 3.06068C2.91169 8.27875 2.91169 13.5009 2.90733 18.719C2.90733 18.9181 2.97713 18.9465 3.1647 18.9465C5.14949 18.9425 7.13428 18.9425 9.11471 18.9425C9.21504 18.9425 9.31537 18.9344 9.4157 18.9669C9.62508 19.0359 9.74286 19.2026 9.72105 19.4058C9.7036 19.5927 9.55093 19.7431 9.3459 19.7756C9.28047 19.7837 9.21504 19.7837 9.14961 19.7837C6.97724 19.7837 4.80488 19.7837 2.63252 19.7837C2.13523 19.7878 2 19.6577 2 19.1944C2 13.6634 2 8.12839 2 2.5974C2 2.12192 2.13087 2 2.6456 2C5.61188 2 8.57816 2 11.5401 2ZM11.5575 2.84936C11.0123 2.84936 10.467 2.85749 9.92171 2.8453C9.75159 2.84123 9.72105 2.89406 9.72105 3.04036C9.72978 3.91817 9.72541 4.80004 9.72541 5.67785C9.72541 5.74287 9.69052 5.82821 9.76031 5.86479C9.81702 5.89323 9.87809 5.82415 9.93044 5.7957C10.3492 5.56406 10.7723 5.34054 11.178 5.09671C11.4397 4.93821 11.6666 4.95041 11.9196 5.10483C12.334 5.35273 12.7659 5.57625 13.1846 5.82008C13.3373 5.90949 13.3635 5.86885 13.3635 5.72255C13.3591 4.82442 13.3591 3.92223 13.3635 3.02411C13.3635 2.87374 13.3024 2.84936 13.1628 2.84936C12.6306 2.85342 12.0941 2.84936 11.5575 2.84936Z" fill="#585666"/>
<path d="M14.2097 11.3226C18.031 11.3308 20.4302 15.0167 18.7028 18.1134C18.633 18.2394 18.6635 18.3004 18.7682 18.3817C19.645 19.0685 20.5218 19.7593 21.3942 20.4543C21.9177 20.8688 22.1053 21.4012 21.9439 22.0229C21.6559 23.1243 20.2033 23.551 19.296 22.7951C18.8467 22.4212 18.4977 21.9579 18.0964 21.5353C17.6733 21.0882 17.2589 20.6371 16.8488 20.1779C16.7441 20.0601 16.67 20.0519 16.526 20.121C13.7168 21.4662 10.2532 20.0235 9.44185 17.1787C8.66102 14.4356 10.6676 11.6803 13.6906 11.3511C13.8913 11.3308 14.0876 11.3308 14.2097 11.3226ZM14.2751 19.7878C16.526 19.7878 18.38 18.0687 18.3712 15.9799C18.3669 13.8748 16.5391 12.1679 14.2839 12.1598C12.0155 12.1557 10.1791 13.8666 10.1834 15.9758C10.1878 18.085 12.0199 19.7918 14.2751 19.7878ZM20.3647 22.3237C20.6701 22.3237 20.9318 22.1611 21.0452 21.901C21.1587 21.6328 21.0932 21.328 20.8402 21.1248C19.9721 20.4299 19.091 19.7431 18.2229 19.0522C18.1269 18.975 18.0746 18.9953 17.9961 19.0766C17.8696 19.2066 17.7387 19.3367 17.5948 19.4464C17.4857 19.5317 17.4857 19.5846 17.5773 19.6862C18.3189 20.4827 19.0517 21.2833 19.7889 22.0839C19.9416 22.2464 20.1335 22.3277 20.3647 22.3237Z" fill="#585666"/>
<path d="M5.63367 18.0931C5.19745 18.0931 4.76559 18.0972 4.32938 18.0931C4.02402 18.0891 3.82336 17.9224 3.82336 17.6745C3.82336 17.4266 4.01966 17.2519 4.32501 17.2478C5.20181 17.2438 6.07861 17.2438 6.95541 17.2478C7.26512 17.2519 7.45269 17.4266 7.44833 17.6786C7.44397 17.9265 7.24767 18.0891 6.93796 18.0891C6.50174 18.0931 6.06989 18.0931 5.63367 18.0931Z" fill="#585666"/>
<path d="M5.61625 16.3944C5.18875 16.3944 4.7569 16.3985 4.32941 16.3944C4.01969 16.3903 3.82339 16.2278 3.81903 15.9799C3.81903 15.732 4.01533 15.5572 4.32068 15.5532C5.20184 15.5491 6.07864 15.5491 6.9598 15.5532C7.25643 15.5532 7.444 15.7239 7.444 15.9718C7.444 16.2237 7.25643 16.3903 6.94235 16.3903C6.50613 16.3944 6.06119 16.3944 5.61625 16.3944Z" fill="#585666"/>
<path d="M16.5479 14.7038C16.5392 14.8217 16.4912 14.9314 16.3909 15.0208C15.4922 15.858 14.5936 16.6951 13.695 17.5282C13.49 17.7192 13.2457 17.7152 13.0363 17.5282C12.7397 17.26 12.4431 16.9877 12.1595 16.7114C11.9545 16.5163 11.9589 16.2725 12.1421 16.0977C12.3253 15.9271 12.587 15.9352 12.8008 16.1221C12.9491 16.2522 13.0974 16.3822 13.2326 16.5244C13.3373 16.6342 13.3984 16.622 13.5075 16.5244C14.2359 15.8376 14.9731 15.1549 15.706 14.4722C15.8325 14.3543 15.9677 14.2568 16.164 14.2852C16.3734 14.3177 16.5435 14.5047 16.5479 14.7038Z" fill="#585666"/>
</svg>
