<svg width="16" height="16" viewBox="0 0 16 16" fill="none" xmlns="http://www.w3.org/2000/svg">
<path d="M1.83333 0C0.820667 0 0 0.820667 0 1.83333V7.66667H7.66667V0H1.83333ZM4.83333 4.5H4.16667V5.16667C4.16667 5.44267 3.94267 5.66667 3.66667 5.66667C3.39067 5.66667 3.16667 5.44267 3.16667 5.16667V4.5H2.5C2.224 4.5 2 4.276 2 4C2 3.724 2.224 3.5 2.5 3.5H3.16667V2.83333C3.16667 2.55733 3.39067 2.33333 3.66667 2.33333C3.94267 2.33333 4.16667 2.55733 4.16667 2.83333V3.5H4.83333C5.10933 3.5 5.33333 3.724 5.33333 4C5.33333 4.276 5.10933 4.5 4.83333 4.5Z" fill="#3CB64B"/>
<path d="M0 8.33333V14.1667C0 15.1793 0.820667 16 1.83333 16H7.66667V8.33333H0ZM5.02 12.6467C5.21533 12.842 5.21533 13.1587 5.02 13.354C4.92267 13.4513 4.79467 13.5 4.66667 13.5C4.53867 13.5 4.41067 13.4513 4.31333 13.3533L3.83333 12.8733L3.35333 13.3533C3.256 13.4507 3.128 13.5 3 13.5C2.872 13.5 2.744 13.4513 2.64667 13.3533C2.45133 13.158 2.45133 12.8413 2.64667 12.646L3.12667 12.166L2.64667 11.686C2.45133 11.4907 2.45133 11.174 2.64667 10.9787C2.842 10.7833 3.15867 10.7833 3.354 10.9787L3.834 11.4587L4.314 10.9787C4.50933 10.7833 4.826 10.7833 5.02133 10.9787C5.21667 11.174 5.21667 11.4907 5.02133 11.686L4.54133 12.166L5.02 12.6467Z" fill="#00ACEA"/>
<path d="M14.1667 0H8.33334V7.66666H16V1.83333C16 0.820666 15.1793 0 14.1667 0ZM13.8333 4.33333H10.8333C10.5573 4.33333 10.3333 4.10933 10.3333 3.83333C10.3333 3.55733 10.5573 3.33333 10.8333 3.33333H13.8333C14.1093 3.33333 14.3333 3.55733 14.3333 3.83333C14.3333 4.10933 14.1093 4.33333 13.8333 4.33333Z" fill="#94D394"/>
<path d="M8.33334 8.33333V16H14.1667C15.1793 16 16 15.1793 16 14.1667V8.33333H8.33334ZM13.6667 13.6667H10.6667C10.3907 13.6667 10.1667 13.4427 10.1667 13.1667C10.1667 12.8907 10.3907 12.6667 10.6667 12.6667H13.6667C13.9427 12.6667 14.1667 12.8907 14.1667 13.1667C14.1667 13.4427 13.9427 13.6667 13.6667 13.6667ZM13.6667 11.6667H10.6667C10.3907 11.6667 10.1667 11.4427 10.1667 11.1667C10.1667 10.8907 10.3907 10.6667 10.6667 10.6667H13.6667C13.9427 10.6667 14.1667 10.8907 14.1667 11.1667C14.1667 11.4427 13.9427 11.6667 13.6667 11.6667Z" fill="#5D9CEC"/>
</svg>
