<svg width="24" height="24" viewBox="0 0 24 24" fill="none" xmlns="http://www.w3.org/2000/svg">
<path d="M12.0035 2.00284C13.6368 2.00284 15.2702 1.9981 16.9036 2.00284C19.4271 2.00757 21.4298 3.65516 21.9174 6.13128C21.979 6.44849 21.9979 6.77043 21.9979 7.09711C21.9979 10.3686 22.0026 13.6449 21.9979 16.9164C21.9932 19.7902 19.7916 21.9964 16.9178 21.9964C13.6463 22.0012 10.3701 22.0012 7.09856 21.9964C4.20107 21.9917 2.00902 19.7997 2.00428 16.9022C1.99955 13.6307 1.99955 10.3592 2.00428 7.08291C2.00902 4.20436 4.20581 2.01231 7.08436 2.00284C8.72248 2.00284 10.3653 2.00284 12.0035 2.00284ZM20.8758 11.9736C20.8758 10.3165 20.8853 8.65948 20.8758 7.00716C20.8616 4.83878 19.1856 3.13911 17.022 3.1249C13.67 3.10597 10.318 3.10597 6.96599 3.1249C4.82602 3.13911 3.13108 4.84351 3.12162 6.98822C3.10741 10.326 3.10741 13.6591 3.12162 16.9969C3.13108 19.1842 4.82602 20.8696 7.01807 20.8791C10.3322 20.8933 13.6416 20.8838 16.9557 20.8838C17.5049 20.8838 18.0446 20.7939 18.5417 20.5572C20.0331 19.8517 20.838 18.6681 20.8711 17.0158C20.9042 15.3351 20.8758 13.6543 20.8758 11.9736Z" fill="#585666"/>
<path d="M8.63697 6.67154C8.63697 6.91773 8.64644 7.15919 8.63224 7.40538C8.62277 7.55215 8.67485 7.59002 8.81688 7.59002C9.30453 7.58055 9.79691 7.58055 10.2846 7.59002C10.6302 7.59476 10.8527 7.81254 10.8527 8.12502C10.848 8.41382 10.6538 8.62687 10.3461 8.63634C9.85846 8.65054 9.36608 8.65054 8.87843 8.63634C8.67485 8.6316 8.6275 8.69789 8.63224 8.892C8.64644 9.35124 8.6417 9.80575 8.63697 10.265C8.63224 10.6437 8.43812 10.8615 8.11618 10.8615C7.79897 10.8615 7.59066 10.6295 7.58592 10.265C7.58119 9.80101 7.57645 9.3323 7.59065 8.86833C7.59539 8.67421 7.52911 8.63634 7.35393 8.64107C6.89469 8.65054 6.44018 8.64581 5.98094 8.64581C5.60218 8.64107 5.3844 8.45169 5.37966 8.12975C5.37493 7.79834 5.60692 7.59476 5.99041 7.59476C6.45439 7.59002 6.9231 7.58529 7.38707 7.59949C7.55751 7.60423 7.59539 7.55215 7.59065 7.38644C7.58119 6.91299 7.58119 6.43955 7.59065 5.9661C7.59539 5.59208 7.82264 5.36483 8.15406 5.3885C8.41918 5.4027 8.60383 5.57788 8.63224 5.85248C8.64644 5.99451 8.6417 6.13654 8.6417 6.27858C8.63697 6.40167 8.63697 6.53424 8.63697 6.67154Z" fill="#585666"/>
<path d="M6.53013 13.7922C6.70531 13.8016 6.83787 13.8632 6.95623 13.9815C7.29711 14.3319 7.64746 14.6728 7.98835 15.0231C8.0783 15.1178 8.13511 15.1273 8.2298 15.0279C8.55648 14.687 8.89736 14.3556 9.22877 14.0194C9.49864 13.7495 9.81585 13.7164 10.0431 13.9342C10.2798 14.1614 10.2514 14.4881 9.97208 14.7627C9.6454 15.0894 9.31873 15.4255 8.98258 15.7475C8.86422 15.8564 8.87842 15.9179 8.98732 16.0221C9.3282 16.3488 9.65961 16.6849 9.99102 17.0211C10.2467 17.2767 10.2656 17.5939 10.0478 17.8164C9.82058 18.0484 9.50811 18.0248 9.23824 17.7549C8.9163 17.433 8.58015 17.1157 8.27241 16.7796C8.13038 16.6234 8.05463 16.6518 7.9268 16.7891C7.61432 17.1205 7.28291 17.4377 6.96097 17.7596C6.70057 18.02 6.39757 18.0437 6.17031 17.8212C5.93359 17.5939 5.95726 17.2815 6.22713 17.0116C6.56801 16.6707 6.90416 16.3298 7.24977 15.9937C7.34446 15.9037 7.34919 15.8469 7.24977 15.7522C6.88522 15.4019 6.53013 15.0421 6.17978 14.687C6.01408 14.5213 5.962 14.3272 6.05669 14.1046C6.14664 13.9058 6.31708 13.8064 6.53013 13.7922Z" fill="#585666"/>
<path d="M15.8807 8.63634C15.1563 8.63634 14.4319 8.63634 13.7076 8.63634C13.485 8.63634 13.3051 8.56058 13.2057 8.35227C13.1157 8.16762 13.1252 7.98771 13.2436 7.81727C13.3525 7.65157 13.5182 7.58529 13.7076 7.58529C15.1563 7.58529 16.605 7.58055 18.0585 7.58529C18.4089 7.58529 18.6314 7.80307 18.6314 8.11554C18.6314 8.42802 18.4183 8.63634 18.0633 8.63634C17.3294 8.64107 16.605 8.63634 15.8807 8.63634Z" fill="#585666"/>
<path d="M15.857 15.2977C15.1563 15.2977 14.4556 15.2977 13.7549 15.2977C13.362 15.2977 13.1442 15.0989 13.1489 14.7627C13.1536 14.4455 13.3856 14.2467 13.7549 14.2467C15.18 14.2467 16.6051 14.2467 18.0349 14.2467C18.4042 14.2467 18.6267 14.4502 18.6267 14.7722C18.6267 15.0941 18.4042 15.293 18.0349 15.2977C17.3058 15.3024 16.5814 15.2977 15.857 15.2977Z" fill="#585666"/>
<path d="M15.8712 17.5182C15.1563 17.5182 14.4367 17.5182 13.7218 17.5182C13.3667 17.5182 13.1489 17.3241 13.1442 17.0069C13.1394 16.6849 13.3667 16.4766 13.7312 16.4766C15.1658 16.4766 16.6003 16.4766 18.0349 16.4766C18.3994 16.4766 18.6267 16.6849 18.6219 17.0069C18.6172 17.3335 18.4042 17.5229 18.0254 17.5229C17.3058 17.5182 16.5909 17.5182 15.8712 17.5182Z" fill="#585666"/>
</svg>
