<svg width="24" height="24" viewBox="0 0 24 24" fill="none" xmlns="http://www.w3.org/2000/svg">
<path d="M12.3565 14.9494C12.6939 15.2805 13.0125 15.5804 13.3186 15.8928C13.6123 16.1864 13.606 16.4925 13.3124 16.7862C12.5627 17.5359 11.8255 18.298 11.0571 19.029C9.63887 20.3785 7.40851 20.5347 5.82164 19.3976C5.60298 19.2414 5.49677 19.2664 5.32184 19.4476C4.57214 20.2285 3.8037 20.9845 3.03526 21.7467C2.73538 22.0465 2.41051 22.0715 2.16685 21.8154C1.92945 21.5717 1.95444 21.2656 2.24807 20.972C3.02276 20.191 3.8037 19.4101 4.58464 18.6354C4.72208 18.498 4.75957 18.4167 4.63462 18.2356C3.4226 16.505 3.59753 14.3496 5.0657 12.8377C5.76542 12.113 6.48388 11.4071 7.20234 10.6948C7.50847 10.3887 7.80835 10.395 8.12073 10.6948C8.38937 10.9572 8.65801 11.2196 8.91416 11.4883C9.02037 11.607 9.08284 11.582 9.17655 11.4883C9.52017 11.1384 9.86378 10.7948 10.2136 10.4512C10.501 10.1638 10.8259 10.1388 11.0695 10.37C11.3257 10.6136 11.3007 10.926 10.9946 11.2384C10.6572 11.5757 10.3198 11.9193 9.97623 12.2505C9.85753 12.3629 9.85753 12.4316 9.97623 12.5441C10.476 13.0314 10.9696 13.5187 11.4506 14.0248C11.5818 14.1622 11.6506 14.1247 11.763 14.006C12.0941 13.6624 12.4377 13.325 12.7751 12.9877C13.075 12.694 13.3811 12.669 13.6185 12.9189C13.8559 13.1626 13.8372 13.4875 13.5561 13.7749C13.1625 14.1684 12.7689 14.5495 12.3565 14.9494ZM8.35188 19.0477C8.87667 19.029 9.50142 18.8666 10.0325 18.4417C10.7884 17.8357 11.4132 17.0923 12.1129 16.4238C12.2503 16.2926 12.1066 16.2489 12.0504 16.1864C10.6447 14.7745 9.22653 13.3688 7.82085 11.9506C7.68965 11.8194 7.63342 11.8319 7.51472 11.9506C6.97743 12.5004 6.42765 13.0376 5.89037 13.5874C4.95949 14.5433 4.70334 15.8365 5.21564 17.0236C5.70919 18.2043 6.96494 19.0477 8.35188 19.0477Z" fill="#585666"/>
<path d="M15.8301 3.82883C16.7235 3.86632 17.5482 4.10372 18.2667 4.64725C18.4166 4.75971 18.4916 4.74721 18.6165 4.61602C19.4037 3.81634 20.2034 3.0229 20.9968 2.22947C21.2717 1.96083 21.5841 1.93584 21.8215 2.1545C22.0714 2.38566 22.0589 2.72927 21.784 3.00416C20.9968 3.79135 20.2159 4.58478 19.4224 5.35947C19.2538 5.52191 19.2725 5.61562 19.3912 5.7843C20.5532 7.4149 20.4096 9.62027 19.0226 11.0697C18.2916 11.8381 17.5295 12.5753 16.7735 13.325C16.4924 13.5999 16.1862 13.5999 15.9051 13.3188C14.1621 11.5757 12.419 9.83268 10.6759 8.08963C10.4448 7.85847 10.4073 7.51486 10.6135 7.30869C11.5131 6.42155 12.3503 5.45318 13.3374 4.65975C14.0558 4.07248 14.918 3.85382 15.8301 3.82883ZM16.3612 12.1817C16.9672 11.5757 17.5794 10.9697 18.1792 10.3512C19.2913 9.19544 19.3537 7.45863 18.3354 6.22163C17.2171 4.86592 15.424 4.5223 14.0933 5.47193C13.2312 6.08418 12.5814 6.93384 11.8255 7.64606C13.3499 9.17045 14.8493 10.6698 16.3612 12.1817Z" fill="#585666"/>
<path d="M7.7896 13.3125C8.02076 13.3063 8.16445 13.4063 8.2894 13.5312C9.01411 14.2559 9.74507 14.9806 10.4635 15.7053C10.7509 15.999 10.7697 16.3051 10.526 16.555C10.2886 16.7986 9.96998 16.7799 9.67635 16.4925C8.93914 15.7616 8.20818 15.0306 7.47723 14.2934C7.2898 14.106 7.22733 13.8873 7.33353 13.6437C7.43349 13.4312 7.60842 13.3375 7.7896 13.3125Z" fill="#585666"/>
<path d="M13.9371 7.24622C14.0996 7.22123 14.237 7.30869 14.3557 7.43364C15.0929 8.17709 15.8364 8.9143 16.5736 9.65775C16.811 9.89516 16.8172 10.2513 16.6173 10.4637C16.4049 10.6823 16.0488 10.6886 15.8051 10.4512C15.043 9.70148 14.287 8.94554 13.5373 8.18334C13.3624 8.00841 13.3124 7.78975 13.4186 7.55234C13.5248 7.34618 13.6872 7.23372 13.9371 7.24622Z" fill="#585666"/>
</svg>
