<svg width="24" height="24" viewBox="0 0 24 24" fill="none" xmlns="http://www.w3.org/2000/svg">
<path d="M11.636 7.72897C11.636 6.56075 11.664 5.39252 11.6267 4.2243C11.5893 2.99533 12.5646 1.98598 13.8339 2C15.8171 2.02337 17.8003 2.00467 19.7788 2.00935C21.0574 2.01402 21.9673 2.88785 21.972 4.16823C21.986 6.53271 21.986 8.90187 21.972 11.2664C21.9627 12.5467 21.0527 13.4206 19.7741 13.4252C17.7676 13.4252 15.7611 13.4299 13.7592 13.4252C12.6953 13.4206 11.86 12.7336 11.6593 11.7009C11.6267 11.5327 11.6313 11.3598 11.6313 11.1916C11.6313 10.0327 11.636 8.87851 11.636 7.72897ZM20.9221 7.71028C20.9221 6.53738 20.9221 5.35981 20.9221 4.18692C20.9221 3.50467 20.4788 3.06542 19.7975 3.06542C17.8003 3.06542 15.8031 3.06542 13.8059 3.06542C13.1246 3.06542 12.6766 3.5 12.6766 4.18692C12.6719 6.54673 12.6719 8.90187 12.6766 11.2617C12.6766 11.9346 13.1152 12.3645 13.7872 12.3645C15.7937 12.3645 17.7956 12.3645 19.8021 12.3645C20.4881 12.3645 20.9174 11.9299 20.9174 11.243C20.9221 10.0607 20.9221 8.88318 20.9221 7.71028Z" fill="#585666"/>
<path d="M10.2548 16.2991C10.2548 17.4813 10.2595 18.6636 10.2548 19.8458C10.2501 20.8972 9.6015 21.7196 8.61223 21.9439C8.43024 21.986 8.24359 21.9953 8.05693 21.9953C6.76435 22 5.47644 22 4.18386 21.9953C3.11993 21.9907 2.28932 21.3411 2.06067 20.3458C2.01867 20.1542 2.00934 19.9626 2.00934 19.7664C2.00934 17.4486 2.00467 15.1262 2.00934 12.8084C2.00934 11.7196 2.62063 10.8972 3.60523 10.6449C3.80122 10.5935 4.00187 10.5794 4.20719 10.5794C5.49044 10.5794 6.77369 10.5794 8.05693 10.5794C9.36818 10.5794 10.2548 11.4626 10.2595 12.771C10.2595 13.9486 10.2548 15.1215 10.2548 16.2991ZM3.06393 16.2944C3.06393 17.4673 3.06393 18.6449 3.06393 19.8178C3.06393 20.5 3.50724 20.9393 4.18853 20.9393C5.48577 20.9393 6.78302 20.9393 8.08027 20.9393C8.76155 20.9393 9.20952 20.5 9.20952 19.8178C9.21419 17.4579 9.21419 15.1028 9.20952 12.743C9.20952 12.0701 8.77089 11.6402 8.09893 11.6402C6.79235 11.6402 5.48577 11.6402 4.18386 11.6402C3.4979 11.6402 3.0686 12.0748 3.0686 12.7617C3.06393 13.9439 3.06393 15.1168 3.06393 16.2944Z" fill="#585666"/>
<path d="M16.7924 22C15.7984 22 14.8045 22.0047 13.8059 22C12.7046 21.9953 11.8694 21.3224 11.664 20.2664C11.636 20.1215 11.636 19.972 11.636 19.8271C11.6314 18.8785 11.6314 17.9299 11.636 16.9766C11.6407 15.6916 12.532 14.785 13.8152 14.785C15.8124 14.7804 17.8096 14.7804 19.8068 14.785C21.0014 14.7897 21.9067 15.5981 21.9627 16.785C22.014 17.8505 22.014 18.9159 21.9627 19.9813C21.9067 21.1963 21.0014 21.9953 19.7788 22C19.2795 22 18.7849 22 18.2856 22C17.7863 22 17.2917 22 16.7924 22ZM16.8204 15.8505C15.7938 15.8505 14.7672 15.8458 13.7452 15.8505C13.1386 15.8505 12.6906 16.271 12.6813 16.8832C12.6673 17.8878 12.6673 18.8925 12.6813 19.8925C12.6906 20.5093 13.1479 20.9393 13.7592 20.9393C15.7798 20.9393 17.8003 20.9393 19.8208 20.9393C20.4741 20.9393 20.9174 20.4953 20.9221 19.8411C20.9268 18.8785 20.9268 17.9112 20.9221 16.9486C20.9221 16.2897 20.4881 15.8505 19.8302 15.8505C18.8269 15.8505 17.8236 15.8505 16.8204 15.8505Z" fill="#585666"/>
<path d="M6.15306 2.00433C6.79235 2.00433 7.42697 2.01835 8.06626 1.99966C9.32618 1.97162 10.2968 2.98564 10.2594 4.20527C10.2315 5.13985 10.2594 6.07443 10.2548 7.00433C10.2501 8.32676 9.37284 9.20994 8.0476 9.21461C6.76435 9.21929 5.48577 9.21929 4.20252 9.21461C2.93794 9.20994 2.03733 8.33611 2.014 7.06975C1.99533 6.08845 1.99533 5.10714 2.014 4.1305C2.03733 2.88284 2.93794 2.01368 4.19319 2.00901C4.84648 2.00433 5.49977 2.00433 6.15306 2.00433ZM6.12506 8.15387C6.80168 8.15387 7.4783 8.15854 8.15026 8.15387C8.74755 8.14919 9.20019 7.71461 9.20485 7.11181C9.21418 6.11648 9.21418 5.12116 9.20485 4.12583C9.20019 3.49966 8.73822 3.06508 8.11759 3.06041C6.80635 3.06041 5.49043 3.06041 4.17919 3.06041C3.5119 3.06041 3.06393 3.50433 3.06393 4.16788C3.06393 5.1305 3.06393 6.09779 3.06393 7.06041C3.06393 7.70059 3.50257 8.14919 4.14186 8.14919C4.80448 8.15387 5.46244 8.15387 6.12506 8.15387Z" fill="#585666"/>
</svg>
