<svg width="24" height="24" viewBox="0 0 24 24" fill="none" xmlns="http://www.w3.org/2000/svg">
<path d="M20.6087 12.2519C20.3178 11.9026 20.0604 11.5988 19.803 11.2913C19.1092 10.4712 18.4155 9.65488 17.7291 8.83098C17.621 8.69809 17.5091 8.64114 17.3337 8.64114C16.0021 8.64873 14.6742 8.64493 13.3426 8.64493C13.0591 8.64493 12.9099 8.55381 12.8465 8.34119C12.757 8.05643 12.9435 7.78306 13.2382 7.76408C13.2867 7.76028 13.3389 7.76408 13.3874 7.76408C14.8048 7.76408 16.2222 7.76788 17.6396 7.76028C17.8746 7.76028 18.0387 7.83242 18.1879 8.01087C19.3629 9.40809 20.5378 10.8091 21.7277 12.1911C21.9217 12.4189 22 12.6391 22 12.9353C21.9888 15.2741 21.9963 17.6167 21.9925 19.9555C21.9925 21.049 21.0675 21.9944 19.997 21.9944C14.3684 21.9944 8.73606 21.9868 3.10746 22.002C2.13393 22.0058 1.01865 21.2351 1.00373 19.8796C0.99627 19.2721 1.00373 18.6646 1.00373 18.0572C1.00373 16.2879 1.00373 14.5148 1 12.7455C1 12.605 1.0373 12.4873 1.12682 12.381C2.35773 10.9306 3.58863 9.48023 4.81208 8.02606C4.97247 7.83622 5.14405 7.75269 5.39023 7.75649C6.82629 7.76788 8.26234 7.76028 9.6984 7.76028C10.0751 7.76028 10.2952 8.0982 10.1274 8.41333C10.0378 8.58039 9.89236 8.64493 9.70959 8.64493C9.0643 8.64114 8.41528 8.64493 7.76998 8.64493C7.05009 8.64493 6.32647 8.64493 5.60657 8.64114C5.4984 8.64114 5.4238 8.66771 5.3492 8.75124C4.4167 9.8599 3.48046 10.9686 2.54423 12.0772C2.51066 12.119 2.43979 12.1608 2.45844 12.2139C2.48455 12.286 2.56661 12.2481 2.62256 12.2481C4.24885 12.2519 5.87886 12.2481 7.50515 12.2481C7.91172 12.2481 8.05719 12.3924 8.05719 12.8062C8.05719 13.4213 8.05719 14.0326 8.05719 14.6476C8.05719 15.3387 8.48242 15.7791 9.15755 15.7829C10.7353 15.7867 12.3131 15.7867 13.8909 15.7829C14.5698 15.7829 14.9801 15.3576 14.9876 14.6704C14.9913 14.0516 14.9876 13.4289 14.9876 12.81C14.9876 12.4075 15.1442 12.2481 15.5433 12.2481C17.1472 12.2481 18.7512 12.2481 20.3513 12.2481C20.4147 12.2519 20.4856 12.2519 20.6087 12.2519ZM11.4925 21.1212C14.2901 21.1212 17.0838 21.1212 19.8813 21.1212C20.6124 21.1212 21.1234 20.601 21.1272 19.8568C21.1309 19.3822 21.1272 18.9076 21.1272 18.433C21.1272 16.7321 21.1234 15.0311 21.1309 13.3302C21.1309 13.1783 21.0936 13.1365 20.9481 13.1441C20.702 13.1555 20.452 13.1479 20.2021 13.1479C18.8183 13.1479 17.4307 13.1517 16.0469 13.1441C15.8977 13.1441 15.8604 13.1859 15.8641 13.334C15.8753 13.6491 15.8678 13.968 15.8678 14.2832C15.8678 14.5755 15.8828 14.8679 15.8194 15.1526C15.6067 16.0904 14.8607 16.6789 13.8798 16.6827C12.7794 16.6865 11.679 16.6865 10.5787 16.6827C10.0192 16.6789 9.45968 16.7169 8.90018 16.6637C7.91918 16.5688 7.19556 15.7525 7.18437 14.7502C7.18064 14.2756 7.17691 13.801 7.1881 13.3264C7.19183 13.1897 7.16199 13.1479 7.01652 13.1479C5.36412 13.1555 3.71172 13.1517 2.05933 13.1479C1.91385 13.1479 1.87282 13.1821 1.87282 13.334C1.87655 15.5019 1.87655 17.6737 1.87655 19.8416C1.87655 19.9669 1.88028 20.0922 1.91012 20.2175C2.05559 20.7681 2.52185 21.125 3.11865 21.125C5.91243 21.1212 8.70249 21.1212 11.4925 21.1212Z" fill="#585666"/>
<path d="M11.9961 11.595C12.0558 11.5229 12.108 11.447 12.1714 11.3824C12.7533 10.7863 13.3352 10.1902 13.9245 9.59792C14.1819 9.33974 14.5698 9.43086 14.6668 9.76878C14.7227 9.95862 14.6519 10.1143 14.5213 10.2472C13.8014 10.98 13.0778 11.7127 12.3579 12.4455C12.1826 12.624 12.0073 12.8062 11.8357 12.9847C11.6268 13.2011 11.3732 13.2049 11.1643 12.9922C10.2728 12.0848 9.38507 11.1736 8.49359 10.2662C8.36677 10.1371 8.27725 10.0004 8.31455 9.81434C8.34812 9.64348 8.44883 9.52199 8.62041 9.46504C8.80318 9.40808 8.94866 9.47263 9.07548 9.60172C9.49324 10.0232 9.911 10.4522 10.3288 10.8736C10.5227 11.0711 10.713 11.2685 10.9106 11.4621C10.9479 11.5001 10.9703 11.5609 11.0412 11.5533C11.0785 11.4963 11.0598 11.4318 11.0598 11.371C11.0598 8.10199 11.0598 4.83296 11.0598 1.56014C11.0598 1.34372 11.1009 1.15388 11.306 1.04757C11.5895 0.903292 11.9103 1.10072 11.9327 1.43864C11.9439 1.63987 11.9364 1.84489 11.9364 2.04612C11.9364 5.15189 11.9364 8.25766 11.9364 11.3634C11.9364 11.4242 11.9364 11.4887 11.9364 11.5495C11.955 11.5685 11.9774 11.5836 11.9961 11.595Z" fill="#585666"/>
</svg>
