<svg width="24" height="24" viewBox="0 0 24 24" fill="none" xmlns="http://www.w3.org/2000/svg">
<path d="M14.056 2.00021C14.9549 2.00021 15.8539 2.00021 16.7564 2.00021C17.595 2.00021 18.2452 2.61846 18.2487 3.45701C18.2594 5.29046 18.2558 7.12745 18.2487 8.96089C18.2487 9.36951 18.0853 9.71772 17.7939 10.0055C16.5539 11.242 15.3174 12.4821 14.0809 13.7222C12.7378 15.0653 11.3947 16.4084 10.0516 17.7479C9.36934 18.4266 8.50947 18.4159 7.82726 17.7337C6.06843 15.9784 4.31316 14.2196 2.55078 12.4679C2.22389 12.1374 1.99649 11.775 2.00004 11.2989C2.00359 10.8796 2.16704 10.5314 2.4584 10.2365C4.20657 8.48832 5.95829 6.74015 7.70645 4.99199C8.5379 4.16054 9.37289 3.3291 10.2043 2.4941C10.5277 2.16721 10.9079 1.9931 11.3769 2.00021C12.2687 2.00376 13.1641 2.00021 14.056 2.00021ZM16.9945 6.21784C16.9945 5.34731 16.9945 4.47678 16.9945 3.6098C16.9945 3.29357 16.9518 3.24738 16.6427 3.24738C14.9976 3.24738 13.3525 3.25804 11.7073 3.24027C11.3591 3.23672 11.1211 3.33976 10.8759 3.58493C8.38511 6.08992 5.88367 8.58425 3.38578 11.0821C3.20457 11.2634 3.20102 11.3415 3.37157 11.5085C5.15171 13.2922 6.93541 15.0759 8.71556 16.8561C8.90032 17.0408 8.98915 17.0373 9.17392 16.8525C11.7393 14.2907 14.2976 11.7324 16.8594 9.17408C16.9518 9.0817 16.998 8.98221 16.998 8.84719C16.9945 7.96955 16.9945 7.09547 16.9945 6.21784Z" fill="#585666"/>
<path d="M21.9973 9.94512C21.9973 10.8441 21.9937 11.743 21.9973 12.642C22.0009 13.079 21.8481 13.4486 21.5389 13.7577C18.9451 16.3515 16.3513 18.9453 13.7575 21.5392C13.1534 22.1396 12.2687 22.1503 11.6575 21.5605C11.2312 21.1483 10.8119 20.7219 10.3891 20.2955C10.1332 20.0397 10.1297 19.6489 10.3713 19.4037C10.6236 19.1479 11.0073 19.1479 11.2773 19.4108C11.6824 19.8088 12.0804 20.2138 12.4819 20.6153C12.6524 20.7859 12.7377 20.7859 12.9118 20.6153C15.4843 18.0428 18.0604 15.4703 20.6329 12.8978C20.7182 12.8125 20.7537 12.7202 20.7537 12.5993C20.7501 10.8299 20.7537 9.06038 20.7501 7.29089C20.7501 7.06349 20.6826 7.00309 20.4517 6.99953C20.338 6.99953 20.2278 7.00309 20.1141 6.99953C19.7659 6.98532 19.4994 6.71173 19.503 6.36707C19.503 6.02241 19.7695 5.75237 20.1248 5.74881C20.3664 5.74526 20.608 5.72749 20.8496 5.78079C21.5283 5.93358 22.0009 6.50919 22.0009 7.20917C22.0009 8.12234 21.9973 9.03551 21.9973 9.94512Z" fill="#585666"/>
<path d="M11.9987 6.94267C11.9987 7.19495 11.9135 7.34774 11.7749 7.48276C10.4815 8.77256 9.19173 10.0659 7.89837 11.3593C7.75269 11.505 7.60701 11.6542 7.45777 11.7963C7.18773 12.0593 6.80754 12.0593 6.55526 11.8034C6.30654 11.5512 6.31009 11.1816 6.57303 10.9151C7.7136 9.77101 8.85417 8.63044 9.99474 7.48986C10.311 7.17363 10.6272 6.85029 10.9505 6.54117C11.1424 6.3564 11.3769 6.31376 11.6221 6.42391C11.8673 6.53406 11.9916 6.73304 11.9987 6.94267Z" fill="#585666"/>
<path d="M8.87537 13.8678C8.61954 13.8572 8.42411 13.747 8.31041 13.509C8.19671 13.2673 8.23579 13.0044 8.43122 12.8054C8.93222 12.2973 9.44032 11.7928 9.94843 11.2847C10.8723 10.3608 11.7961 9.43701 12.7199 8.50963C12.8514 8.37817 12.99 8.26091 13.1854 8.24314C13.4554 8.21827 13.6935 8.35329 13.8072 8.59136C13.928 8.84008 13.8818 9.11367 13.6757 9.32331C13.2707 9.73548 12.8585 10.1441 12.4463 10.5527C11.4337 11.5654 10.421 12.5745 9.4119 13.5871C9.26266 13.7506 9.10277 13.8749 8.87537 13.8678Z" fill="#585666"/>
<path d="M15.1254 4.50876C15.4879 4.50876 15.7544 4.7788 15.7508 5.13412C15.7472 5.47523 15.4665 5.74882 15.129 5.74882C14.7843 5.74882 14.5001 5.46457 14.5036 5.11635C14.5036 4.76814 14.7737 4.50521 15.1254 4.50876Z" fill="#585666"/>
</svg>
