<?xml version="1.0" standalone="no"?>
<!DOCTYPE svg PUBLIC "-//W3C//DTD SVG 20010904//EN"
 "http://www.w3.org/TR/2001/REC-SVG-20010904/DTD/svg10.dtd">
<svg version="1.0" xmlns="http://www.w3.org/2000/svg"
 width="512.000000pt" height="512.000000pt" viewBox="0 0 512.000000 512.000000"
 preserveAspectRatio="xMidYMid meet">

<g transform="translate(0.000000,512.000000) scale(0.100000,-0.100000)"
fill="#000000" stroke="none">
<path d="M2353 4845 c-231 -42 -450 -159 -619 -331 -457 -464 -443 -1203 32
-1654 160 -152 339 -246 566 -296 103 -23 346 -23 453 0 226 50 411 146 569
296 477 453 489 1197 26 1660 -169 169 -390 285 -618 325 -102 18 -310 18
-409 0z m462 -149 c57 -15 143 -47 200 -76 439 -218 663 -718 534 -1191 -27
-98 -106 -259 -167 -339 -386 -508 -1107 -558 -1553 -108 -311 314 -385 787
-186 1183 49 99 106 176 193 262 159 158 355 257 580 293 100 15 286 4 399
-24z"/>
<path d="M2505 4416 c-8 -19 -15 -64 -15 -99 l0 -64 -47 -18 c-60 -23 -128
-86 -161 -150 -24 -44 -27 -61 -27 -145 1 -77 5 -103 22 -135 46 -87 103 -124
261 -166 57 -15 118 -36 135 -46 67 -39 87 -142 44 -223 -63 -119 -251 -119
-314 0 -13 24 -23 58 -23 77 0 41 -30 73 -68 73 -42 0 -62 -28 -62 -86 0 -100
80 -212 186 -261 l54 -24 0 -57 c0 -65 14 -122 32 -134 23 -14 65 -8 83 12 13
15 20 42 23 100 l5 80 51 23 c29 13 68 39 89 56 105 93 128 297 46 410 -39 55
-94 84 -237 126 -68 20 -134 43 -147 51 -54 35 -72 142 -35 214 29 57 72 84
145 88 108 7 177 -48 191 -152 5 -33 14 -53 32 -66 32 -26 48 -25 77 5 74 73
-31 278 -171 331 l-44 17 -1 61 c0 33 -5 77 -12 96 -11 32 -16 35 -55 38 -40
3 -43 1 -57 -32z"/>
<path d="M104 3720 c-27 -11 -68 -64 -82 -108 -59 -176 14 -644 155 -1002 177
-448 431 -775 787 -1012 103 -69 142 -102 161 -138 10 -19 45 -164 45 -186 0
-2 -19 -8 -42 -15 -55 -14 -78 -35 -78 -71 0 -16 18 -97 40 -180 22 -83 38
-153 36 -155 -2 -3 -19 -12 -38 -21 -25 -13 -34 -24 -36 -49 -3 -30 107 -455
128 -494 18 -33 53 -32 196 6 302 80 1050 286 1072 295 49 21 47 39 -23 300
-42 161 -71 249 -82 257 -9 7 -35 13 -58 13 l-42 0 -33 133 c-54 218 -65 233
-153 210 -28 -8 -40 -8 -42 1 -3 6 -16 76 -30 156 -80 450 -170 618 -410 765
-103 63 -166 109 -293 212 -153 124 -290 225 -363 265 -130 73 -248 95 -336
64 l-40 -14 -43 146 c-137 476 -265 675 -396 622z m125 -265 c61 -124 130
-336 201 -614 10 -39 42 -75 263 -298 226 -228 254 -253 283 -253 23 0 38 7
48 22 35 50 27 61 -205 294 -238 239 -235 234 -135 234 97 0 204 -63 487 -286
96 -75 230 -174 299 -219 186 -122 253 -205 314 -390 30 -90 102 -456 94 -477
-6 -13 -564 -165 -573 -156 -3 2 -16 49 -30 103 -37 149 -57 171 -283 324
-109 75 -260 215 -349 325 -296 367 -503 918 -506 1346 0 69 3 136 8 149 l7
24 19 -24 c11 -13 37 -60 58 -104z m1856 -2217 c16 -64 27 -119 25 -121 -3 -2
-194 -53 -425 -114 -280 -73 -422 -106 -426 -99 -11 20 -60 217 -57 228 4 11
811 228 838 225 10 -2 24 -38 45 -119z m213 -384 c23 -87 41 -158 40 -159 -9
-8 -1050 -287 -1054 -282 -9 8 -87 307 -82 312 6 7 1018 283 1038 284 11 1 26
-40 58 -155z"/>
<path d="M4924 3721 c-92 -40 -213 -295 -319 -673 l-27 -96 -45 15 c-65 22
-161 13 -249 -24 -99 -42 -210 -116 -419 -283 -99 -79 -211 -163 -250 -188
-156 -101 -179 -118 -240 -184 -118 -127 -180 -288 -237 -611 l-32 -177 -62 6
c-58 6 -63 5 -77 -17 -8 -13 -27 -71 -42 -129 -14 -58 -33 -128 -41 -155 l-14
-50 -43 3 c-29 3 -47 -1 -55 -11 -14 -16 -142 -475 -142 -507 0 -19 44 -60 63
-60 10 0 230 -60 934 -256 244 -67 269 -72 296 -52 20 15 150 477 145 517 -2
19 -13 31 -40 44 -21 10 -38 22 -38 27 0 4 18 75 40 156 50 184 50 198 8 224
-18 11 -40 20 -48 20 -38 1 -41 13 -24 96 26 126 38 140 191 243 170 112 272
203 401 356 245 291 431 690 518 1118 34 166 45 445 20 530 -22 76 -59 117
-111 122 -22 3 -49 1 -61 -4z m55 -304 c3 -361 -148 -832 -379 -1182 -156
-234 -301 -381 -531 -536 -166 -111 -197 -152 -228 -293 -11 -48 -22 -90 -25
-93 -6 -6 -557 137 -570 148 -5 5 0 64 13 146 51 307 113 479 213 588 32 35
103 91 178 140 69 45 197 139 285 209 281 224 404 296 507 296 31 0 60 -5 64
-11 4 -7 -83 -101 -210 -228 -182 -183 -216 -221 -216 -245 0 -39 26 -66 64
-66 27 -1 59 28 279 252 280 285 240 221 322 513 60 209 144 423 198 500 l21
29 7 -24 c4 -14 7 -78 8 -143z m-1486 -2163 c227 -59 416 -110 421 -115 7 -6
-31 -174 -52 -229 -6 -15 -49 -6 -432 95 -234 62 -424 117 -424 121 6 44 61
234 67 234 5 0 194 -48 420 -106z m-91 -385 c282 -77 514 -142 516 -144 3 -3
-78 -306 -84 -314 -3 -3 -1044 278 -1052 284 -8 7 84 315 95 315 6 0 242 -63
525 -141z"/>
</g>
</svg>
