<svg width="24" height="24" viewBox="0 0 24 24" fill="none" xmlns="http://www.w3.org/2000/svg">
<path d="M7.40264 19.2182C6.69669 19.2182 5.99431 19.2217 5.28835 19.2147C5.13426 19.2113 5.10201 19.2564 5.10559 19.3989C5.11634 19.8331 5.10918 20.2673 5.10918 20.7015C5.10918 20.9203 4.98375 21.0662 4.79382 21.0662C4.6039 21.0697 4.4713 20.9273 4.4713 20.7049C4.46772 20.1248 4.46772 19.5482 4.4713 18.9681C4.4713 18.7076 4.58598 18.6034 4.85474 18.5999C5.15218 18.5964 5.13784 18.5964 5.15576 18.3116C5.1701 18.0511 5.10559 17.8183 4.98734 17.5821C4.34588 16.3282 3.71518 15.0638 3.08089 13.8028C3.02355 13.6882 2.98772 13.5701 2.99847 13.4381C3.10239 12.1633 3.20273 10.8885 3.30307 9.6171C3.36757 8.79385 3.43208 7.96713 3.50016 7.14388C3.54675 6.60199 4.0377 6.16084 4.6039 6.15389C5.1916 6.14694 5.71838 6.55683 5.75063 7.10914C5.8008 7.91155 5.8008 8.71743 5.8223 9.51984C5.83664 10.0166 5.85097 10.5133 5.85455 11.0135C5.85455 11.1281 5.88322 11.142 5.99789 11.1177C6.51751 11.0066 6.96904 11.149 7.29155 11.5519C7.82909 12.2258 8.35587 12.9032 8.84681 13.6083C9.37001 14.3586 9.56352 15.2235 9.65669 16.1128C9.7212 16.7276 9.62802 17.339 9.63878 17.9503C9.64236 18.131 9.64236 18.3081 9.63878 18.4888C9.63519 18.5825 9.67103 18.6103 9.76062 18.6034C10.2301 18.5582 10.334 18.6833 10.3196 19.1661C10.3053 19.6733 10.3161 20.1839 10.3161 20.6945C10.3161 20.9307 10.1942 21.0731 9.99355 21.0697C9.80362 21.0662 9.68536 20.9238 9.68536 20.698C9.68536 20.2534 9.68178 19.8053 9.68895 19.3606C9.69253 19.2425 9.65311 19.2182 9.53844 19.2182C8.82173 19.2217 8.11219 19.2182 7.40264 19.2182ZM5.22385 9.40521C5.19518 9.40521 5.16293 9.40521 5.13426 9.40521C5.13426 8.72438 5.13426 8.04007 5.13426 7.35924C5.13426 7.25503 5.13068 7.15082 5.08409 7.05356C4.9945 6.86251 4.77591 6.74093 4.57523 6.76872C4.32438 6.80693 4.15954 6.98409 4.13804 7.24461C4.06278 8.1547 3.99111 9.06827 3.91944 9.97836C3.82985 11.1073 3.74026 12.2397 3.64709 13.3686C3.63992 13.4589 3.65784 13.5354 3.70084 13.6187C4.30288 14.8102 4.89058 16.0121 5.51053 17.1966C5.71838 17.596 5.85455 17.992 5.79722 18.4367C5.7793 18.5825 5.84739 18.6034 5.97639 18.6034C6.92603 18.5999 7.87567 18.5999 8.82173 18.6034C8.9579 18.6034 9.00449 18.5756 9.00091 18.4332C8.99015 17.9017 9.00807 17.3703 9.03316 16.8388C9.05466 16.3872 9.00807 15.9391 8.91848 15.4945C8.76797 14.7442 8.45621 14.0703 7.96168 13.4659C7.5639 12.9831 7.20913 12.4655 6.82211 11.9757C6.51393 11.5797 5.91189 11.6388 5.70046 12.0764C5.57862 12.3265 5.63237 12.5593 5.79722 12.7781C6.23441 13.3513 6.66802 13.9209 7.09804 14.4976C7.22705 14.6712 7.20555 14.8484 7.05146 14.9595C6.89736 15.0707 6.72177 15.0394 6.5856 14.8658C6.1269 14.2683 5.66462 13.6708 5.22027 13.0629C4.91208 12.6392 4.90491 12.1772 5.15576 11.7221C5.20235 11.6353 5.22027 11.5554 5.22027 11.4581C5.22385 10.7703 5.22385 10.0895 5.22385 9.40521Z" fill="#585666" stroke="#585666" stroke-width="0.2"/>
<path d="M16.6088 19.2182C15.9028 19.2182 15.2004 19.2217 14.4945 19.2147C14.3547 19.2147 14.326 19.253 14.3296 19.378C14.3368 19.8296 14.3332 20.2812 14.3296 20.7327C14.3296 20.896 14.2508 21.0106 14.0824 21.0523C13.939 21.087 13.8279 21.0315 13.7419 20.9168C13.6989 20.8578 13.6953 20.7883 13.6953 20.7188C13.6953 20.1283 13.6953 19.5378 13.6953 18.9473C13.6953 18.7076 13.8064 18.6034 14.0573 18.5999C14.369 18.5964 14.3619 18.5964 14.3726 18.2908C14.3977 17.603 14.2866 16.9152 14.344 16.2274C14.4085 15.4076 14.5841 14.6157 14.9854 13.8827C15.247 13.4068 15.6197 13.0004 15.9386 12.5627C16.1429 12.2779 16.3687 12.007 16.5729 11.7221C16.9349 11.2184 17.4079 10.9753 18.0493 11.1212C18.1855 11.1524 18.1461 11.0587 18.1497 11.0031C18.1748 9.95752 18.1999 8.90848 18.2249 7.86292C18.2321 7.61976 18.2285 7.37661 18.25 7.13345C18.3038 6.5603 18.8091 6.13652 19.4111 6.14694C20.0024 6.16084 20.4718 6.61588 20.5148 7.1925C20.5972 8.29365 20.694 9.39479 20.78 10.4959C20.8481 11.3713 20.8947 12.2501 20.9914 13.1255C21.0309 13.5006 20.9305 13.8098 20.7657 14.1293C20.1421 15.3486 19.5294 16.5783 18.913 17.801C18.7947 18.0372 18.8807 18.2908 18.8556 18.5374C18.8521 18.5825 18.8843 18.5964 18.9237 18.593C18.9417 18.593 18.9596 18.593 18.9775 18.593C19.472 18.5478 19.5509 18.718 19.5401 19.1592C19.5258 19.6802 19.5401 20.2013 19.5365 20.7223C19.5365 20.9203 19.4039 21.0558 19.2283 21.0592C19.0707 21.0627 18.9273 20.9516 18.9022 20.7952C18.8951 20.7501 18.8986 20.7015 18.8986 20.6563C18.8986 20.2221 18.8951 19.7879 18.9022 19.3537C18.9022 19.2425 18.8736 19.2078 18.7553 19.2113C18.0422 19.2217 17.3255 19.2182 16.6088 19.2182ZM16.6088 18.5999C17.0316 18.5999 17.4581 18.5999 17.8809 18.5999C18.2214 18.5999 18.2142 18.5999 18.2214 18.263C18.2249 18.058 18.1819 17.8496 18.2859 17.6481C18.8664 16.5018 19.4183 15.3416 20.0275 14.2127C20.3034 13.7021 20.3787 13.2054 20.3177 12.6392C20.1851 11.3504 20.1063 10.0548 20.0024 8.76259C19.963 8.24849 19.92 7.73439 19.8698 7.22377C19.8375 6.8764 19.5007 6.67146 19.1853 6.80346C18.9452 6.90419 18.8771 7.10219 18.8736 7.34187C18.8449 8.72438 18.8126 10.1069 18.7804 11.4894C18.7768 11.5693 18.8019 11.6318 18.8413 11.7013C19.0814 12.132 19.1065 12.5801 18.8234 12.9831C18.3683 13.6326 17.8738 14.2579 17.39 14.8901C17.2789 15.036 17.1033 15.0533 16.96 14.9561C16.8094 14.8553 16.7772 14.6921 16.8811 14.5288C16.942 14.4316 17.0173 14.3378 17.089 14.2475C17.4796 13.7299 17.8738 13.2123 18.2644 12.6947C18.5618 12.2953 18.293 11.8194 17.9024 11.7082C17.6444 11.6353 17.3756 11.7256 17.1965 11.9618C16.7772 12.5037 16.3794 13.0595 15.9494 13.5944C15.3366 14.3586 15.0786 15.2409 14.9926 16.1823C14.9245 16.9499 15.0463 17.7211 15.0069 18.4888C14.9998 18.6069 15.0714 18.5999 15.1538 18.5999C15.6412 18.5999 16.125 18.5999 16.6088 18.5999Z" fill="#585666" stroke="#585666" stroke-width="0.2"/>
<path d="M17.0926 6.86598C17.0961 9.58584 14.817 11.7985 12.0111 11.802C9.198 11.8055 6.91887 9.58931 6.92603 6.85556C6.92603 4.13918 9.20517 1.93343 12.0039 1.93343C14.8134 1.93343 17.089 4.13918 17.0926 6.86598ZM12.0003 11.1802C14.4156 11.2011 16.4368 9.26974 16.4583 6.92156C16.4798 4.52823 14.5016 2.57605 12.0362 2.55868C9.58861 2.53784 7.57107 4.45876 7.55315 6.8243C7.53524 9.22111 9.51335 11.1594 12.0003 11.1802Z" fill="#585666" stroke="#585666" stroke-width="0.2"/>
<path d="M9.58859 9.50595C9.47034 9.49205 9.36641 9.43995 9.31624 9.32184C9.26249 9.18984 9.28758 9.07522 9.3915 8.97101C9.6961 8.67575 9.99712 8.38049 10.3017 8.08523C11.5739 6.85209 12.8496 5.61548 14.1254 4.38234C14.1469 4.3615 14.1684 4.34065 14.1899 4.31981C14.326 4.20171 14.5016 4.19823 14.6271 4.30939C14.7596 4.42402 14.774 4.60812 14.6486 4.7436C14.4622 4.93812 14.2651 5.12569 14.0716 5.31327C12.6848 6.65757 11.2944 8.00186 9.90753 9.34616C9.81436 9.433 9.72477 9.50247 9.58859 9.50595Z" fill="#585666" stroke="#585666" stroke-width="0.2"/>
<path d="M14.7238 8.35965C14.7489 8.81817 14.5948 9.19332 14.1684 9.42258C13.466 9.80121 12.6167 9.33226 12.5665 8.54722C12.5522 8.33533 12.5486 8.11997 12.6131 7.91155C12.7565 7.43914 13.251 7.11956 13.7491 7.16819C14.2795 7.22377 14.6808 7.61629 14.7238 8.11997C14.731 8.19639 14.7238 8.27975 14.7238 8.35965ZM13.2044 8.34923C13.208 8.44649 13.1972 8.54375 13.2295 8.64101C13.3298 8.9328 13.6918 9.01964 13.9426 8.82859C14.1469 8.67228 14.1505 8.02618 13.9426 7.89071C13.8387 7.82471 13.7384 7.77955 13.6129 7.7865C13.3406 7.80734 13.208 7.99144 13.2044 8.34923Z" fill="#585666" stroke="#585666" stroke-width="0.2"/>
<path d="M9.29118 5.36538C9.26251 4.86517 9.45244 4.4796 9.93622 4.27118C10.6314 3.97245 11.3983 4.43792 11.4449 5.18127C11.4592 5.38969 11.4628 5.59811 11.4091 5.80305C11.2872 6.27547 10.7712 6.62283 10.2731 6.5742C9.74629 6.5221 9.32343 6.10526 9.29118 5.60853C9.2876 5.52864 9.29118 5.44527 9.29118 5.36538ZM10.807 5.38622C10.807 5.32717 10.8106 5.28201 10.807 5.23685C10.7927 4.9798 10.6171 4.80612 10.3662 4.80959C10.1118 4.80959 9.92547 4.99022 9.91472 5.25075C9.91114 5.34801 9.90755 5.44874 9.91472 5.546C9.9398 5.84821 10.2337 6.03579 10.5132 5.93158C10.7819 5.82737 10.8249 5.612 10.807 5.38622Z" fill="#585666" stroke="#585666" stroke-width="0.2"/>
</svg>
