<svg width="24" height="24" viewBox="0 0 24 24" fill="none" xmlns="http://www.w3.org/2000/svg">
<path d="M17.9686 17.9686H6.81608L4.09142 2.98783C4.05954 2.80843 3.96596 2.64581 3.82686 2.52811C3.68776 2.41041 3.51189 2.34504 3.32969 2.34329H1.56207" stroke="#585666" stroke-width="1.3" stroke-linecap="round" stroke-linejoin="round"/>
<path d="M7.81229 21.8749C8.891 21.8749 9.76546 21.0005 9.76546 19.9218C9.76546 18.8431 8.891 17.9686 7.81229 17.9686C6.73359 17.9686 5.85913 18.8431 5.85913 19.9218C5.85913 21.0005 6.73359 21.8749 7.81229 21.8749Z" stroke="#585666" stroke-width="1.3" stroke-linecap="round" stroke-linejoin="round"/>
<path d="M17.9684 21.8749C19.0471 21.8749 19.9216 21.0005 19.9216 19.9218C19.9216 18.8431 19.0471 17.9686 17.9684 17.9686C16.8897 17.9686 16.0153 18.8431 16.0153 19.9218C16.0153 21.0005 16.8897 21.8749 17.9684 21.8749Z" stroke="#585666" stroke-width="1.3" stroke-linecap="round" stroke-linejoin="round"/>
<path d="M6.10325 14.0623H18.3691C18.7343 14.0634 19.0882 13.9357 19.3687 13.7018C19.6491 13.4678 19.838 13.1425 19.9024 12.783L21.0938 6.24963H4.68721" stroke="#585666" stroke-width="1.3" stroke-linecap="round" stroke-linejoin="round"/>
</svg>
