<svg width="16" height="16" viewBox="0 0 16 16" fill="none" xmlns="http://www.w3.org/2000/svg">
<g clip-path="url(#clip0_3_89)">
<path d="M15.8837 2.68008C15.7887 2.56608 15.6477 2.50008 15.4997 2.50008H3.35993C3.20493 2.50008 3.05793 2.57208 2.96293 2.69508C2.86893 2.81908 2.83693 2.97908 2.87693 3.12907L4.47691 9.10898C4.53591 9.32898 4.7339 9.47998 4.9599 9.47998C4.9679 9.47998 4.9769 9.47998 4.9849 9.47898L14.5248 8.99898C14.7557 8.98698 14.9497 8.81799 14.9917 8.58999L15.9917 3.09007C16.0187 2.94308 15.9787 2.79308 15.8837 2.68008Z" fill="#3CB64B"/>
<path d="M12.4998 7.50001C12.2238 7.50001 11.9998 7.27601 11.9998 7.00001V5.00005C11.9998 4.72405 12.2238 4.50005 12.4998 4.50005C12.7758 4.50005 12.9998 4.72405 12.9998 5.00005V7.00001C12.9998 7.27601 12.7758 7.50001 12.4998 7.50001Z" fill="#FAFAFA"/>
<path d="M9.49987 7.50001C9.22387 7.50001 8.99988 7.27601 8.99988 7.00001V5.00005C8.99988 4.72405 9.22387 4.50005 9.49987 4.50005C9.77587 4.50005 9.99986 4.72405 9.99986 5.00005V7.00001C9.99986 7.27601 9.77587 7.50001 9.49987 7.50001Z" fill="#FAFAFA"/>
<path d="M6.4999 7.50001C6.22391 7.50001 5.99991 7.27601 5.99991 7.00001V5.00005C5.99991 4.72405 6.22391 4.50005 6.4999 4.50005C6.7759 4.50005 6.99989 4.72405 6.99989 5.00005V7.00001C6.99989 7.27601 6.7759 7.50001 6.4999 7.50001Z" fill="#FAFAFA"/>
<path d="M6.49989 15.4999C7.3283 15.4999 7.99986 14.8283 7.99986 13.9999C7.99986 13.1715 7.3283 12.4999 6.49989 12.4999C5.67147 12.4999 4.99991 13.1715 4.99991 13.9999C4.99991 14.8283 5.67147 15.4999 6.49989 15.4999Z" fill="#5D9CEC"/>
<path d="M12.4998 15.4999C13.3282 15.4999 13.9998 14.8283 13.9998 13.9999C13.9998 13.1715 13.3282 12.4999 12.4998 12.4999C11.6714 12.4999 10.9998 13.1715 10.9998 13.9999C10.9998 14.8283 11.6714 15.4999 12.4998 15.4999Z" fill="#5D9CEC"/>
<path d="M13.4998 11.4999H5.49992C5.27292 11.4999 5.07492 11.3479 5.01692 11.1289L2.44596 1.5001H0.499992C0.223997 1.5001 0 1.2761 0 1.00011C0 0.724111 0.223997 0.500114 0.499992 0.500114H2.82996C3.05695 0.500114 3.25495 0.652112 3.31295 0.871109L5.88391 10.5H13.4998C13.7758 10.5 13.9998 10.724 13.9998 11C13.9998 11.2759 13.7758 11.4999 13.4998 11.4999Z" fill="#5D9CEC"/>
</g>
<defs>
<clipPath id="clip0_3_89">
<rect width="16" height="16" fill="white"/>
</clipPath>
</defs>
</svg>
