<svg width="24" height="24" viewBox="0 0 24 24" fill="none" xmlns="http://www.w3.org/2000/svg">
<path d="M11.5 21.0542C8.89756 21.0542 6.29511 21.0542 3.69719 21.0542C2.59737 21.0542 1.94563 20.3934 1.94563 19.2891C1.9411 14.4417 1.9411 9.59438 1.9411 4.74704C1.9411 3.6608 2.59737 3 3.68361 3C7.39493 3 11.1017 3 14.813 3C16.3202 3 17.8274 3 19.339 3C20.3936 3 21.0589 3.66532 21.0589 4.72441C21.0589 9.58533 21.0589 14.4508 21.0589 19.3117C21.0589 20.3844 20.3981 21.0497 19.3255 21.0497C16.7185 21.0542 14.107 21.0542 11.5 21.0542ZM11.4864 19.9816C14.0979 19.9816 16.7049 19.9816 19.3164 19.9816C19.502 19.9816 19.6785 19.9725 19.8233 19.8367C19.9817 19.6874 19.9908 19.4927 19.9908 19.2936C19.9908 14.4372 19.9908 9.5808 19.9908 4.72893C19.9908 4.24918 19.8143 4.06814 19.339 4.06814C18.2302 4.06814 17.1213 4.07266 16.0124 4.06361C15.7952 4.06361 15.7363 4.1134 15.7363 4.33517C15.7454 6.24967 15.7409 8.16417 15.7454 10.0787C15.7454 10.3276 15.6639 10.5313 15.4331 10.6308C15.1932 10.7304 14.9805 10.658 14.7904 10.486C13.7494 9.52197 12.7085 8.56698 11.672 7.59842C11.5317 7.46716 11.4638 7.47621 11.328 7.60294C10.2916 8.57151 9.24607 9.52649 8.20961 10.4905C8.02857 10.658 7.82943 10.7349 7.58955 10.6489C7.36325 10.5675 7.25463 10.3683 7.25463 10.0425C7.25463 8.12796 7.2501 6.21346 7.25915 4.29896C7.25915 4.12245 7.21389 4.06814 7.03285 4.07266C5.9104 4.08171 4.78343 4.07719 3.66098 4.07719C3.18575 4.07719 3.00471 4.25823 3.00471 4.73798C3.00471 9.58533 3.00471 14.4327 3.00471 19.28C3.00471 19.8277 3.17217 19.9906 3.72435 19.9906C6.31322 19.9816 8.90209 19.9816 11.4864 19.9816ZM8.31371 8.92906C8.44496 8.81138 8.53548 8.72992 8.626 8.64845C9.44068 7.89713 10.2508 7.14129 11.0655 6.38997C11.3688 6.10936 11.6313 6.10484 11.9345 6.38545C12.6994 7.0915 13.4598 7.79756 14.2247 8.50814C14.365 8.6394 14.5098 8.76612 14.6546 8.89738C14.6727 8.85664 14.6818 8.84307 14.6818 8.83401C14.6818 7.29517 14.6818 5.75633 14.6863 4.21749C14.6863 4.04551 14.5913 4.06814 14.4872 4.06814C12.5184 4.06814 10.5496 4.07266 8.58074 4.06361C8.34087 4.06361 8.30466 4.13603 8.30466 4.35327C8.31371 5.4712 8.30918 6.58459 8.30918 7.70251C8.31371 8.09175 8.31371 8.48099 8.31371 8.92906Z" fill="#585666"/>
</svg>
