<svg width="24" height="24" viewBox="0 0 24 24" fill="none" xmlns="http://www.w3.org/2000/svg">
<path d="M11.9927 22.0152C10.4432 22.0152 8.89379 21.9964 7.34435 22.0214C6.25724 22.0401 5.45753 21.1158 5.50751 20.2039C5.55125 19.4356 5.50751 18.6674 5.52001 17.8929C5.52625 17.6431 5.45128 17.5682 5.20762 17.5869C4.22672 17.6556 3.39577 17.3308 2.73976 16.5813C2.27743 16.0567 2.03376 15.4321 2.02752 14.7388C2.01502 13.1399 2.00877 11.5347 2.02752 9.92954C2.04626 8.23693 3.50198 7.04398 4.88274 7.06897C5.50751 7.08146 5.50751 7.06897 5.50751 6.43814C5.50751 5.91974 5.50751 5.39509 5.50751 4.87669C5.52001 3.35272 6.7883 2.0411 8.3065 2.02861C10.7744 2.00987 13.236 2.00987 15.7038 2.02861C17.2095 2.0411 18.4903 3.33398 18.5153 4.83922C18.5278 5.48254 18.5341 6.1321 18.5091 6.77542C18.5028 7.03149 18.584 7.09395 18.8215 7.08146C19.7899 7.01276 20.6146 7.33129 21.2643 8.06205C21.7454 8.60543 21.9891 9.23626 21.9953 9.96077C22.0016 11.541 22.0016 13.1211 21.9953 14.7076C21.9891 16.3377 20.6021 17.6119 19.1339 17.5931C18.5153 17.5869 18.5153 17.5994 18.5091 18.2365C18.5091 18.9235 18.5153 19.6105 18.5091 20.2976C18.4966 21.2532 17.7406 22.0089 16.7785 22.0089C15.1978 22.0214 13.5921 22.0152 11.9927 22.0152ZM12.0302 13.3273C14.2794 13.3273 16.5285 13.3273 18.7715 13.3273C18.9402 13.3273 19.1026 13.321 19.2463 13.4334C19.465 13.6021 19.515 13.8394 19.4462 14.0768C19.3775 14.3203 19.1901 14.5015 18.9214 14.4702C18.5716 14.4265 18.5028 14.5764 18.5278 14.8887C18.5528 15.2385 18.5341 15.5945 18.5341 15.9505C18.5341 16.4751 18.5341 16.4814 19.0714 16.4564C20.2647 16.4064 20.8582 15.4446 20.8395 14.6326C20.802 13.0962 20.827 11.5535 20.827 10.0107C20.827 9.85459 20.827 9.70469 20.7833 9.54855C20.5209 8.69912 19.8773 8.23693 18.9277 8.23693C15.129 8.23693 11.3304 8.23693 7.53178 8.23693C6.70708 8.23693 5.88862 8.23693 5.06392 8.23693C3.82687 8.23693 3.1771 9.21752 3.20209 10.0982C3.24583 11.6159 3.21459 13.1336 3.21459 14.6576C3.21459 14.8138 3.21459 14.9637 3.25832 15.1198C3.53947 16.1066 4.37667 16.5251 5.37631 16.4626C5.51376 16.4564 5.52001 16.3752 5.52001 16.2753C5.52001 15.7444 5.51376 15.2135 5.52001 14.6826C5.52625 14.5077 5.44503 14.4765 5.29509 14.4765C5.16389 14.4827 5.02643 14.5015 4.90148 14.4328C4.65157 14.3016 4.52661 14.0455 4.58909 13.752C4.64532 13.4896 4.86399 13.3335 5.19512 13.3335C7.4693 13.3273 9.74973 13.3273 12.0302 13.3273ZM12.0489 14.4765C10.3495 14.4765 8.65638 14.4827 6.95699 14.4702C6.73207 14.4702 6.6571 14.514 6.6571 14.7575C6.66959 16.5376 6.66335 18.3176 6.66335 20.0977C6.66335 20.6286 6.86952 20.8347 7.39433 20.8347C10.4745 20.8347 13.5546 20.8347 16.6348 20.8347C17.1721 20.8347 17.3845 20.6286 17.3845 20.0852C17.3845 18.3176 17.3782 16.5501 17.3907 14.7763C17.3907 14.5202 17.3158 14.4702 17.0783 14.4702C15.3977 14.4765 13.7233 14.4765 12.0489 14.4765ZM12.0239 7.08146C13.7171 7.08146 15.4164 7.07521 17.1096 7.08771C17.3283 7.08771 17.3907 7.03149 17.3845 6.81289C17.372 6.21954 17.3845 5.62619 17.3782 5.03284C17.3595 3.80242 16.3723 3.19657 15.5476 3.20907C13.2047 3.24029 10.8681 3.24029 8.52517 3.20907C7.61925 3.19657 6.66335 3.85238 6.66335 5.06407C6.66335 5.63868 6.67584 6.20705 6.6571 6.78166C6.65085 7.03149 6.72582 7.09395 6.96948 7.08771C8.65638 7.08146 10.337 7.08146 12.0239 7.08146Z" fill="#585666"/>
<path d="M6.07602 9.57978C6.39466 9.57978 6.71954 9.57354 7.03818 9.57978C7.3818 9.58603 7.59422 9.81088 7.60047 10.1419C7.60047 10.4729 7.38805 10.7165 7.05692 10.7165C6.4134 10.7228 5.76988 10.7228 5.12636 10.7165C4.78899 10.7103 4.58281 10.4729 4.58281 10.1357C4.58281 9.80463 4.80148 9.57978 5.14511 9.57354C5.45125 9.57978 5.76363 9.57978 6.07602 9.57978Z" fill="#585666"/>
<path d="M12.0238 16.9686C11.5178 16.9686 11.0054 16.9686 10.4994 16.9686C10.112 16.9686 9.8871 16.75 9.8871 16.3939C9.8871 16.0379 10.112 15.8318 10.5056 15.8256C11.5115 15.8256 12.5174 15.8256 13.5295 15.8256C13.9294 15.8256 14.1543 16.0254 14.1543 16.3877C14.1606 16.7562 13.9356 16.9686 13.517 16.9686C13.0235 16.9748 12.5237 16.9686 12.0238 16.9686Z" fill="#585666"/>
<path d="M12.0364 18.3239C12.5363 18.3239 13.0361 18.3239 13.5296 18.3239C13.9295 18.3239 14.1544 18.53 14.1544 18.886C14.1607 19.2483 13.9358 19.4669 13.5484 19.4669C12.53 19.4731 11.5116 19.4731 10.4995 19.4669C10.1121 19.4669 9.88721 19.2483 9.89346 18.886C9.89346 18.53 10.1184 18.3239 10.512 18.3239C11.0181 18.3239 11.5241 18.3239 12.0364 18.3239Z" fill="#585666"/>
</svg>
