<svg width="16" height="16" viewBox="0 0 16 16" fill="none" xmlns="http://www.w3.org/2000/svg">
<g clip-path="url(#clip0_5_46)">
<path d="M11.72 4.732H4.27998C4.03331 4.732 3.83331 4.532 3.83331 4.28534V1.90467C3.83331 1.002 4.56731 0.268002 5.46998 0.268002H10.5293C11.432 0.268002 12.166 1.002 12.166 1.90467V4.28534C12.1666 4.532 11.9666 4.732 11.72 4.732Z" fill="#8AD7F8"/>
<path d="M14.0667 11.5333H1.93334C1.19667 11.5333 0.600006 10.9367 0.600006 10.2V5.8C0.600006 5.06333 1.19667 4.46667 1.93334 4.46667H14.0667C14.8033 4.46667 15.4 5.06333 15.4 5.8V10.2C15.4 10.9367 14.8033 11.5333 14.0667 11.5333Z" fill="#3CB64B"/>
<path d="M10.6967 15.5H5.30333C4.56667 15.5 3.97 14.9033 3.97 14.1667V9.59867C3.97 9.36 4.16333 9.16667 4.402 9.16667H11.5987C11.8373 9.16667 12.0307 9.36 12.0307 9.59867V14.1667C12.03 14.9033 11.4333 15.5 10.6967 15.5Z" fill="#8AD7F8"/>
<path d="M14.1667 12H12.3333C12.0573 12 11.8333 11.776 11.8333 11.5C11.8333 11.224 12.0573 11 12.3333 11H14.1667C14.626 11 15 10.626 15 10.1667V5.83333C15 5.374 14.626 5 14.1667 5H1.83333C1.374 5 1 5.374 1 5.83333V10.1667C1 10.626 1.374 11 1.83333 11H3.66667C3.94267 11 4.16667 11.224 4.16667 11.5C4.16667 11.776 3.94267 12 3.66667 12H1.83333C0.822 12 0 11.178 0 10.1667V5.83333C0 4.822 0.822 4 1.83333 4H14.1667C15.178 4 16 4.822 16 5.83333V10.1667C16 11.178 15.178 12 14.1667 12Z" fill="#3CB64B"/>
<path d="M9.49998 14H5.83331C5.55731 14 5.33331 13.776 5.33331 13.5C5.33331 13.224 5.55731 13 5.83331 13H9.49998C9.77598 13 9.99998 13.224 9.99998 13.5C9.99998 13.776 9.77598 14 9.49998 14Z" fill="#5D9CEC"/>
<path d="M6.83331 12H5.83331C5.55731 12 5.33331 11.776 5.33331 11.5C5.33331 11.224 5.55731 11 5.83331 11H6.83331C7.10931 11 7.33331 11.224 7.33331 11.5C7.33331 11.776 7.10931 12 6.83331 12Z" fill="#5D9CEC"/>
<path d="M12.1666 4.66667C11.8906 4.66667 11.6666 4.44267 11.6666 4.16667V1.83333C11.6666 1.374 11.2926 0.999999 10.8333 0.999999H5.16665C4.70731 0.999999 4.33331 1.374 4.33331 1.83333V4.16667C4.33331 4.44267 4.10931 4.66667 3.83331 4.66667C3.55731 4.66667 3.33331 4.44267 3.33331 4.16667V1.83333C3.33331 0.821999 4.15531 -9.53674e-07 5.16665 -9.53674e-07H10.8333C11.8446 -9.53674e-07 12.6666 0.821999 12.6666 1.83333V4.16667C12.6666 4.44267 12.4426 4.66667 12.1666 4.66667Z" fill="black" fill-opacity="0.6"/>
<path d="M10.8333 16H5.16665C4.15531 16 3.33331 15.178 3.33331 14.1667V9.16667C3.33331 8.89067 3.55731 8.66667 3.83331 8.66667H12.1666C12.4426 8.66667 12.6666 8.89067 12.6666 9.16667V14.1667C12.6666 15.178 11.8446 16 10.8333 16ZM4.33331 9.66667V14.1667C4.33331 14.626 4.70731 15 5.16665 15H10.8333C11.2926 15 11.6666 14.626 11.6666 14.1667V9.66667H4.33331Z" fill="#8AD7F8"/>
</g>
<defs>
<clipPath id="clip0_5_46">
<rect width="16" height="16" fill="white"/>
</clipPath>
</defs>
</svg>
