<svg width="12" height="14" viewBox="0 0 12 14" fill="none" xmlns="http://www.w3.org/2000/svg">
<path d="M11.8115 10.678C11.464 10.403 11.0407 10.205 10.5815 10.109L8.392 9.669C8.16237 9.625 7.99664 9.419 7.99664 9.179V8.676C8.13741 8.478 8.2702 8.215 8.40897 7.94C8.5168 7.727 8.67954 7.406 8.76041 7.323C9.20369 6.877 9.63199 6.376 9.76478 5.73C9.88858 5.124 9.76677 4.806 9.62401 4.55C9.62401 3.911 9.60404 3.111 9.45328 2.529C9.43531 1.741 9.29254 1.298 8.93312 0.91C8.67954 0.635 8.30614 0.571 8.00563 0.52C7.88782 0.5 7.72508 0.472 7.66518 0.44C7.13304 0.152 6.60689 0.011 5.97891 0C4.66404 0.054 3.04766 0.892 2.50654 2.386C2.33881 2.841 2.35578 3.588 2.36976 4.188L2.35678 4.549C2.22799 4.801 2.1012 5.121 2.22599 5.729C2.35778 6.376 2.78609 6.878 3.23735 7.33C3.31123 7.406 3.47797 7.73 3.58779 7.944C3.72856 8.218 3.86234 8.48 4.00311 8.677V9.18C4.00311 9.419 3.83638 9.625 3.60576 9.67L1.41431 10.11C0.958049 10.207 0.534735 10.403 0.188296 10.678C0.0804707 10.765 0.0125808 10.892 0.00159862 11.03C-0.00938359 11.168 0.0365419 11.303 0.129391 11.406C1.62097 13.054 3.76051 14 5.99988 14C8.23925 14 10.3798 13.055 11.8704 11.406C11.9632 11.303 12.0101 11.167 11.9982 11.029C11.9872 10.891 11.9193 10.764 11.8115 10.678Z" fill="#67CE67"/>
</svg>
