<svg width="24" height="24" viewBox="0 0 24 24" fill="none" xmlns="http://www.w3.org/2000/svg">
<path d="M22.0883 18.9505C21.9951 18.9416 21.9061 18.9461 21.8129 18.9461H21.5757C21.5757 17.6124 21.5757 16.2743 21.5757 14.9407C21.5757 13.5937 21.58 12.2467 21.5757 10.8997C21.5715 9.92167 20.9361 9.25929 20.0043 9.25929C19.0724 9.25929 18.1405 9.25929 17.2086 9.25929C16.2514 9.25929 15.6117 9.92167 15.6075 10.9219C15.6033 13.5981 15.6075 16.2743 15.6075 18.9505H14.6248C14.6248 16.5722 14.6248 14.1938 14.6248 11.8155C14.6248 9.43711 14.6248 7.05876 14.6248 4.68485C14.6248 3.66683 13.9979 3.00445 13.0406 3C12.1172 3 11.1896 3 10.2662 3C9.27924 3 8.65657 3.65794 8.65657 4.69819C8.65657 9.446 8.65657 14.1938 8.65657 18.9461H7.67387C7.67387 16.9634 7.67811 14.9851 7.67387 13.0024C7.67387 12.0066 7.0385 11.3442 6.09392 11.3442C5.16204 11.3398 4.23017 11.3398 3.2983 11.3442C2.33677 11.3442 1.70987 12.0022 1.70564 13.0113C1.70564 13.9982 1.70564 14.9807 1.70564 15.9676C1.70564 16.9634 1.70564 17.9547 1.70564 18.9505C1.56162 18.9505 1.42184 18.9505 1.27782 18.9505C0.981317 18.9505 0.790706 19.0883 0.731405 19.3373C0.638218 19.7151 0.888129 19.9997 1.31171 19.9997C4.75541 19.9997 8.19911 19.9997 11.6428 19.9997H21.8892C21.9527 19.9997 22.0163 20.0041 22.0798 19.9997C22.3678 19.9774 22.5796 19.7551 22.5754 19.4706C22.5669 19.1861 22.3678 18.9727 22.0883 18.9505ZM6.66999 18.9461H4.07345C3.61598 18.9461 3.15851 18.9461 2.70105 18.9461C2.70105 16.9723 2.70105 14.9984 2.70105 13.0246C2.70105 12.5801 2.88319 12.3889 3.30677 12.3889C4.21746 12.3889 5.12816 12.3889 6.03885 12.3889C6.50479 12.3889 6.66999 12.5623 6.66999 13.0558C6.66999 15.0207 6.66999 16.9811 6.66999 18.9461ZM9.65199 18.9461C9.65199 14.2027 9.65199 9.45489 9.65199 4.71152C9.65199 4.23141 9.82565 4.04914 10.2746 4.04914C11.1853 4.04914 12.096 4.04914 13.0067 4.04914C13.4557 4.04914 13.6336 4.23585 13.6336 4.71152C13.6336 8.98366 13.6336 13.2602 13.6336 17.5324C13.6336 18.0036 13.6336 18.4748 13.6379 18.9461H9.65199ZM20.5846 18.9461H16.6156V18.9416C16.6156 16.2743 16.6156 13.6114 16.6156 10.9441C16.6156 10.4818 16.7893 10.2995 17.2298 10.2995C18.1405 10.2995 19.0512 10.2995 19.9619 10.2995C20.4109 10.2995 20.5888 10.4907 20.5888 10.9664C20.5888 12.669 20.5888 14.3716 20.5888 16.0743C20.5846 17.03 20.5803 17.9903 20.5846 18.9461Z" fill="#585666"/>
</svg>
