<svg width="24" height="24" viewBox="0 0 24 24" fill="none" xmlns="http://www.w3.org/2000/svg">
<path d="M5.45245 22.0009C4.88043 22.0009 4.30442 22.0009 3.73241 22.0009C3.2844 22.0009 3.0004 21.7127 3.0004 21.2605C3.0004 20.132 3.0044 19.0075 2.9964 17.879C2.9964 17.6069 3.0844 17.3948 3.2764 17.2028C4.89643 15.59 6.50847 13.9693 8.1285 12.3566C8.2285 12.2566 8.2565 12.1765 8.2165 12.0325C7.21248 8.687 8.85651 5.08142 12.0366 3.63278C15.7526 1.94404 20.1127 3.74083 21.5487 7.55451C23.0728 11.5963 20.5847 16.0983 16.3647 16.9386C15.2086 17.1667 14.0606 17.1267 12.9286 16.7746C12.8126 16.7385 12.7486 16.7626 12.6686 16.8426C12.4406 17.0787 12.2046 17.3028 11.9766 17.5349C11.8086 17.707 11.6086 17.791 11.3686 17.787C10.9765 17.783 10.5805 17.791 10.1885 17.783C10.0605 17.779 10.0325 17.819 10.0365 17.9391C10.0445 18.3392 10.0405 18.7394 10.0405 19.1396C10.0365 19.5918 9.74453 19.8879 9.28852 19.8919C8.88051 19.8959 8.4765 19.8959 8.06849 19.8919C7.95649 19.8919 7.92049 19.9199 7.92449 20.036C7.93249 20.4442 7.92849 20.8484 7.92849 21.2565C7.92849 21.7167 7.64049 22.0009 7.17648 22.0009C6.59647 22.0009 6.02446 22.0009 5.45245 22.0009ZM4.40443 19.3157C4.40443 19.6958 4.40843 20.076 4.40043 20.4562C4.40043 20.5682 4.42843 20.6002 4.54443 20.6002C5.15244 20.5962 5.75645 20.5922 6.36446 20.6002C6.50846 20.6042 6.52447 20.5442 6.52047 20.4282C6.51647 20.036 6.51647 19.6398 6.52047 19.2476C6.52047 18.7754 6.80847 18.4833 7.27648 18.4833C7.67649 18.4793 8.07649 18.4793 8.4765 18.4873C8.6005 18.4913 8.6365 18.4553 8.6325 18.3312C8.6245 17.9431 8.6285 17.5589 8.6285 17.1707C8.6285 16.6545 8.90451 16.3784 9.41252 16.3744C9.94053 16.3744 10.4645 16.3704 10.9925 16.3744C11.1006 16.3744 11.1806 16.3464 11.2566 16.2663C11.5046 16.0062 11.7726 15.7621 12.0166 15.498C12.2886 15.2059 12.5886 15.1538 12.9566 15.2939C13.8966 15.6581 14.8646 15.7621 15.8606 15.594C19.5887 14.9618 21.6487 11.012 20.0287 7.59853C18.5087 4.39312 14.3206 3.40068 11.5286 5.57364C9.57252 7.0943 8.79251 9.73947 9.71252 12.0645C9.84453 12.4006 9.78853 12.6928 9.52452 12.9569C7.84849 14.6256 6.18046 16.2984 4.50443 17.9711C4.43243 18.0431 4.40043 18.1152 4.40443 18.2152C4.40843 18.5794 4.40443 18.9475 4.40443 19.3157Z" fill="#585666"/>
<path d="M16.7127 7.22636C17.3007 7.22636 17.7647 7.68656 17.7687 8.27082C17.7727 8.86308 17.2967 9.34329 16.7087 9.33929C16.1327 9.33529 15.6606 8.85908 15.6606 8.27883C15.6606 7.69457 16.1287 7.23036 16.7127 7.22636Z" fill="#585666"/>
</svg>
