<svg width="24" height="24" viewBox="0 0 24 24" fill="none" xmlns="http://www.w3.org/2000/svg">
<path d="M12.0257 21.9937C14.5329 21.9937 17.04 21.9937 19.5407 21.9937C20.4729 21.9937 20.9936 21.4936 20.9936 20.5933C20.9936 19.7993 21.0643 18.9928 20.7364 18.2238C20.2029 16.9609 19.2514 16.1669 17.8821 15.8793C16.9886 15.6918 16.0886 15.5355 15.1886 15.3604C14.7707 15.2791 14.5843 15.0416 14.5586 14.6164C14.5393 14.2726 14.6293 13.985 14.8093 13.6849C15.2014 13.0159 15.5871 12.3657 16.1143 11.7781C16.8407 10.9716 17.1621 10.04 16.7057 8.95843C16.6221 8.75836 16.6736 8.50829 16.6736 8.27696C16.68 7.72679 16.7057 7.17037 16.59 6.62645C16.3521 5.48859 15.6193 4.66333 14.6293 4.06315C13.1379 3.16286 11.5757 2.95655 9.95572 3.7568C9.68572 3.88809 9.38358 3.90059 9.09429 3.96311C8.22643 4.14442 7.78286 4.7321 7.66072 5.51985C7.50001 6.56393 7.32001 7.61426 7.33929 8.67709C7.33929 8.78962 7.34572 8.91466 7.30072 9.01469C6.86358 9.98375 7.11429 10.884 7.77 11.6218C8.41286 12.347 8.88858 13.1535 9.36429 13.9725C9.70501 14.5602 9.35786 15.2416 8.69572 15.3792C7.58358 15.6105 6.42643 15.6793 5.37215 16.1169C3.86143 16.7484 3.09001 17.9175 3.01286 19.518C2.99358 19.8806 3.00643 20.2495 3.01286 20.6121C3.01286 21.4811 3.53358 21.9875 4.42072 21.9875C6.94715 22 9.48643 21.9937 12.0257 21.9937ZM12 20.7496C11.9036 20.7496 11.8071 20.7496 11.7107 20.7496C9.33215 20.7496 6.95358 20.7434 4.575 20.7559C4.33072 20.7559 4.26643 20.6933 4.27929 20.462C4.29858 20.1432 4.26643 19.8181 4.29215 19.493C4.35643 18.5302 4.80643 17.7987 5.69358 17.3423C6.29143 17.0359 6.96643 17.0172 7.60286 16.8671C8.16215 16.7421 8.73429 16.6546 9.28715 16.517C9.88501 16.3732 10.3157 16.0044 10.5407 15.4542C10.7914 14.8478 10.7593 14.2163 10.6371 13.5849C10.6307 13.5661 10.6179 13.5474 10.605 13.5349C9.99429 12.6533 9.58929 11.6468 8.79215 10.8778C8.36143 10.4589 8.22643 9.88371 8.54143 9.30228C8.63786 9.12723 8.625 8.93967 8.61858 8.75211C8.57358 7.82057 8.81143 6.91404 8.85643 5.995C8.86286 5.84495 8.92072 5.68865 8.97858 5.54486C9.05572 5.33854 9.18429 5.20725 9.43501 5.17599C9.88501 5.11347 10.3221 4.99469 10.74 4.78212C11.1579 4.56955 11.6336 4.47577 12.1029 4.51329C12.945 4.57581 13.6971 4.88215 14.3464 5.40732C14.9379 5.88872 15.3621 6.4764 15.3814 7.26415C15.3943 7.77681 15.3879 8.28321 15.3943 8.79587C15.3943 8.95843 15.375 9.12723 15.4586 9.28353C15.7993 9.92123 15.6129 10.4902 15.1564 10.9653C14.5457 11.5905 14.16 12.3532 13.6907 13.066C13.35 13.5849 13.2471 14.0975 13.2921 14.679C13.2921 14.6977 13.2921 14.7227 13.2921 14.7415C13.3179 15.6168 13.9029 16.3545 14.7771 16.542C15.6579 16.7359 16.5514 16.8984 17.4386 17.061C18.5507 17.2673 19.3093 17.8675 19.6307 18.9428C19.7786 19.4367 19.695 19.9556 19.7207 20.462C19.7336 20.6996 19.6629 20.7496 19.425 20.7496C16.9436 20.7434 14.475 20.7496 12 20.7496Z" fill="#585666"/>
<path d="M20.9935 4.46952C20.9935 3.89434 20.9935 3.32541 20.9935 2.75023C20.9935 2.24383 20.7493 2 20.2414 2C19.4507 2 18.66 2 17.8628 2C17.4257 2.00625 17.1428 2.25008 17.1428 2.6252C17.1428 2.99406 17.4257 3.25039 17.8564 3.25039C18.3578 3.25664 18.8657 3.26289 19.3671 3.24414C19.6307 3.23163 19.7271 3.28165 19.7207 3.56924C19.695 4.46327 19.7078 5.3573 19.7143 6.25133C19.7143 6.70772 19.9521 6.98906 20.3443 6.99531C20.7428 7.00781 20.9935 6.72022 20.9935 6.25133C21 5.65739 20.9935 5.06346 20.9935 4.46952Z" fill="#585666"/>
<path d="M2.99999 4.53204C2.99999 5.11347 2.99999 5.6949 2.99999 6.28259C2.99999 6.73273 3.25713 7.00782 3.65571 7.00156C4.03499 6.99531 4.28571 6.72023 4.28571 6.28884C4.28571 5.38231 4.30499 4.47577 4.27928 3.57549C4.27285 3.28165 4.36928 3.23789 4.63285 3.25039C5.13428 3.26915 5.6357 3.25664 6.14356 3.25664C6.57428 3.25664 6.86356 3.00031 6.85713 2.6252C6.85071 2.25633 6.56142 2.00625 6.1307 2.00625C5.33999 2.00625 4.54928 2.00625 3.75213 2.00625C3.25071 2.00625 2.99999 2.24383 2.99999 2.72523C2.99999 3.32541 2.99999 3.9256 2.99999 4.53204Z" fill="#585666"/>
<path d="M20.9936 11.9969C20.9936 11.4029 20.9936 10.809 20.9936 10.2151C20.9936 9.77743 20.7236 9.48359 20.3379 9.49609C19.9586 9.50234 19.7079 9.78368 19.7079 10.2088C19.7079 11.1216 19.7014 12.0406 19.7143 12.9534C19.7143 13.1722 19.6821 13.2598 19.425 13.2473C18.9043 13.2223 18.3771 13.2348 17.85 13.241C17.4193 13.2473 17.13 13.5036 17.1364 13.8725C17.1429 14.2413 17.4257 14.4852 17.8629 14.4914C18.6536 14.4914 19.4443 14.4914 20.235 14.4914C20.7364 14.4914 20.9871 14.2538 20.9871 13.7724C21 13.1847 20.9936 12.5908 20.9936 11.9969Z" fill="#585666"/>
<path d="M2.99997 11.9781C2.99997 12.5846 2.99997 13.1847 2.99997 13.7912C2.99997 14.2601 3.25069 14.4977 3.73283 14.4977C4.5364 14.4977 5.33997 14.4977 6.13712 14.4977C6.56783 14.4977 6.85712 14.2351 6.85712 13.8662C6.85069 13.4973 6.5614 13.2473 6.13069 13.2473C5.59712 13.241 5.06355 13.2348 4.52355 13.2535C4.31783 13.2598 4.27926 13.1972 4.27926 13.0097C4.29212 12.0969 4.28569 11.1779 4.28569 10.2651C4.28569 9.78993 4.0414 9.50234 3.64283 9.50234C3.24426 9.50234 2.99997 9.78368 2.99997 10.2651C2.99997 10.834 2.99997 11.4092 2.99997 11.9781Z" fill="#585666"/>
</svg>
