<svg width="16" height="16" viewBox="0 0 16 16" fill="none" xmlns="http://www.w3.org/2000/svg">
<path d="M0.87737 6.26267L2.13076 6.10333C2.23409 5.78533 2.36143 5.47867 2.51011 5.18733L1.73607 4.19067C1.42273 3.78733 1.45939 3.218 1.81741 2.87133L2.86745 1.82133C3.21747 1.46 3.78683 1.424 4.19084 1.73667L5.18622 2.51067C5.47756 2.362 5.78424 2.23467 6.10292 2.13133L6.26226 0.88C6.32226 0.378 6.74828 0 7.25297 0H8.74636C9.25105 0 9.67707 0.378 9.73707 0.878L9.89641 2.13133C10.2151 2.23467 10.5218 2.36133 10.8131 2.51067L11.8092 1.73667C12.2118 1.424 12.7812 1.46 13.1285 1.818L14.1786 2.86733C14.5399 3.218 14.5766 3.78733 14.2633 4.19133L13.4892 5.18733C13.6386 5.47867 13.7652 5.78533 13.8686 6.10333L15.12 6.26267C15.622 6.32267 16 6.74867 16 7.25333V8.74667C16 9.25133 15.622 9.67733 15.122 9.73733L13.8686 9.89667C13.7652 10.2147 13.6379 10.5213 13.4892 10.8127L14.2633 11.8093C14.5766 12.2127 14.5399 12.782 14.1819 13.1287L13.1319 14.1787C12.7812 14.5393 12.2125 14.5753 11.8085 14.2627L10.8125 13.4887C10.5211 13.638 10.2144 13.7653 9.89641 13.868L9.73707 15.1187C9.67707 15.622 9.25105 16 8.74636 16H7.25297C6.74828 16 6.32226 15.622 6.26226 15.122L6.10292 13.8687C5.78491 13.7653 5.47823 13.638 5.18688 13.4893L4.19018 14.2633C3.78683 14.5767 3.21747 14.54 2.87079 14.182L1.82074 13.132C1.45939 12.7813 1.42273 12.2127 1.73607 11.8087L2.51011 10.8127C2.36077 10.5213 2.23343 10.2147 2.13076 9.89667L0.880036 9.73733C0.378016 9.67733 0 9.25133 0 8.74667V7.25333C-0.000667572 6.74867 0.377349 6.32267 0.87737 6.26267ZM7.99967 11.3333C9.83774 11.3333 11.3331 9.838 11.3331 8C11.3331 6.162 9.83774 4.66667 7.99967 4.66667C6.16159 4.66667 4.66619 6.162 4.66619 8C4.66619 9.838 6.16159 11.3333 7.99967 11.3333Z" fill="#3CB64B"/>
</svg>
