<svg width="24" height="24" viewBox="0 0 24 24" fill="none" xmlns="http://www.w3.org/2000/svg">
<path d="M12.3196 3C14.9091 3.03359 17.5026 3.85102 19.7007 5.65757C21.5312 7.16179 22.6658 9.04673 22.9426 11.346C23.1521 13.1115 22.7726 14.7725 21.8514 16.3177C20.7247 18.2101 19.0721 19.5613 16.9926 20.4497C14.5928 21.4761 12.0903 21.7113 9.50867 21.2223C9.01844 21.129 8.53612 21.0095 8.06565 20.8453C7.96286 20.808 7.86403 20.808 7.76124 20.8378C5.9545 21.3529 4.15171 21.8606 2.34497 22.3757C2.11567 22.4428 1.89823 22.4354 1.73218 22.2487C1.55823 22.0584 1.58195 21.8531 1.69265 21.6403C2.27776 20.528 2.85893 19.4157 3.4559 18.3109C3.54288 18.1504 3.48753 18.0683 3.38474 17.96C2.33311 16.8515 1.58986 15.5861 1.24195 14.1305C0.617304 11.5177 1.21033 9.14377 2.92613 7.03488C4.4838 5.12009 6.55938 3.94433 9.02635 3.34713C10.0068 3.11198 11.0031 3.00747 12.3196 3ZM3.12381 21.1103C3.18706 21.1252 3.23055 21.1103 3.27404 21.0954C4.72892 20.6811 6.17985 20.2742 7.63472 19.8599C7.8324 19.8039 8.01426 19.8039 8.21193 19.8674C10.4852 20.6214 12.7861 20.7035 15.0989 20.0727C17.4077 19.4419 19.3291 18.2549 20.6377 16.3215C22.3417 13.8095 22.4405 11.1929 20.9224 8.57269C19.8865 6.78107 18.2735 5.56426 16.3007 4.78416C14.2173 3.95926 12.0587 3.75771 9.84076 4.17575C7.40542 4.63112 5.34171 5.70236 3.7959 7.55744C2.17893 9.49836 1.65707 11.6931 2.29753 14.0969C2.65334 15.4331 3.38869 16.5753 4.40078 17.5644C4.73683 17.8929 4.75659 18.0123 4.53915 18.4229C4.3059 18.8596 4.0766 19.3 3.84334 19.7367C3.60613 20.1958 3.36892 20.6475 3.12381 21.1103Z" fill="#585666"/>
<path d="M12.0191 9.92014C14.1184 9.92014 16.2217 9.92014 18.321 9.92014C18.7638 9.92014 19.0208 10.271 18.8428 10.6181C18.7282 10.8383 18.5226 10.8906 18.2854 10.8906C16.9373 10.8906 15.5852 10.8906 14.237 10.8906C11.4182 10.8906 8.59939 10.8906 5.78056 10.8906C5.68172 10.8906 5.58289 10.8943 5.488 10.8682C5.24684 10.801 5.08475 10.5957 5.10847 10.368C5.13219 10.1329 5.318 9.95 5.56312 9.92387C5.62242 9.91641 5.68172 9.92014 5.74103 9.92014C7.83242 9.92014 9.92381 9.92014 12.0191 9.92014Z" fill="#585666"/>
<path d="M12.0113 13.5743C13.3831 13.5743 14.751 13.5743 16.1229 13.5743C16.3601 13.5743 16.5499 13.6452 16.6527 13.858C16.7871 14.1305 16.629 14.444 16.3245 14.5261C16.2336 14.5485 16.1427 14.5522 16.0517 14.5522C13.3436 14.5522 10.6355 14.5522 7.9313 14.5522C7.60316 14.5522 7.39363 14.4328 7.32247 14.2051C7.21968 13.8804 7.46479 13.5818 7.84433 13.5818C8.7813 13.578 9.71432 13.5818 10.6513 13.5818C11.102 13.5743 11.5566 13.5743 12.0113 13.5743Z" fill="#585666"/>
</svg>
