<svg width="24" height="24" viewBox="0 0 24 24" fill="none" xmlns="http://www.w3.org/2000/svg">
<path d="M11.3371 3.00015C14.401 3.0135 16.8334 5.12725 17.2644 7.96895C17.4448 9.15104 17.1475 10.2263 16.6262 11.2648C15.9446 12.6205 15.0559 13.8327 14.0936 14.9981C13.4989 15.7193 12.8741 16.4139 12.1958 17.0584C12.1022 17.1452 12.0087 17.232 11.9085 17.3155C11.6378 17.5392 11.3638 17.5392 11.0965 17.3122C10.5118 16.8113 9.99394 16.2436 9.48607 15.6692C8.40018 14.4337 7.39447 13.1414 6.59926 11.6955C6.20834 10.9809 5.86753 10.243 5.74057 9.43154C5.5969 8.51324 5.73054 7.62166 6.06801 6.76348C6.80307 4.91353 8.1429 3.72142 10.0608 3.18714C10.5352 3.05024 11.023 2.99681 11.3371 3.00015ZM11.444 3.89506C11.2536 3.88839 10.9963 3.90174 10.7457 3.94849C8.90136 4.29244 7.60831 5.33094 6.90665 7.07403C6.62933 7.75857 6.50571 8.47651 6.61263 9.21448C6.72289 9.97583 7.04364 10.6604 7.41786 11.3215C8.48705 13.2082 9.86363 14.8545 11.3939 16.3838C11.4841 16.474 11.5342 16.464 11.6211 16.3805C12.3228 15.696 12.9743 14.9647 13.5924 14.2033C14.5046 13.078 15.3499 11.9059 15.9647 10.5869C16.3255 9.80553 16.5193 9.00077 16.389 8.12923C16.0315 5.7016 13.96 3.8984 11.444 3.89506Z" fill="#585666" stroke="#585666" stroke-width="0.3"/>
<path d="M11.4875 19.9969C9.12187 19.9969 6.75629 19.9969 4.39071 19.9969C3.73583 19.9969 3.23131 19.6697 3.05422 19.1387C2.94396 18.7981 3.00076 18.4776 3.23465 18.2037C4.09334 17.1819 4.97542 16.1802 5.81407 15.1417C6.2217 14.6341 6.7329 14.5907 7.29757 14.6508C7.52477 14.6742 7.6651 14.8779 7.65508 15.1049C7.64505 15.3253 7.48467 15.499 7.25079 15.519C7.10044 15.5323 6.95008 15.5257 6.79973 15.5257C6.70951 15.5257 6.64269 15.5524 6.58255 15.6258C5.71717 16.651 4.8518 17.6728 3.98642 18.6946C3.86948 18.8315 3.88285 18.9183 4.02986 19.0185C4.15682 19.1053 4.3005 19.1053 4.44751 19.1053C6.25177 19.1053 8.05268 19.1053 9.85694 19.1053C12.7571 19.1053 15.6573 19.1053 18.5575 19.1053C18.7011 19.1053 18.8481 19.1087 18.9751 19.0252C19.1322 18.9217 19.1522 18.8315 19.0319 18.6913C18.1665 17.6695 17.2978 16.6477 16.4358 15.6225C16.379 15.5557 16.3188 15.5257 16.2353 15.5257C16.095 15.5257 15.958 15.5323 15.8177 15.5257C15.5504 15.5157 15.3699 15.3353 15.3666 15.0849C15.3633 14.8378 15.5437 14.6474 15.8076 14.6341C16.0115 14.6241 16.2186 14.6207 16.4258 14.6474C16.6931 14.6842 16.9136 14.8011 17.084 15.0047C17.9627 16.0399 18.8248 17.0884 19.7169 18.1102C20.2381 18.7046 20.0075 19.4827 19.3761 19.8266C19.1288 19.9602 18.8649 20.0036 18.5875 20.0036C16.2186 19.9969 13.853 20.0003 11.4875 19.9969Z" fill="#585666" stroke="#585666" stroke-width="0.3"/>
<path d="M11.5175 6.03217C13.0311 6.03885 14.2573 7.24766 14.2506 8.73029C14.2439 10.2229 13.0044 11.4284 11.4874 11.4217C9.9839 11.415 8.75433 10.1929 8.76101 8.71025C8.7677 7.22762 10.0039 6.0255 11.5175 6.03217ZM11.5275 10.5301C12.5566 10.5134 13.3719 9.69199 13.3552 8.68688C13.3385 7.69846 12.4932 6.90038 11.4741 6.91373C10.4617 6.92709 9.63975 7.75523 9.65312 8.75032C9.66648 9.73874 10.5152 10.5468 11.5275 10.5301Z" fill="#585666" stroke="#585666" stroke-width="0.3"/>
</svg>
