<svg width="15" height="15" viewBox="0 0 15 15" fill="none" xmlns="http://www.w3.org/2000/svg">
<path d="M8.42516 9.84332L9.53 10.9482L10.9663 9.51187L9.86145 8.40703L8.42516 9.84332Z" fill="#344A5E"/>
<path d="M5.46877 10.3125C8.1439 10.3125 10.3125 8.14388 10.3125 5.46876C10.3125 2.79364 8.1439 0.625019 5.46877 0.625019C2.79365 0.625019 0.625031 2.79364 0.625031 5.46876C0.625031 8.14388 2.79365 10.3125 5.46877 10.3125Z" fill="#8AD7F8"/>
<path d="M9.34398 9.34399C7.21899 11.469 3.71898 11.469 1.59399 9.34399C-0.531003 7.219 -0.531003 3.71898 1.59399 1.59399C3.71898 -0.530996 7.21899 -0.530996 9.34398 1.59399C11.469 3.71898 11.5002 7.219 9.34398 9.34399ZM2.50023 2.50023C0.843987 4.15648 0.843987 6.81274 2.50023 8.46898C4.15647 10.1252 6.81273 10.1252 8.46897 8.46898C10.1252 6.81274 10.1252 4.15648 8.46897 2.50023C6.81273 0.843994 4.12524 0.843994 2.50023 2.50023Z" fill="#5C5F60"/>
<path d="M11.1563 9.24999C12.8125 10.4063 14.0625 11.3125 14.4375 11.7188C15.1875 12.4688 15.1875 13.6875 14.4375 14.4375C13.6875 15.1875 12.4688 15.1875 11.7188 14.4375C11.3438 14.0625 10.4063 12.8125 9.25 11.1563L11.1563 9.24999Z" fill="#3CB64B"/>
<path d="M9.87501 12.0313C9.68751 11.75 9.46875 11.4688 9.28125 11.1875L11.1875 9.28125C11.5 9.50001 11.7813 9.68751 12.0313 9.87501L9.87501 12.0313Z" fill="#3CB64B"/>
<path d="M9.59376 11.5L11.5 9.59373C11.6875 9.40623 11.6875 9.09372 11.5 8.90622C11.3125 8.71872 11 8.71872 10.8125 8.90622L8.90625 10.8125C8.71875 11 8.71875 11.3125 8.90625 11.5C9.09375 11.7188 9.40626 11.7188 9.59376 11.5Z" fill="#67CE67"/>
<path d="M5.46877 3.62502C6.27993 3.62502 6.93751 3.31721 6.93751 2.93751C6.93751 2.55781 6.27993 2.25 5.46877 2.25C4.65761 2.25 4.00003 2.55781 4.00003 2.93751C4.00003 3.31721 4.65761 3.62502 5.46877 3.62502Z" fill="white"/>
</svg>
