<svg width="24" height="24" viewBox="0 0 24 24" fill="none" xmlns="http://www.w3.org/2000/svg">
<path d="M4.81812 13.9652C4.81812 12.1602 4.81812 10.3551 4.82162 8.55007C4.82162 8.42208 4.79368 8.35316 4.65748 8.29081C4.23492 8.09717 4.01142 7.76898 4.00793 7.32265C4.00444 6.8599 4.00444 6.39387 4.00793 5.92785C4.01491 5.02533 4.74479 4.33285 5.71213 4.323C6.49089 4.31644 7.27315 4.31644 8.05191 4.32628C8.21256 4.32957 8.2824 4.28034 8.31034 4.13922C8.33129 4.03091 8.38018 3.92918 8.40463 3.82416C8.53384 3.25311 9.11704 2.79692 9.8085 2.78708C10.9505 2.77395 12.0889 2.77067 13.2309 2.79036C13.9293 2.80021 14.4147 3.19732 14.5998 3.83072C14.6417 3.97184 14.6976 4.11296 14.722 4.25736C14.743 4.38864 14.8163 4.40833 14.9386 4.40505C15.7243 4.40177 16.5101 4.39849 17.2958 4.40505C18.1549 4.41161 18.8254 4.93672 18.9756 5.72765C19.0105 5.90159 18.9965 6.08866 18.9965 6.26588C19 6.6433 19.0035 7.02071 18.993 7.39813C18.9791 7.82478 18.759 8.13984 18.3435 8.30721C18.2073 8.36301 18.1863 8.42864 18.1863 8.55007C18.1898 12.0978 18.1863 15.6488 18.1898 19.1965C18.1898 19.8792 17.9349 20.4469 17.3552 20.8703C17.0409 21.1 16.6882 21.2214 16.2761 21.2214C13.0947 21.2149 9.90977 21.2149 6.72836 21.2182C6.00198 21.2182 5.49561 20.89 5.12195 20.3419C4.90194 20.0203 4.8286 19.656 4.8286 19.2786C4.81812 17.5096 4.81812 15.7374 4.81812 13.9652ZM6.04738 8.42208C6.04738 8.51069 6.04738 8.57961 6.04738 8.65181C6.04738 11.2051 6.04738 13.7584 6.04738 16.315C6.04738 17.316 6.04389 18.317 6.04738 19.3179C6.04738 19.8102 6.36517 20.1056 6.88551 20.1056C9.95866 20.1056 13.0318 20.1056 16.105 20.1056C16.1853 20.1056 16.2691 20.099 16.3459 20.0793C16.7266 19.9809 16.9571 19.6494 16.9571 19.2031C16.9571 15.6685 16.9571 12.1372 16.9571 8.60258C16.9571 8.54351 16.9571 8.48772 16.9571 8.42208C13.3112 8.42208 9.68976 8.42208 6.04738 8.42208ZM5.2337 7.2406C9.41737 7.2406 13.5801 7.2406 17.7568 7.2406C17.7603 7.17825 17.7673 7.12573 17.7673 7.07322C17.7673 6.74504 17.7673 6.41685 17.7673 6.08866C17.7673 5.72109 17.5996 5.56027 17.2085 5.56027C16.2551 5.56027 15.3018 5.56027 14.3449 5.56027C13.9887 5.56027 13.7757 5.40603 13.6814 5.08768C13.5906 4.7759 13.4963 4.46741 13.4194 4.15563C13.3775 3.99153 13.2798 3.93246 13.1086 3.93574C12.6302 3.93902 12.1553 3.93574 11.6768 3.93574C11.0901 3.93574 10.5 3.93574 9.91327 3.93574C9.73516 3.93574 9.61992 3.99481 9.57103 4.17204C9.49769 4.44771 9.40689 4.71683 9.32308 4.98923C9.21482 5.34039 9.01227 5.48151 8.62115 5.48151C7.93318 5.48151 7.2487 5.48151 6.56074 5.48151C6.27438 5.48151 5.99151 5.47823 5.70515 5.48479C5.45021 5.49135 5.24068 5.64889 5.2337 5.86221C5.22671 6.31183 5.2337 6.76473 5.2337 7.2406Z" fill="#585666"/>
<path d="M8.26532 14.2471C8.26532 13.0394 8.26532 11.8284 8.26532 10.6206C8.26532 10.2563 8.5447 10.0102 8.92186 10.0266C9.22568 10.043 9.46315 10.2662 9.49109 10.5714C9.49458 10.6272 9.49458 10.6797 9.49458 10.7355C9.49458 13.0821 9.49458 15.4286 9.49458 17.7752C9.49458 17.8309 9.49807 17.8835 9.49109 17.9392C9.46315 18.2642 9.20123 18.4939 8.86947 18.4873C8.52724 18.4808 8.26881 18.2346 8.26881 17.9064C8.26532 16.6856 8.26532 15.4647 8.26532 14.2471Z" fill="#585666"/>
<path d="M10.888 14.2668C10.888 13.0492 10.888 11.8284 10.888 10.6108C10.888 10.345 11.0591 10.1251 11.3106 10.0496C11.562 9.97411 11.8484 10.0496 11.9881 10.2629C12.0614 10.3778 12.1068 10.5287 12.1068 10.66C12.1138 12.9705 12.1103 15.2842 12.1103 17.5946C12.1103 17.6997 12.1103 17.8014 12.1103 17.9064C12.1033 18.2346 11.8449 18.4808 11.5061 18.4873C11.1604 18.4906 10.888 18.2412 10.8845 17.9064C10.8845 16.6921 10.888 15.4811 10.888 14.2668Z" fill="#585666"/>
<path d="M14.7329 14.2701C14.7329 15.4778 14.7329 16.6888 14.7329 17.8966C14.7329 18.1394 14.6212 18.3199 14.3942 18.4282C14.1672 18.5333 13.9402 18.507 13.7377 18.3626C13.563 18.2346 13.5072 18.0541 13.5072 17.8539C13.5072 16.8595 13.5072 15.8618 13.5072 14.8674C13.5072 13.466 13.5072 12.0679 13.5072 10.6666C13.5072 10.2826 13.7551 10.0299 14.1183 10.0299C14.4605 10.0299 14.726 10.2695 14.7294 10.5977C14.7329 11.254 14.7329 11.9104 14.7329 12.5668C14.7329 13.1313 14.7329 13.699 14.7329 14.2701Z" fill="#585666"/>
</svg>
