<svg width="16" height="16" viewBox="0 0 16 16" fill="none" xmlns="http://www.w3.org/2000/svg">
<g clip-path="url(#clip0_4_25)">
<path d="M12.5599 4.67252C12.0037 1.96931 9.36137 0.228873 6.65816 0.785117C4.34346 1.26144 2.67891 3.29412 2.66829 5.65727C2.66829 5.76986 2.67294 5.88513 2.68294 6.00706C1.03623 6.18137 -0.157404 7.65759 0.0169025 9.3043C0.178466 10.8306 1.46657 11.9885 3.00141 11.987H3.35121C3.34322 11.8764 3.33457 11.7665 3.33457 11.6538C3.33457 9.26198 5.27355 7.32297 7.66543 7.32297C10.0573 7.32297 11.9963 9.26198 11.9963 11.6538C11.9963 11.7664 11.9876 11.8764 11.9796 11.987H12.3294C14.3511 11.9925 15.9944 10.3581 16 8.33642C16.0053 6.39656 14.4963 4.78939 12.5599 4.67252Z" fill="#8AD7F8"/>
<path d="M7.66542 15.3184C9.6893 15.3184 11.33 13.6777 11.33 11.6538C11.33 9.62995 9.6893 7.98927 7.66542 7.98927C5.64153 7.98927 4.00085 9.62995 4.00085 11.6538C4.00085 13.6777 5.64153 15.3184 7.66542 15.3184Z" fill="#4CAF50"/>
<path d="M7.6654 13.9858C7.48141 13.9858 7.33224 13.8367 7.33224 13.6527V9.65497C7.33224 9.47099 7.48141 9.32182 7.6654 9.32182C7.84939 9.32182 7.99855 9.47099 7.99855 9.65497V13.6527C7.99852 13.8367 7.84939 13.9858 7.6654 13.9858Z" fill="#FAFAFA"/>
<path d="M8.99796 11.3218C8.90954 11.3219 8.82469 11.2869 8.7621 11.2245L7.66538 10.1271L6.56867 11.2245C6.43633 11.3523 6.22542 11.3486 6.09759 11.2163C5.97288 11.0872 5.97288 10.8825 6.09759 10.7534L7.43017 9.42081C7.56025 9.29076 7.77113 9.29076 7.90125 9.42081L9.23383 10.7534C9.36372 10.8837 9.36341 11.0946 9.23308 11.2245C9.17068 11.2868 9.08613 11.3217 8.99796 11.3218Z" fill="#FAFAFA"/>
</g>
<defs>
<clipPath id="clip0_4_25">
<rect width="16" height="16" fill="white"/>
</clipPath>
</defs>
</svg>
