<svg width="16" height="15" viewBox="0 0 16 15" fill="none" xmlns="http://www.w3.org/2000/svg">
<path d="M13.5 5.58414C14.4492 5.58414 15.2188 4.81463 15.2188 3.86539C15.2188 2.91615 14.4492 2.14664 13.5 2.14664C12.5508 2.14664 11.7812 2.91615 11.7812 3.86539C11.7812 4.81463 12.5508 5.58414 13.5 5.58414Z" fill="#5D9CEC"/>
<path d="M13.5 5.58414V2.14664C14.4478 2.14664 15.2188 2.91757 15.2188 3.86539C15.2188 4.8132 14.4478 5.58414 13.5 5.58414Z" fill="#5D9CEC"/>
<path d="M16 8.7557V12.136C16 12.6588 15.5731 13.0841 15.0481 13.0841H11.7519C11.4931 13.0841 11.2831 12.8741 11.2831 12.6154C11.2831 12.1597 11.0312 9.85067 11.0312 8.7557C11.0312 7.59289 11.9831 6.64664 13.1531 6.64664H13.8781C15.0481 6.64664 16 7.59289 16 8.7557Z" fill="#5D9CEC"/>
<path d="M16 8.7557V12.136C16 12.6588 15.5731 13.0841 15.0481 13.0841H13.5V6.64664H13.8781C15.0481 6.64664 16 7.59289 16 8.7557Z" fill="#5D9CEC"/>
<path d="M2.5 5.58414C3.44924 5.58414 4.21875 4.81463 4.21875 3.86539C4.21875 2.91615 3.44924 2.14664 2.5 2.14664C1.55076 2.14664 0.78125 2.91615 0.78125 3.86539C0.78125 4.81463 1.55076 5.58414 2.5 5.58414Z" fill="#5D9CEC"/>
<path d="M2.5 5.58414V2.14664C3.44781 2.14664 4.21875 2.91757 4.21875 3.86539C4.21875 4.8132 3.44781 5.58414 2.5 5.58414Z" fill="#5D9CEC"/>
<path d="M4.96875 8.7557C4.96875 9.88579 4.71688 12.139 4.71688 12.6154C4.71688 12.8741 4.50688 13.0841 4.24813 13.0841H0.919062C0.412188 13.0841 0 12.6735 0 12.1685V8.7557C0 7.59289 0.951875 6.64664 2.12188 6.64664H2.84687C4.01687 6.64664 4.96875 7.59289 4.96875 8.7557Z" fill="#5D9CEC"/>
<path d="M4.96875 8.7557C4.96875 9.88579 4.71688 12.139 4.71688 12.6154C4.71688 12.8741 4.50688 13.0841 4.24813 13.0841H2.5V6.64664H2.84687C4.01687 6.64664 4.96875 7.59289 4.96875 8.7557Z" fill="#5D9CEC"/>
<path d="M8 5.58414C9.50152 5.58414 10.7188 4.36691 10.7188 2.86539C10.7188 1.36386 9.50152 0.146637 8 0.146637C6.49848 0.146637 5.28125 1.36386 5.28125 2.86539C5.28125 4.36691 6.49848 5.58414 8 5.58414Z" fill="#58B354"/>
<path d="M8 5.58414V0.146637C9.49906 0.146637 10.7188 1.36632 10.7188 2.86539C10.7188 4.36445 9.49906 5.58414 8 5.58414Z" fill="#00A963"/>
<path d="M12.2188 10.4285V12.9898C12.2188 13.5932 11.7278 14.0841 11.1244 14.0841H4.87563C4.27219 14.0841 3.78125 13.5932 3.78125 12.9898V10.4285C3.78125 8.3432 5.47781 6.64664 7.56313 6.64664H8.43688C10.5222 6.64664 12.2188 8.3432 12.2188 10.4285Z" fill="#58B354"/>
<path d="M12.2188 10.4285V12.9898C12.2188 13.5932 11.7278 14.0841 11.1244 14.0841H8V6.64664H8.43688C10.5222 6.64664 12.2188 8.3432 12.2188 10.4285Z" fill="#00A963"/>
</svg>
