<svg width="24" height="24" viewBox="0 0 24 24" fill="none" xmlns="http://www.w3.org/2000/svg">
<path d="M11.6552 21.0965C8.30232 21.0965 4.95398 21.0965 1.60108 21.0965C1.41861 21.0965 1.23614 21.0965 1.05367 21.0737C0.515378 21.0099 0.0637626 20.6084 0.0409538 20.0656C-0.000102154 18.9662 -0.0685287 17.8577 0.177807 16.7766C0.588366 14.9883 1.71512 13.8023 3.38929 13.1226C4.85818 12.525 6.40006 12.3744 7.96931 12.4201C9.25117 12.4566 10.5057 12.6527 11.7008 13.1499C12.2072 13.3598 12.6816 13.6335 13.1104 13.9711C13.2199 14.0577 13.3111 14.0623 13.4389 14.0212C15.5738 13.3233 17.7269 13.3142 19.8664 13.9574C21.1483 14.3451 22.1747 15.0978 22.7768 16.3386C23.1235 17.0548 23.2467 17.8258 23.2512 18.6149C23.2512 19.0392 23.2558 19.468 23.2512 19.8922C23.2421 20.6677 22.8042 21.1011 22.0241 21.1011C19.5151 21.1011 17.0107 21.1011 14.5018 21.1011C13.5575 21.0965 12.6041 21.0965 11.6552 21.0965ZM7.50857 20.093C9.35609 20.093 11.2036 20.093 13.0466 20.093C13.2746 20.093 13.5027 20.0838 13.7308 20.093C13.9315 20.0975 14.0137 20.0154 14.0137 19.8101C14.0045 19.3083 14.0182 18.8065 14.0137 18.3047C14.0091 17.8486 13.9817 17.397 13.8722 16.9499C13.5119 15.4947 12.5584 14.5778 11.2036 14.0395C10.0951 13.6016 8.9364 13.4465 7.75034 13.4328C6.49586 13.4191 5.25962 13.524 4.07356 13.9483C3.05172 14.3086 2.18042 14.8743 1.61476 15.8368C1.22245 16.4983 1.05823 17.2282 1.03998 17.99C1.0263 18.5602 1.03542 19.1304 1.03542 19.7006C1.03542 20.0975 1.03998 20.1021 1.42773 20.1021C3.4486 20.093 5.47858 20.093 7.50857 20.093ZM18.6256 20.093C19.7569 20.093 20.8882 20.0884 22.0196 20.093C22.1792 20.093 22.2522 20.0565 22.2476 19.8786C22.234 19.3403 22.2476 18.802 22.234 18.2591C22.2203 17.7482 22.1062 17.251 21.8873 16.7857C21.4767 15.9235 20.7788 15.3624 19.9075 15.0385C18.0326 14.3451 16.1212 14.3634 14.1961 14.8196C14.0501 14.856 14.0365 14.8971 14.1231 15.0248C14.6341 15.7547 14.8986 16.5758 14.9899 17.4563C15.072 18.2591 15.0355 19.0666 15.0309 19.8694C15.0309 20.0519 15.072 20.0975 15.2499 20.0975C16.3767 20.0884 17.4988 20.093 18.6256 20.093Z" fill="#585666"/>
<path d="M3.25702 7.28351C3.25702 4.89314 5.16384 2.99545 7.55877 3.00001C9.88527 3.00457 11.7921 4.9342 11.7921 7.28807C11.7921 9.6237 9.86702 11.5351 7.51771 11.5351C5.16384 11.5305 3.25702 9.62826 3.25702 7.28351ZM4.26517 7.25614C4.26061 9.0626 5.71125 10.5269 7.50403 10.5315C9.32417 10.5361 10.7839 9.08541 10.7885 7.27439C10.7931 5.46793 9.34242 4.0036 7.54508 4.0036C5.72037 3.99904 4.26973 5.44056 4.26517 7.25614Z" fill="#585666"/>
<path d="M16.769 12.8124C14.6842 12.8124 13.0101 11.1701 13.001 9.11278C12.9918 7.02349 14.6751 5.35844 16.7963 5.35844C18.8035 5.35844 20.4686 7.05542 20.4686 9.10822C20.4777 11.1519 18.8172 12.8078 16.769 12.8124ZM19.465 9.09453C19.5106 7.62108 18.2515 6.4259 16.8693 6.37116C15.3046 6.31185 14.0274 7.54353 14.0182 9.07628C14.0091 10.5771 15.2088 11.8133 16.7142 11.8316C18.2835 11.8453 19.4878 10.5406 19.465 9.09453Z" fill="#585666"/>
</svg>
