<svg width="24" height="24" viewBox="0 0 24 24" fill="none" xmlns="http://www.w3.org/2000/svg">
<path d="M11.3322 16.5782H7.33183C6.96361 16.5782 6.6651 16.8767 6.6651 17.2449V21.2453C6.6651 21.6136 6.96361 21.9121 7.33183 21.9121H11.3322C11.7005 21.9121 11.999 21.6136 11.999 21.2453V17.2449C11.999 16.8767 11.7005 16.5782 11.3322 16.5782Z" stroke="#585666" stroke-width="1.34522" stroke-linecap="round" stroke-linejoin="round"/>
<path d="M16.6661 16.5782H12.6657C12.2975 16.5782 11.999 16.8767 11.999 17.2449V21.2453C11.999 21.6136 12.2975 21.9121 12.6657 21.9121H16.6661C17.0343 21.9121 17.3328 21.6136 17.3328 21.2453V17.2449C17.3328 16.8767 17.0343 16.5782 16.6661 16.5782Z" stroke="#585666" stroke-width="1.34522" stroke-linecap="round" stroke-linejoin="round"/>
<path d="M13.9992 11.2443H9.99876C9.63054 11.2443 9.33203 11.5428 9.33203 11.9111V15.9115C9.33203 16.2797 9.63054 16.5782 9.99876 16.5782H13.9992C14.3674 16.5782 14.6659 16.2797 14.6659 15.9115V11.9111C14.6659 11.5428 14.3674 11.2443 13.9992 11.2443Z" stroke="#585666" stroke-width="1.34522" stroke-linecap="round" stroke-linejoin="round"/>
<path d="M22 21.9121V8.04402C22.0001 7.80227 21.9344 7.56505 21.8101 7.35773C21.6858 7.15041 21.5074 6.98079 21.2941 6.86701L12.6266 2.24432C12.4335 2.14129 12.2179 2.08739 11.999 2.08739C11.7801 2.08739 11.5645 2.14129 11.3714 2.24432L2.70383 6.86701C2.49054 6.98079 2.31219 7.15041 2.18786 7.35773C2.06353 7.56505 1.9979 7.80227 1.99799 8.04402V21.9121" stroke="#585666" stroke-width="1.34522" stroke-linecap="round" stroke-linejoin="round"/>
</svg>
