<svg width="24" height="24" viewBox="0 0 24 24" fill="none" xmlns="http://www.w3.org/2000/svg">
<path d="M14.8452 12.485C14.462 12.9376 14.1155 13.3452 13.7201 13.704C12.9007 14.4501 11.9916 15.0371 10.8747 15.241C9.23589 15.5386 7.59713 14.7558 6.81444 13.28C6.07659 11.8898 6.06028 10.4955 6.91228 9.142C7.49522 8.22063 8.3676 7.65803 9.37042 7.28703C10.7564 6.77335 12.1995 6.66735 13.663 6.73665C14.0136 6.75296 14.3682 6.7815 14.7188 6.80596C14.8085 6.81412 14.8493 6.79781 14.8533 6.69181C14.9186 5.33829 14.5639 4.13154 13.5733 3.1694C12.705 2.32549 11.6573 1.83627 10.4425 1.97896C8.75894 2.17465 7.59306 3.1164 6.9612 4.7023C6.84298 4.99991 6.65953 5.13445 6.40271 5.09368C6.10513 5.04476 5.93391 4.75122 6.0399 4.44546C6.34972 3.56078 6.86336 2.81064 7.58083 2.21134C8.47766 1.45304 9.5131 1.01682 10.6871 1.00051C11.8816 0.984205 12.9537 1.39597 13.875 2.15834C15.1509 3.21017 15.795 4.58 15.8072 6.23112C15.8195 8.30217 15.8113 10.3732 15.8113 12.4443C15.8113 12.9457 15.9132 13.4146 16.1904 13.8385C16.378 14.128 16.6185 14.3359 16.9935 14.3522C17.2829 14.3645 17.4705 14.6091 17.4419 14.8741C17.4134 15.1391 17.181 15.3225 16.8916 15.2981C16.1008 15.2369 15.5953 14.7681 15.2406 14.1035C15.0123 13.6714 14.886 13.2107 14.8656 12.7215C14.8615 12.6603 14.8533 12.6033 14.8452 12.485ZM14.8533 9.32546C14.8533 8.90962 14.8533 8.49786 14.8533 8.08202C14.8533 7.7681 14.8533 7.7681 14.5354 7.74364C13.5733 7.66618 12.6113 7.62949 11.6492 7.73956C10.6382 7.85371 9.66393 8.09425 8.77932 8.6324C7.38108 9.48446 6.85521 11.0867 7.51153 12.5462C8.10262 13.8671 9.38265 14.5602 10.7483 14.2952C11.4372 14.1606 12.0324 13.8345 12.5827 13.4105C13.4796 12.7174 14.1726 11.8409 14.7922 10.9032C14.8493 10.8176 14.8533 10.7279 14.8533 10.6301C14.8533 10.1938 14.8533 9.76169 14.8533 9.32546Z" fill="#585666"/>
<path d="M21.2087 19.0895C20.4871 19.3627 19.7941 19.6481 19.0807 19.8886C16.7734 20.6754 14.4009 21.0668 11.9631 21.0627C8.57144 21.0587 5.34691 20.3085 2.29768 18.8205C1.94302 18.6492 1.59651 18.4617 1.25409 18.2742C0.96873 18.1193 0.87497 17.8379 1.01357 17.5933C1.1481 17.3528 1.4253 17.2835 1.7025 17.4384C3.04776 18.1845 4.45416 18.7879 5.92986 19.2241C8.1801 19.8968 10.4793 20.1862 12.8233 20.0925C15.1346 19.9987 17.3686 19.5421 19.5291 18.7145C20.0917 18.4984 20.6461 18.2619 21.2127 17.9725C20.5483 17.789 19.9164 17.6137 19.2845 17.4384C18.9503 17.3446 18.6201 17.2509 18.2858 17.1571C17.9841 17.0715 17.8211 16.8391 17.8863 16.5741C17.9556 16.2928 18.2124 16.1542 18.5222 16.2398C19.8186 16.5945 21.1108 16.9492 22.4031 17.308C23.0635 17.4914 23.145 17.7238 22.7903 18.3109C22.1259 19.4075 21.4696 20.5083 20.8092 21.609C20.7725 21.6661 20.7399 21.7273 20.7032 21.7803C20.5442 22.0045 20.2792 22.0657 20.0591 21.9311C19.843 21.7966 19.7615 21.5234 19.8919 21.291C20.0998 20.9241 20.32 20.5694 20.5401 20.2066C20.7643 19.8315 20.9844 19.4605 21.2087 19.0895Z" fill="#585666"/>
</svg>
