<svg width="24" height="25" viewBox="0 0 24 25" fill="none" xmlns="http://www.w3.org/2000/svg">
<path d="M18.7194 16.4453C18.7194 16.9065 18.7265 17.346 18.7194 17.7855C18.7123 18.4196 18.4078 18.7582 17.7988 18.8375C17.7068 18.8519 17.6076 18.9384 17.5581 19.0176C17.4802 19.1473 17.4518 19.3059 17.3881 19.45C17.2394 19.7814 17.0836 20.0624 17.4023 20.4371C17.6572 20.7397 17.5368 21.2009 17.2394 21.5179C16.9207 21.8566 16.595 22.188 16.2622 22.5123C15.8798 22.8797 15.3841 22.9013 14.9875 22.5555C14.8459 22.433 14.7397 22.4114 14.5839 22.5051C14.4777 22.5771 14.3502 22.6203 14.2298 22.6636C13.9041 22.7933 13.5713 22.8509 13.55 23.3625C13.5359 23.7516 13.1393 23.9966 12.7286 24.011C12.247 24.0254 11.7584 24.0254 11.2769 24.011C10.7741 23.9966 10.4059 23.6435 10.3776 23.1319C10.3705 22.9158 10.2713 22.8437 10.1014 22.7933C10.0023 22.7572 9.89604 22.7356 9.80398 22.6852C9.45699 22.5051 9.16666 22.3609 8.7701 22.6852C8.47269 22.9302 8.06197 22.8221 7.76455 22.5411C7.41048 22.2096 7.0635 21.8566 6.73775 21.4963C6.3766 21.1 6.39077 20.6461 6.70943 20.1849C6.77316 20.0985 6.76608 19.9399 6.75192 19.8174C6.73775 19.7166 6.65986 19.6229 6.62445 19.522C6.49699 19.1329 6.39077 18.7871 5.85966 18.7294C5.43478 18.679 5.27191 18.2539 5.25775 17.8215C5.25067 17.591 5.25775 17.3676 5.25775 17.137C5.25775 16.9065 5.25775 16.6831 5.25775 16.3805C4.93909 16.3805 4.63459 16.3877 4.33009 16.3805C2.82176 16.3372 1.5542 15.1556 1.16473 13.8081C0.754007 12.3887 1.22846 10.8179 2.40396 9.91724C2.63057 9.74431 2.68014 9.58579 2.62349 9.32639C2.0853 6.47306 4.35134 4.04484 6.85814 4.13851C7.24761 4.15292 7.41756 4.03043 7.5946 3.68457C8.53642 1.78956 10.5688 0.730363 12.6507 1.01858C14.421 1.26356 15.6957 2.22908 16.4888 3.83589C16.6304 4.1169 16.7862 4.14572 17.034 4.13131C19.0027 4.02323 20.6809 5.42107 21.2262 7.04949C21.4811 7.80606 21.5449 8.56983 21.3891 9.34801C21.3395 9.58579 21.3608 9.72269 21.5732 9.88841C22.777 10.8467 23.2302 12.1293 22.8903 13.6208C22.5433 15.1195 21.5449 16.0346 20.0719 16.3661C19.6329 16.4525 19.1868 16.4165 18.7194 16.4453ZM9.15958 16.4165C8.76302 17.7207 9.44991 19.1041 10.3917 19.7166C11.461 20.4011 12.8065 20.3578 13.7979 19.5725C14.768 18.8015 15.1929 17.5405 14.8247 16.4021C14.5343 16.4021 14.2298 16.4309 13.9253 16.3877C13.7979 16.3661 13.6208 16.222 13.5854 16.0923C13.55 15.9626 13.6138 15.7392 13.7058 15.6455C13.8049 15.5518 14.0032 15.523 14.159 15.523C15.8939 15.5158 17.6289 15.523 19.3638 15.5086C19.6612 15.5086 19.9799 15.4582 20.2631 15.3573C21.3678 14.9538 21.9981 14.1252 22.076 12.9435C22.1468 11.8195 21.6653 10.9548 20.7022 10.3784C20.3127 10.1478 20.2773 10.0469 20.4118 9.59299C20.6172 8.90128 20.6314 8.20235 20.4331 7.50343C19.9799 5.88222 18.3016 4.77979 16.6729 5.0536C16.1347 5.14006 16.0427 5.07521 15.8302 4.54922C15.2071 3.00006 14.074 2.06336 12.4312 1.89764C10.4271 1.69589 8.848 2.74787 8.1257 4.66451C7.99823 5.01036 7.79288 5.12565 7.45297 5.07521C7.18388 5.03198 6.90771 4.98875 6.6457 5.01757C4.34425 5.24094 2.92798 7.37373 3.60071 9.61461C3.70693 9.97488 3.6432 10.1982 3.31746 10.3856C2.17736 11.0485 1.68166 12.2518 2.00741 13.4983C2.33315 14.7232 3.38119 15.523 4.68416 15.523C6.43325 15.523 8.17527 15.523 9.92436 15.523C10.2713 15.523 10.4413 15.6888 10.4342 15.977C10.4271 16.3012 10.2218 16.4093 9.93853 16.4165C9.67652 16.4165 9.40742 16.4165 9.15958 16.4165ZM15.5328 21.871C15.9223 21.4963 16.2622 21.1721 16.6162 20.8334C16.5525 20.7541 16.4888 20.6821 16.425 20.6172C16.0356 20.2065 16.0356 20.1849 16.2905 19.6877C16.4392 19.3923 16.5738 19.0825 16.6871 18.7727C16.9561 18.0089 16.9491 18.0089 17.728 17.944C17.7493 17.944 17.7634 17.9224 17.7988 17.9008C17.7988 17.4253 17.7988 16.9425 17.7988 16.4453C17.119 16.4453 16.4675 16.4453 15.8161 16.4453C15.8585 19.0681 14.5272 20.8983 12.4878 21.0712C11.4114 21.1649 10.4201 20.9343 9.57738 20.2281C8.40895 19.241 8.00532 17.9512 8.19651 16.4237C7.81412 16.4237 7.48838 16.4237 7.15555 16.4237C6.82981 16.4237 6.51115 16.4237 6.19249 16.4237C6.19249 16.9713 6.19249 17.4541 6.19249 17.9657C6.31995 17.9657 6.41201 17.9657 6.50407 17.9657C7.04933 17.9729 7.05641 17.9945 7.2122 18.5061C7.30426 18.8231 7.42464 19.1401 7.56627 19.4428C7.92034 20.1849 7.92742 20.1849 7.4034 20.8118C7.38924 20.8262 7.39632 20.855 7.38924 20.9343C7.53795 21.0712 7.72206 21.2297 7.88493 21.3954C8.0478 21.5684 8.18943 21.7557 8.34522 21.9502C8.48685 21.8205 8.55766 21.7557 8.62847 21.6908C9.03211 21.2945 9.04628 21.3018 9.54197 21.5539C9.88896 21.7269 10.243 21.8926 10.6113 22.0079C11.2061 22.2024 11.2203 22.188 11.2415 22.8437C11.2486 23.0383 11.3052 23.1319 11.5035 23.1247C11.7868 23.1175 12.07 23.1031 12.3533 23.1247C12.679 23.1535 12.8136 23.0455 12.764 22.7068C12.7144 22.3321 12.8844 22.1376 13.2526 22.0511C13.5571 21.9791 13.8758 21.8782 14.1378 21.7125C14.676 21.3882 15.1646 21.1865 15.5328 21.871Z" fill="#585666"/>
<path d="M7.92036 7.36653C8.20362 7.35212 8.35941 7.51784 8.44438 7.76282C8.98257 9.2039 9.51367 10.645 10.0448 12.0933C10.151 12.3743 10.1014 12.6193 9.79692 12.749C9.56324 12.8498 9.34372 12.7057 9.21625 12.3815C8.933 11.6753 8.933 11.6754 8.17529 11.6754C7.84247 11.6754 7.50965 11.697 7.1839 11.6681C6.92189 11.6465 6.80151 11.7546 6.73778 11.9996C6.68821 12.1797 6.61739 12.3671 6.52534 12.5256C6.41203 12.7345 6.21376 12.8498 5.98715 12.7345C5.76055 12.6193 5.626 12.4391 5.73931 12.1437C6.29165 10.681 6.83692 9.21831 7.38218 7.74841C7.48132 7.51063 7.64419 7.35932 7.92036 7.36653ZM7.22639 10.7387C7.70084 10.7387 8.13989 10.7387 8.60017 10.7387C8.37357 10.1334 8.16113 9.55697 7.91328 8.89407C7.66544 9.56417 7.45299 10.1334 7.22639 10.7387Z" fill="#585666"/>
<path d="M12.3532 10.8467C12.3532 11.3079 12.3532 11.7474 12.3532 12.1941C12.3532 12.576 12.2045 12.7706 11.9284 12.785C11.6593 12.7922 11.4752 12.5832 11.4752 12.223C11.4681 10.7963 11.4681 9.36963 11.4752 7.93575C11.4752 7.50343 11.6097 7.38094 12.0275 7.37373C12.4311 7.37373 12.8277 7.36653 13.2313 7.37373C14.1165 7.39535 14.8176 8.09427 14.8884 9.01656C14.945 9.84518 14.2723 10.6594 13.4296 10.7675C13.0826 10.8107 12.7427 10.8179 12.3532 10.8467ZM12.3674 9.90283C12.6577 9.90283 12.9127 9.91003 13.1676 9.90283C13.5783 9.88841 13.9182 9.58579 13.9749 9.1967C14.0244 8.80761 13.812 8.41851 13.4155 8.31764C13.0826 8.23117 12.7286 8.25279 12.3674 8.21676C12.3674 8.8004 12.3674 9.32639 12.3674 9.90283Z" fill="#585666"/>
<path d="M16.2339 10.0397C16.2339 9.3336 16.2339 8.62747 16.2339 7.92134C16.2339 7.53225 16.3755 7.36653 16.68 7.37373C17.0199 7.38814 17.1049 7.6043 17.1049 7.90693C17.1049 9.31198 17.1049 10.7098 17.1049 12.1149C17.1049 12.4896 16.9491 12.6913 16.6729 12.6985C16.3968 12.7057 16.2339 12.504 16.2339 12.1293C16.2339 11.4304 16.2339 10.7314 16.2339 10.0397Z" fill="#585666"/>
<path d="M12.4241 15.9409C12.4241 16.2436 12.2753 16.4021 11.9921 16.4021C11.7301 16.4021 11.5743 16.2652 11.5672 15.9842C11.5601 15.7176 11.7442 15.5086 11.9921 15.523C12.2541 15.5446 12.4099 15.6815 12.4241 15.9409Z" fill="#585666"/>
</svg>
