<svg width="16" height="16" viewBox="0 0 16 16" fill="none" xmlns="http://www.w3.org/2000/svg">
<g clip-path="url(#clip0_6_63)">
<path d="M12.32 0.673359C13.7931 0.674372 15.1 1.61887 15.5631 3.01739C16.0262 4.41579 15.5415 5.95367 14.3601 6.83374C13.1789 7.71382 11.5666 7.73837 10.3592 6.89437C9.15172 6.0505 8.62061 4.52806 9.04109 3.11625C9.47372 1.66659 10.8071 0.673106 12.32 0.673359Z" fill="#8AD7F8"/>
<path d="M11.8608 13.6003V13.6038C11.8599 14.5835 11.0655 15.3773 10.0858 15.3773H10.0803C10.0394 15.3773 9.99862 15.3756 9.95837 15.3731C9.02754 15.3082 8.30582 14.5335 8.30683 13.6003V12.4523H2.3577V12.4367L2.42048 3.1146H9.03628L9.04109 3.11625C8.75592 4.07442 8.90388 5.10929 9.446 5.94924C9.98812 6.78919 10.8702 7.35017 11.8608 7.48484V13.6003ZM4.84008 6.38212C5.15499 6.38212 5.4103 6.13847 5.4103 5.83811C5.4103 5.53774 5.15499 5.29371 4.84008 5.29371C4.52503 5.29371 4.26948 5.53749 4.26948 5.83811C4.26948 6.13885 4.52478 6.38212 4.84008 6.38212ZM4.84008 8.63553C5.15499 8.63553 5.4103 8.39188 5.4103 8.09113C5.4103 7.79039 5.15499 7.54712 4.84008 7.54712C4.52503 7.54712 4.26948 7.79077 4.26948 8.09113C4.26948 8.3915 4.52478 8.63553 4.84008 8.63553ZM4.84008 10.8884C5.15499 10.8884 5.4103 10.6452 5.4103 10.3444C5.4103 10.0437 5.15499 9.8004 4.84008 9.8004C4.52503 9.8004 4.26948 10.0441 4.26948 10.3444C4.26948 10.6448 4.52478 10.8884 4.84008 10.8884Z" fill="#67CE67"/>
<path d="M9.95838 15.3731L9.95812 15.3773H2.04101C1.06132 15.3773 0.266938 14.5835 0.266052 13.6038V12.4523H8.30683V13.6003C8.30582 14.5335 9.02755 15.3082 9.95838 15.3731Z" fill="#00ACEA"/>
<path d="M5.41029 5.83811C5.41029 6.13847 5.15499 6.38212 4.84007 6.38212C4.52502 6.38212 4.26947 6.13847 4.26947 5.83811C4.26947 5.53774 4.52477 5.29371 4.84007 5.29371C5.15537 5.29371 5.41029 5.53749 5.41029 5.83811Z" fill="#00EFD1"/>
<path d="M5.41029 8.09114C5.41029 8.39188 5.15499 8.63553 4.84007 8.63553C4.52502 8.63553 4.26947 8.39188 4.26947 8.09114C4.26947 7.7904 4.52477 7.54712 4.84007 7.54712C5.15537 7.54712 5.41029 7.79078 5.41029 8.09114Z" fill="#00EFD1"/>
<path d="M5.41029 10.3444C5.41029 10.6452 5.15499 10.8884 4.84007 10.8884C4.52502 10.8884 4.26947 10.6452 4.26947 10.3444C4.26947 10.0437 4.52477 9.8004 4.84007 9.8004C5.15537 9.8004 5.41029 10.0441 5.41029 10.3444Z" fill="#00EFD1"/>
<path d="M12.2743 2.67716C12.2765 2.67716 12.2786 2.67754 12.2808 2.67754C12.2904 2.67754 12.3 2.6769 12.3096 2.67576C12.6275 2.67867 12.8837 2.93689 12.8842 3.25459C12.8842 3.39774 13.0002 3.51381 13.1434 3.51381C13.2865 3.51381 13.4026 3.39774 13.4026 3.25459C13.4018 2.7393 13.0433 2.29363 12.54 2.18276V1.93353C12.54 1.79037 12.4239 1.6743 12.2808 1.6743C12.1376 1.6743 12.0216 1.79037 12.0216 1.93353V2.19402C11.4894 2.33654 11.1453 2.8512 11.217 3.39736C11.2888 3.94353 11.7542 4.35199 12.3051 4.35212C12.6249 4.35212 12.8842 4.61134 12.8842 4.9312C12.8842 5.25092 12.6249 5.51015 12.3051 5.51015C11.9852 5.51015 11.726 5.25092 11.726 4.9312C11.726 4.78791 11.6099 4.67197 11.4668 4.67197C11.3236 4.67197 11.2076 4.78791 11.2076 4.9312C11.2082 5.42787 11.5418 5.8624 12.0216 5.99138V6.27554C12.0216 6.4187 12.1376 6.53477 12.2808 6.53477C12.4239 6.53477 12.54 6.4187 12.54 6.27554V6.00303C13.0874 5.88316 13.4567 5.37003 13.3963 4.81297C13.3359 4.25579 12.8656 3.83354 12.3051 3.83367C11.9912 3.83417 11.7341 3.58432 11.7257 3.27054C11.7174 2.95676 11.9607 2.69348 12.2742 2.67716H12.2743Z" fill="#083863"/>
<path d="M12.32 0.414151C11.5193 0.409088 10.7394 0.668186 10.1008 1.15107C9.53499 1.58623 9.10312 2.17177 8.85466 2.84084H2.42049C2.27796 2.84084 2.16227 2.96931 2.16126 3.11183L2.10013 12.2053H0.26606C0.122904 12.2053 0 12.309 0 12.4523V13.6041C0 14.6938 0.874884 15.5856 1.94419 15.6342V15.6401H9.94775V15.6326C10.0126 15.6351 10.0417 15.6401 10.0803 15.6401H10.0858C11.2086 15.6371 12.1176 14.7267 12.1188 13.6039V7.76902C12.1836 7.77256 12.2527 7.77484 12.3194 7.77484C14.3519 7.77509 15.9998 6.12747 16 4.09481C16.0002 2.06228 14.3526 0.414404 12.32 0.414151ZM0.51845 13.6039V12.7238H8.03597V13.6001C8.03597 14.1991 8.30925 14.7328 8.72783 15.1216H2.04102C1.20284 15.1197 0.523133 14.442 0.51845 13.6039ZM10.0838 15.1216H10.0803C10.0479 15.1216 10.0078 15.1187 9.97041 15.1163C9.17489 15.0584 8.55796 14.398 8.55442 13.6003V12.4523C8.55657 12.3861 8.53113 12.3219 8.4843 12.2751C8.43734 12.2282 8.37304 12.2031 8.30684 12.2053H2.61858L2.67794 3.35929H8.71099C8.66467 3.60193 8.64087 3.84837 8.63973 4.09532C8.63973 4.62022 8.75188 5.10905 8.9544 5.5951H6.50391C6.36076 5.5951 6.24469 5.71117 6.24469 5.85433C6.24469 5.99748 6.36076 6.11355 6.50391 6.11355H9.2359C9.77523 6.94299 10.6289 7.51726 11.6003 7.70434V13.6036C11.5994 14.441 10.9212 15.1198 10.0838 15.1216ZM12.32 7.25639C12.1781 7.25652 12.0364 7.24703 11.8957 7.22804H11.8954C10.3348 7.01881 9.15806 5.67168 9.15806 4.09469C9.15806 2.34834 10.5737 0.932727 12.32 0.932727C14.0662 0.932727 15.4819 2.34834 15.4819 4.09469C15.4819 5.84091 14.0662 7.25652 12.32 7.25652V7.25639Z" fill="#083863"/>
<path d="M4.84008 7.28789C4.38238 7.28789 4.01025 7.64825 4.01025 8.09114C4.01025 8.53402 4.38238 8.89476 4.84008 8.89476C5.29764 8.89476 5.66952 8.53427 5.66952 8.09114C5.66952 7.648 5.29739 7.28789 4.84008 7.28789ZM4.84008 8.37631C4.66832 8.37631 4.5287 8.24834 4.5287 8.09114C4.5287 7.93393 4.66832 7.80634 4.84008 7.80634C5.01171 7.80634 5.15107 7.93406 5.15107 8.09114C5.15107 8.24822 5.01159 8.37631 4.84008 8.37631Z" fill="#083863"/>
<path d="M9.95978 7.83089H6.50391C6.36076 7.83089 6.24469 7.94696 6.24469 8.09012C6.24469 8.23327 6.36076 8.34934 6.50391 8.34934H9.95978C10.1029 8.34934 10.219 8.23327 10.219 8.09012C10.219 7.94696 10.1029 7.83089 9.95978 7.83089Z" fill="#083863"/>
<path d="M4.84008 5.03448C4.38238 5.03448 4.01025 5.39497 4.01025 5.83811C4.01025 6.28124 4.38238 6.64135 4.84008 6.64135C5.29764 6.64135 5.66952 6.28112 5.66952 5.83811C5.66952 5.39522 5.29739 5.03448 4.84008 5.03448ZM4.84008 6.1229C4.66832 6.1229 4.5287 5.99518 4.5287 5.83811C4.5287 5.68103 4.66832 5.55293 4.84008 5.55293C5.01171 5.55293 5.15107 5.6809 5.15107 5.83811C5.15107 5.99531 5.01159 6.1229 4.84008 6.1229Z" fill="#083863"/>
<path d="M4.84008 9.54117C4.38238 9.54117 4.01025 9.90153 4.01025 10.3444C4.01025 10.7874 4.38238 11.1477 4.84008 11.1477C5.29764 11.1477 5.66952 10.7873 5.66952 10.3444C5.66952 9.90153 5.29739 9.54117 4.84008 9.54117ZM4.84008 10.6292C4.66832 10.6292 4.5287 10.5015 4.5287 10.3444C4.5287 10.1873 4.66832 10.0596 4.84008 10.0596C5.01171 10.0596 5.15107 10.1873 5.15107 10.3444C5.15107 10.5015 5.01159 10.6292 4.84008 10.6292Z" fill="#083863"/>
<path d="M9.95978 10.0991H6.50391C6.36076 10.0991 6.24469 10.2152 6.24469 10.3583C6.24469 10.5015 6.36076 10.6176 6.50391 10.6176H9.95978C10.1029 10.6176 10.219 10.5015 10.219 10.3583C10.219 10.2152 10.1029 10.0991 9.95978 10.0991Z" fill="#083863"/>
</g>
<defs>
<clipPath id="clip0_6_63">
<rect width="16" height="16" fill="white"/>
</clipPath>
</defs>
</svg>
