<svg width="24" height="24" viewBox="0 0 24 24" fill="none" xmlns="http://www.w3.org/2000/svg">
<path d="M14.586 10.8423C14.9822 10.9843 15.3717 11.1008 15.7479 11.2574C17.0697 11.8072 18.2216 12.6192 19.0639 13.8936C19.6665 14.8039 19.9895 15.8198 19.9962 16.9486C19.9995 17.6877 20.0028 18.4305 19.9962 19.1697C19.9828 20.5934 18.9408 21.7367 17.6357 21.7403C13.747 21.7476 9.85503 21.7476 5.96639 21.7403C4.66795 21.7367 3.62254 20.6043 3.61255 19.1879C3.6059 18.2703 3.58925 17.3527 3.64585 16.4424C3.72908 15.2154 4.23847 14.1776 5.00088 13.2928C6.08624 12.0293 7.45459 11.323 8.96611 10.9006C9.00273 10.8897 9.03602 10.8751 9.09262 10.8569C7.63771 9.66258 6.90858 8.09688 7.02178 6.11972C7.10168 4.70331 7.66434 3.51993 8.63317 2.58051C10.6075 0.66161 13.6005 0.854592 15.3684 2.99196C17.2228 5.22764 17.1596 8.69039 14.586 10.8423ZM11.796 20.4696C13.717 20.4696 15.6347 20.4696 17.5558 20.4696C18.3348 20.4696 18.8342 19.9198 18.8375 19.0677C18.8375 18.3868 18.8375 17.7096 18.8375 17.0287C18.8409 16.2458 18.6311 15.5358 18.2383 14.8877C17.5657 13.7807 16.6069 13.0598 15.5016 12.5792C13.2976 11.6215 11.0469 11.5706 8.78299 12.2988C7.7276 12.6411 6.76875 13.1909 5.9797 14.0502C5.19065 14.9095 4.74452 15.929 4.77449 17.1707C4.78781 17.8152 4.77449 18.456 4.78115 19.1005C4.78115 19.2498 4.79779 19.4063 4.83775 19.5484C4.99089 20.1127 5.44701 20.4659 6.02298 20.4696C7.944 20.4732 9.86835 20.4696 11.796 20.4696ZM11.8027 10.4709C13.8003 10.4709 15.4383 8.68311 15.4383 6.4984C15.4383 4.31734 13.8003 2.51861 11.8093 2.51861C9.81508 2.51861 8.17706 4.31006 8.17373 6.49476C8.1704 8.71223 9.77513 10.4709 11.8027 10.4709Z" fill="#585666"/>
</svg>
