<svg width="24" height="24" viewBox="0 0 24 24" fill="none" xmlns="http://www.w3.org/2000/svg">
<path d="M22 12.0156C22 17.5424 17.5188 22.0063 11.9688 22C6.45001 21.9938 1.99376 17.4986 2.00001 11.9406C2.00626 6.4514 6.51251 1.99375 12.05 2.00001C17.5313 2.00626 22 6.50141 22 12.0156ZM20.8125 11.9906C20.8625 7.18913 16.8563 3.18163 12.0188 3.17537C7.18751 3.16912 3.18126 7.15162 3.18126 11.9906C3.18126 16.8421 7.18751 20.8184 12.0063 20.8184C16.8438 20.8246 20.8688 16.8171 20.8125 11.9906Z" fill="#585666"/>
<path d="M11.425 15.9856C11.425 14.8915 11.425 13.8162 11.425 12.7471C11.425 12.5908 11.3875 12.522 11.2187 12.4783C9.91872 12.1094 9.08747 10.9966 9.06247 9.6774C9.03747 8.37074 9.92497 7.20788 11.2062 6.83901C11.3875 6.789 11.425 6.71397 11.425 6.54517C11.425 6.28884 11.3125 5.95124 11.4687 5.79494C11.625 5.63864 11.9625 5.77618 12.2187 5.74492C12.5 5.70741 12.6062 5.80119 12.575 6.08878C12.55 6.30135 12.5062 6.57018 12.6062 6.72648C12.6875 6.86402 12.9687 6.87027 13.15 6.9578C14.2062 7.4517 14.7812 8.28947 14.925 9.43983C14.9437 9.59612 14.9062 9.67115 14.7312 9.65864C14.475 9.64614 14.2125 9.64614 13.95 9.65864C13.7937 9.6649 13.75 9.61488 13.7312 9.45233C13.6437 8.75836 13.2625 8.27696 12.5687 7.99562C12.5687 8.45827 12.5687 8.88965 12.5687 9.32104C12.5687 9.93373 12.575 10.5464 12.5625 11.1654C12.5562 11.3717 12.5937 11.4842 12.8312 11.553C14.0687 11.9093 14.9187 13.0597 14.925 14.3351C14.9312 15.6355 14.0625 16.7984 12.8 17.1547C12.6125 17.211 12.5312 17.2798 12.5625 17.4673C12.5625 17.4798 12.5625 17.4861 12.5625 17.4986C12.5437 17.7424 12.6625 18.1488 12.5187 18.2051C12.2187 18.3176 11.85 18.2488 11.5062 18.2551C11.3875 18.2551 11.4187 18.1613 11.4187 18.0925C11.4125 17.8112 11.5 17.4736 11.3687 17.2673C11.2562 17.086 10.8937 17.0735 10.6562 16.9484C9.68747 16.442 9.18122 15.623 9.04997 14.5477C9.03122 14.3789 9.08747 14.3163 9.24997 14.3414C9.29997 14.3476 9.35622 14.3414 9.40622 14.3414C9.64372 14.3414 9.90622 14.2788 10.1187 14.3601C10.3625 14.4476 10.25 14.7665 10.3437 14.9728C10.5875 15.473 10.8687 15.7731 11.425 15.9856ZM12.5812 15.9794C13.35 15.7043 13.775 15.0603 13.7437 14.2413C13.7187 13.5349 13.2375 12.9034 12.5812 12.7158C12.5812 13.7974 12.5812 14.879 12.5812 15.9794ZM11.4187 8.02688C10.7 8.26446 10.25 8.90216 10.25 9.65864C10.25 10.4214 10.7 11.0528 11.4187 11.2842C11.4187 10.2026 11.4187 9.12723 11.4187 8.02688Z" fill="#585666"/>
</svg>
