<svg width="24" height="24" viewBox="0 0 24 24" fill="none" xmlns="http://www.w3.org/2000/svg">
<path d="M11.9121 22.9961C11.5838 22.9687 11.1773 23.043 10.7786 22.957C10.1729 22.8281 9.7273 22.2927 9.71558 21.6753C9.70385 21.1556 9.70776 20.632 9.71558 20.1123C9.71949 19.9677 9.68431 19.9012 9.53189 19.8544C9.05898 19.7137 8.5978 19.5261 8.16788 19.2877C8.05063 19.2213 7.9881 19.2448 7.90211 19.3346C7.56991 19.6746 7.2377 20.0107 6.89767 20.3467C6.2528 20.9798 5.43205 20.9758 4.78717 20.3389C4.40416 19.9599 4.02114 19.5769 3.64203 19.194C3.00888 18.5531 3.00497 17.7638 3.63812 17.119C3.97815 16.7712 4.32599 16.4274 4.67383 16.0835C4.74809 16.0092 4.77545 15.9545 4.72073 15.8529C4.4706 15.4036 4.27909 14.9268 4.13057 14.4345C4.0954 14.3211 4.04459 14.286 3.92734 14.286C3.42707 14.2938 2.9229 14.2938 2.42263 14.2899C1.58234 14.2821 1 13.692 1 12.8558C1 12.2696 1 11.6835 1 11.0973C1 10.3236 1.59407 9.71794 2.36401 9.71012C2.88382 9.70231 3.40753 9.70622 3.92734 9.71012C4.0485 9.71012 4.0954 9.67105 4.13057 9.56163C4.27518 9.07318 4.46669 8.60426 4.71291 8.15879C4.77154 8.05329 4.75981 7.99076 4.67383 7.9087C4.33771 7.58437 4.00942 7.24831 3.67721 6.91616C2.99716 6.24014 2.99325 5.45471 3.66939 4.77478C4.04459 4.39574 4.4237 4.0206 4.80281 3.64156C5.42814 3.02025 6.25671 3.02025 6.88595 3.63766C7.23379 3.98153 7.57772 4.3254 7.91775 4.67709C7.99591 4.75524 8.05063 4.77087 8.15225 4.71616C8.5978 4.47389 9.0668 4.27851 9.55534 4.13393C9.6765 4.09876 9.71558 4.04405 9.71558 3.91901C9.70776 3.41883 9.71167 2.91474 9.71167 2.41456C9.71558 1.59005 10.3096 1 11.1304 1C11.7245 1 12.3146 1 12.9087 1C13.6708 1.00391 14.2766 1.59005 14.2922 2.34813C14.3001 2.87567 14.3001 3.4032 14.2922 3.93073C14.2922 4.04014 14.3235 4.09094 14.429 4.12611C14.9293 4.2746 15.41 4.46998 15.8673 4.72007C15.9611 4.77478 16.0158 4.75133 16.0823 4.68099C16.4106 4.34494 16.7428 4.0167 17.075 3.68455C17.7511 3.00853 18.564 3.00462 19.2402 3.67673C19.6193 4.05187 19.9984 4.43091 20.3736 4.80995C20.9911 5.43517 20.9989 6.22451 20.3892 6.85755C20.0453 7.21314 19.6935 7.56092 19.3379 7.9048C19.2441 7.99467 19.2402 8.0611 19.3027 8.17052C19.5411 8.61208 19.7365 9.07318 19.8772 9.55382C19.9124 9.67496 19.971 9.71012 20.0961 9.71012C20.5925 9.70231 21.0849 9.70622 21.5813 9.70622C22.4216 9.71012 23.0078 10.2963 23.0078 11.1286C23.0078 11.7226 23.0078 12.3126 23.0078 12.9066C23.0039 13.6725 22.4216 14.2703 21.6555 14.2821C21.1357 14.2899 20.612 14.2899 20.0922 14.2821C19.9671 14.2821 19.9124 14.3211 19.8772 14.4423C19.7365 14.9229 19.545 15.384 19.3027 15.8256C19.2402 15.9389 19.2519 16.0014 19.3457 16.0913C19.6818 16.4156 20.014 16.7478 20.3423 17.0838C21.0185 17.7677 21.0146 18.5414 20.3345 19.2291C19.9632 19.6043 19.5919 19.9794 19.2167 20.3467C18.5797 20.9758 17.7589 20.9758 17.1219 20.3467C16.7779 20.0107 16.4379 19.6707 16.1018 19.3229C16.0197 19.2369 15.9572 19.2252 15.8517 19.2838C15.4061 19.53 14.9371 19.7176 14.4486 19.8661C14.3391 19.8973 14.2961 19.9442 14.2961 20.0654C14.304 20.5655 14.304 21.0696 14.3001 21.5698C14.2922 22.4099 13.7099 22.9922 12.8735 22.9922C12.5726 22.9961 12.2794 22.9961 11.9121 22.9961ZM13.3777 20.589C13.3777 20.2686 13.3777 19.952 13.3777 19.6316C13.3777 19.3229 13.491 19.1705 13.7842 19.0963C14.472 18.9282 15.113 18.6586 15.7227 18.2991C16.0393 18.1115 16.2073 18.1389 16.4653 18.4007C16.903 18.8384 17.3407 19.276 17.7785 19.7137C18.0364 19.9716 18.2826 19.9716 18.5406 19.7137C18.9392 19.319 19.334 18.9243 19.7287 18.5258C19.9828 18.2718 19.9789 18.0334 19.7248 17.7794C19.2754 17.3261 18.822 16.8767 18.3725 16.4274C18.1576 16.2085 18.1263 16.0249 18.2787 15.7631C18.65 15.1378 18.9275 14.4774 19.1034 13.7741C19.1737 13.4888 19.3262 13.3794 19.6232 13.3794C20.2563 13.3794 20.8856 13.3794 21.5187 13.3794C21.9096 13.3794 22.0815 13.2075 22.0854 12.8206C22.0894 12.2735 22.0894 11.7265 22.0854 11.1794C22.0815 10.7925 21.9096 10.6245 21.5187 10.6245C20.8934 10.6245 20.2681 10.6245 19.6427 10.6245C19.3262 10.6245 19.1737 10.5112 19.0995 10.2064C18.9314 9.52647 18.6657 8.88952 18.31 8.28384C18.1185 7.95559 18.1458 7.79538 18.4155 7.52575C18.8533 7.0881 19.291 6.65435 19.7248 6.21279C19.9749 5.95879 19.9789 5.72433 19.7248 5.46643C19.3262 5.06394 18.9275 4.66146 18.521 4.26679C18.2787 4.02842 18.0286 4.02842 17.7863 4.27069C17.3525 4.70053 16.9186 5.13428 16.4887 5.56803C16.1956 5.8611 16.0432 5.88845 15.6836 5.67744C15.0934 5.32966 14.4642 5.07176 13.7959 4.90373C13.4871 4.82558 13.3777 4.68099 13.3738 4.36057C13.3738 3.73535 13.3738 3.11012 13.3738 2.4849C13.3738 2.08632 13.2057 1.91829 12.7993 1.91439C12.2599 1.91048 11.7166 1.91048 11.1773 1.91439C10.7865 1.91439 10.6184 2.08632 10.6184 2.47318C10.6184 3.0984 10.6184 3.72362 10.6184 4.34885C10.6184 4.67318 10.509 4.82167 10.2041 4.89591C9.52407 5.06394 8.88701 5.33357 8.28122 5.68526C7.95292 5.87673 7.78877 5.85329 7.523 5.58366C7.08527 5.146 6.64754 4.70835 6.20981 4.27069C5.95967 4.0206 5.71736 4.0206 5.46331 4.27069C5.06466 4.66536 4.66992 5.06004 4.27518 5.45861C4.01332 5.72433 4.01332 5.95098 4.27909 6.2167C4.70901 6.65044 5.14283 7.08419 5.57666 7.51403C5.85415 7.79147 5.8776 7.95169 5.67827 8.28774C5.32652 8.88561 5.06466 9.51865 4.89661 10.1908C4.82235 10.4956 4.66992 10.6128 4.35335 10.6128C3.7202 10.6128 3.09096 10.6128 2.45781 10.6128C2.0787 10.6128 1.91064 10.7847 1.90673 11.1638C1.90282 11.7108 1.90282 12.2579 1.90673 12.805C1.90673 13.2036 2.0787 13.3677 2.48517 13.3677C3.1105 13.3677 3.73583 13.3677 4.36116 13.3677C4.66601 13.3677 4.81844 13.481 4.8927 13.778C5.06076 14.4579 5.32652 15.0948 5.68218 15.7005C5.87369 16.0288 5.85024 16.1968 5.58447 16.4625C5.14283 16.9041 4.69728 17.3456 4.25955 17.7872C4.02114 18.0256 4.02114 18.2639 4.25564 18.5023C4.66211 18.9165 5.07248 19.3229 5.48676 19.7293C5.71736 19.9559 5.97531 19.952 6.2059 19.7215C6.64363 19.2838 7.08136 18.8501 7.5191 18.4085C7.79659 18.1272 7.95683 18.1037 8.29295 18.2991C8.89092 18.6469 9.52407 18.9126 10.1963 19.0806C10.5168 19.1588 10.6223 19.3073 10.6223 19.6394C10.6223 20.2725 10.6223 20.9016 10.6223 21.5346C10.6223 21.8785 10.7943 22.0661 11.1265 22.07C11.7049 22.0778 12.2873 22.0778 12.8657 22.07C13.2018 22.0661 13.3738 21.8785 13.3738 21.5346C13.3816 21.2259 13.3777 20.9094 13.3777 20.589Z" fill="#585666"/>
<path d="M16.5865 12C16.5865 14.5204 14.5268 16.5798 12.0059 16.5876C9.4811 16.5915 7.40578 14.5126 7.4136 11.9922C7.42141 9.47176 9.48892 7.40853 12.0059 7.41634C14.5268 7.41634 16.5904 9.47957 16.5865 12ZM15.6602 11.9922C15.6563 9.96412 14.0265 8.33854 11.9981 8.33854C9.96964 8.33854 8.33987 9.96803 8.33987 11.9922C8.33987 14.0281 9.97746 15.6615 12.0098 15.6575C14.0382 15.6497 15.6641 14.0163 15.6602 11.9922Z" fill="#585666"/>
</svg>
