<svg width="24" height="24" viewBox="0 0 24 24" fill="none" xmlns="http://www.w3.org/2000/svg">
<path d="M11.4912 19.9975C9.72735 19.9975 7.96349 20.0042 6.19963 19.9975C4.71427 19.9908 3.5755 19.1041 3.12989 17.6173C3.04325 17.3239 2.99992 17.0172 2.99992 16.7038C2.99992 15.9504 2.99992 15.1904 2.99992 14.437C2.99992 13.9769 3.24129 13.6902 3.61263 13.6902C3.97159 13.6902 4.23153 13.9969 4.23772 14.4436C4.24391 15.157 4.23772 15.8638 4.23772 16.5772C4.2501 17.7773 5.00516 18.644 6.12536 18.6507C9.7026 18.664 13.2798 18.664 16.8571 18.6507C17.9773 18.644 18.7261 17.7906 18.7385 16.5772C18.7447 15.8571 18.7323 15.1304 18.7447 14.4103C18.7509 14.0303 18.9675 13.7502 19.277 13.6969C19.5431 13.6502 19.803 13.8036 19.933 14.0836C19.9825 14.1903 19.9949 14.2969 19.9949 14.4036C19.9949 15.1837 20.0135 15.9571 19.9887 16.7372C19.9268 18.6174 18.5838 19.9842 16.789 19.9975C15.0189 20.0042 13.2551 19.9975 11.4912 19.9975Z" fill="#585666"/>
<path d="M10.8723 5.26272C10.0492 6.15614 9.27556 6.98289 8.50193 7.8163C8.32864 8.00299 8.13678 8.143 7.87065 8.06299C7.35697 7.90298 7.227 7.31625 7.61691 6.88955C8.45861 5.97613 9.3065 5.06937 10.1544 4.16262C10.4391 3.85592 10.7176 3.54923 11.0085 3.2492C11.3241 2.91583 11.6645 2.91583 11.9801 3.25586C13.1251 4.48265 14.2701 5.7161 15.4088 6.94955C15.7059 7.26958 15.7183 7.66295 15.446 7.94298C15.1922 8.20301 14.8209 8.18967 14.5424 7.88964C13.7502 7.03623 12.958 6.17614 12.1534 5.30939C12.073 5.43607 12.1101 5.56275 12.1101 5.66943C12.1101 8.75639 12.1101 11.8434 12.1101 14.9237C12.1101 15.0103 12.1163 15.1037 12.1101 15.1903C12.0854 15.5437 11.8254 15.8104 11.5098 15.8171C11.1941 15.8237 10.9156 15.5637 10.8785 15.217C10.8661 15.117 10.8723 15.017 10.8723 14.917C10.8723 11.83 10.8723 8.74306 10.8723 5.66276C10.8723 5.56275 10.8723 5.45608 10.8723 5.26272Z" fill="#585666"/>
</svg>
