<?xml version="1.0" encoding="utf-8"?>
<!-- Generator: Adobe Illustrator 16.0.0, SVG Export Plug-In . SVG Version: 6.00 Build 0)  -->
<!DOCTYPE svg PUBLIC "-//W3C//DTD SVG 1.1//EN" "http://www.w3.org/Graphics/SVG/1.1/DTD/svg11.dtd">
<svg version="1.1" id="Layer_1" xmlns="http://www.w3.org/2000/svg" xmlns:xlink="http://www.w3.org/1999/xlink" x="0px" y="0px"
	 width="372.66px" height="75.076px" viewBox="0 0 372.66 75.076" enable-background="new 0 0 372.66 75.076" xml:space="preserve">
<polygon fill-rule="evenodd" clip-rule="evenodd" fill="#FE6625" points="0,50.209 7.722,50.209 7.722,15.411 27.042,50.975 
	45.066,15.411 45.066,50.209 52.789,50.209 52.789,1.629 44.237,1.629 27.042,35.901 8.417,1.629 0,1.629 "/>
<path fill-rule="evenodd" clip-rule="evenodd" fill="#FE6625" d="M59.539,8.471c0.21,0.602,0.543,1.128,0.964,1.561
	c0.425,0.438,0.905,0.783,1.464,1.023c0.56,0.24,1.178,0.362,1.856,0.362c0.694,0,1.326-0.105,1.902-0.345
	c0.573-0.228,1.069-0.556,1.49-1.006c0.425-0.438,0.741-0.964,0.981-1.578c0.227-0.602,0.349-1.275,0.349-2.012
	c0-0.707-0.122-1.368-0.349-1.965C67.955,3.91,67.64,3.4,67.214,2.979c-0.42-0.421-0.917-0.753-1.49-0.993
	c-0.576-0.24-1.208-0.357-1.902-0.357c-0.678,0-1.296,0.118-1.856,0.357c-0.56,0.24-1.039,0.572-1.464,0.993
	c-0.421,0.421-0.753,0.93-0.964,1.532c-0.227,0.598-0.333,1.258-0.333,1.965C59.206,7.213,59.312,7.874,59.539,8.471z
	 M60.279,16.791v33.418h7.314V16.791H60.279z"/>
<rect x="74.179" y="1.629" fill-rule="evenodd" clip-rule="evenodd" fill="#FE6625" width="7.314" height="48.581"/>
<path fill-rule="evenodd" clip-rule="evenodd" fill="#FE6625" d="M106.208,23.335c1.04,0.391,1.944,0.917,2.714,1.578
	c0.753,0.661,1.372,1.41,1.856,2.234c0.467,0.825,0.766,1.667,0.888,2.508H93.84c0.135-0.842,0.438-1.683,0.905-2.508
	c0.467-0.825,1.086-1.574,1.839-2.234c0.753-0.661,1.658-1.187,2.702-1.578c1.039-0.392,2.201-0.602,3.467-0.602
	C104.021,22.733,105.165,22.943,106.208,23.335z M99.585,43.632c-1.115-0.421-2.096-1.019-2.908-1.785
	c-0.816-0.766-1.481-1.653-1.961-2.672c-0.484-1.022-0.8-2.133-0.938-3.333h26.155v-1.246c0-2.706-0.392-5.18-1.162-7.461
	c-0.783-2.285-1.915-4.233-3.392-5.887c-1.477-1.65-3.291-2.925-5.416-3.859c-2.142-0.93-4.553-1.393-7.268-1.393
	c-2.399,0-4.633,0.463-6.683,1.364c-2.066,0.9-3.863,2.146-5.386,3.741c-1.523,1.59-2.714,3.451-3.59,5.584
	c-0.871,2.146-1.296,4.444-1.296,6.906c0,2.55,0.454,4.877,1.372,6.994c0.922,2.134,2.172,3.964,3.771,5.525
	c1.6,1.562,3.455,2.761,5.597,3.632c2.142,0.854,4.436,1.292,6.876,1.292c1.78,0,3.409-0.181,4.902-0.509
	c1.494-0.349,2.866-0.842,4.133-1.502c1.254-0.648,2.416-1.427,3.484-2.357c1.069-0.93,2.066-1.969,2.988-3.139l-5.083-4.352
	c-0.606,0.673-1.254,1.322-1.948,1.919c-0.707,0.618-1.49,1.157-2.336,1.637c-0.846,0.48-1.78,0.854-2.79,1.127
	c-1.01,0.27-2.125,0.405-3.35,0.405C101.971,44.263,100.704,44.053,99.585,43.632z"/>
<path fill-rule="evenodd" clip-rule="evenodd" fill="#FE6625" d="M139.336,50.327c1.54-0.462,2.836-1.14,3.922-2.041
	c1.086-0.884,1.915-1.966,2.504-3.257c0.572-1.275,0.875-2.731,0.875-4.368c0-1.621-0.257-3.005-0.753-4.175
	c-0.513-1.157-1.225-2.146-2.142-2.988c-0.921-0.825-2.02-1.532-3.32-2.1c-1.296-0.572-2.744-1.082-4.326-1.561
	c-1.208-0.316-2.218-0.619-3.004-0.901c-0.795-0.286-1.448-0.585-1.928-0.888c-0.5-0.299-0.846-0.644-1.043-1.006
	c-0.21-0.358-0.299-0.778-0.299-1.258c0-0.993,0.421-1.789,1.279-2.391c0.846-0.597,2.054-0.9,3.624-0.9
	c0.707,0,1.372,0.093,1.99,0.273c0.602,0.177,1.162,0.434,1.671,0.749c0.513,0.316,0.951,0.673,1.342,1.094
	c0.396,0.421,0.724,0.842,0.998,1.292l5.791-3.467c-0.45-0.795-1.023-1.578-1.688-2.34c-0.678-0.753-1.494-1.444-2.445-2.058
	c-0.951-0.602-2.049-1.098-3.316-1.473s-2.714-0.568-4.343-0.568c-1.873,0-3.548,0.252-5.042,0.749
	c-1.49,0.497-2.757,1.17-3.8,2.041c-1.04,0.871-1.839,1.894-2.398,3.093c-0.573,1.199-0.842,2.508-0.842,3.905
	c0,1.62,0.24,2.983,0.753,4.082c0.496,1.111,1.19,2.024,2.083,2.761c0.888,0.753,1.927,1.368,3.105,1.847
	c1.174,0.497,2.475,0.947,3.859,1.368c2.264,0.631,3.998,1.334,5.176,2.117c1.174,0.778,1.78,1.754,1.78,2.941
	c0,1.229-0.484,2.13-1.418,2.732c-0.938,0.602-2.188,0.9-3.729,0.9c-0.799,0-1.523-0.105-2.184-0.315
	c-0.665-0.21-1.267-0.492-1.809-0.854c-0.543-0.362-1.027-0.75-1.418-1.2c-0.392-0.45-0.724-0.905-0.98-1.384l-5.702,3.636
	c0.421,0.901,0.98,1.738,1.675,2.538c0.694,0.795,1.536,1.498,2.517,2.1c0.98,0.614,2.129,1.094,3.425,1.456
	c1.296,0.345,2.761,0.526,4.419,0.526C136.096,51.034,137.8,50.794,139.336,50.327z"/>
<polygon fill-rule="evenodd" clip-rule="evenodd" fill="#2A3A4B" points="174.652,50.209 189.806,50.209 189.806,42.761 
	174.652,42.761 172.641,46.91 "/>
<polygon fill-rule="evenodd" clip-rule="evenodd" fill="#2A3A4B" points="207.973,39.175 216.074,50.209 225.741,50.209 
	212.695,32.972 225.228,16.791 216.133,16.791 208.23,27.345 200.39,16.791 190.917,16.791 203.601,33.468 190.736,50.209 
	199.831,50.209 "/>
<path fill-rule="evenodd" clip-rule="evenodd" fill="#2A3A4B" d="M241.269,43.467c-1.296-0.526-2.395-1.262-3.303-2.209
	c-0.905-0.942-1.612-2.07-2.096-3.392c-0.497-1.305-0.736-2.748-0.736-4.339s0.239-3.047,0.736-4.368
	c0.484-1.321,1.19-2.445,2.096-3.409c0.909-0.959,2.007-1.696,3.303-2.222c1.301-0.521,2.761-0.795,4.406-0.795
	c1.355,0,2.638,0.273,3.83,0.782c1.178,0.509,2.218,1.246,3.093,2.193c0.875,0.942,1.552,2.087,2.066,3.409
	c0.497,1.334,0.753,2.807,0.753,4.41c0,1.561-0.257,3.005-0.753,4.31c-0.514,1.321-1.191,2.449-2.066,3.408
	c-0.875,0.96-1.915,1.696-3.093,2.222c-1.191,0.539-2.475,0.796-3.83,0.796C244.03,44.263,242.57,44.006,241.269,43.467z
	 M235.314,16.791h-7.318v55.936h7.318V46.514c0.45,0.572,1.01,1.128,1.688,1.667c0.665,0.539,1.448,1.035,2.323,1.456
	c0.875,0.421,1.838,0.749,2.895,1.022c1.056,0.24,2.188,0.375,3.396,0.375c2.471,0,4.781-0.45,6.952-1.321
	c2.155-0.888,4.04-2.117,5.639-3.678c1.6-1.561,2.866-3.421,3.788-5.571c0.917-2.13,1.389-4.474,1.389-6.995
	c0-2.479-0.472-4.772-1.389-6.906c-0.921-2.129-2.188-3.977-3.788-5.538c-1.599-1.561-3.484-2.777-5.639-3.678
	c-2.171-0.901-4.481-1.351-6.952-1.351c-2.293,0-4.301,0.404-6.005,1.199c-1.705,0.812-3.136,1.877-4.297,3.211V16.791z"/>
<path fill-rule="evenodd" clip-rule="evenodd" fill="#2A3A4B" d="M283.18,23.23c0.665,0.059,1.267,0.134,1.78,0.24v-7.297h-2.912
	c-0.783,0-1.523,0.139-2.247,0.379c-0.724,0.24-1.401,0.568-2.008,0.976c-0.619,0.404-1.161,0.867-1.628,1.38
	c-0.48,0.526-0.859,1.065-1.128,1.637v-3.754h-7.074v33.418h7.314V31.276c0-1.426,0.135-2.643,0.438-3.661
	c0.303-1.022,0.708-1.864,1.25-2.525c0.53-0.657,1.161-1.141,1.902-1.456c0.724-0.312,1.536-0.48,2.44-0.48
	C281.883,23.154,282.502,23.184,283.18,23.23z"/>
<path fill-rule="evenodd" clip-rule="evenodd" fill="#2A3A4B" d="M305.782,23.335c1.039,0.391,1.944,0.917,2.714,1.578
	c0.753,0.661,1.372,1.41,1.856,2.234c0.467,0.825,0.77,1.667,0.888,2.508h-17.827c0.135-0.842,0.438-1.683,0.905-2.508
	c0.467-0.825,1.085-1.574,1.839-2.234s1.663-1.187,2.702-1.578c1.04-0.392,2.201-0.602,3.468-0.602
	C303.594,22.733,304.742,22.943,305.782,23.335z M299.162,43.632c-1.119-0.421-2.1-1.019-2.912-1.785
	c-0.816-0.766-1.477-1.653-1.961-2.672c-0.483-1.022-0.799-2.133-0.934-3.333h26.15v-1.246c0-2.706-0.391-5.18-1.161-7.461
	c-0.783-2.285-1.915-4.233-3.392-5.887c-1.478-1.65-3.287-2.925-5.416-3.859c-2.142-0.93-4.554-1.393-7.268-1.393
	c-2.399,0-4.634,0.463-6.683,1.364c-2.066,0.9-3.859,2.146-5.382,3.741c-1.523,1.59-2.719,3.451-3.59,5.584
	c-0.875,2.146-1.3,4.444-1.3,6.906c0,2.55,0.455,4.877,1.376,6.994c0.917,2.134,2.172,3.964,3.767,5.525
	c1.599,1.562,3.455,2.761,5.597,3.632c2.142,0.854,4.436,1.292,6.876,1.292c1.78,0,3.409-0.181,4.903-0.509
	c1.494-0.349,2.866-0.842,4.132-1.502c1.254-0.648,2.416-1.427,3.484-2.357c1.073-0.93,2.066-1.969,2.988-3.139l-5.084-4.352
	c-0.602,0.673-1.25,1.322-1.944,1.919c-0.711,0.618-1.494,1.157-2.34,1.637c-0.846,0.48-1.78,0.854-2.79,1.127
	c-1.01,0.27-2.125,0.405-3.35,0.405C301.544,44.263,300.278,44.053,299.162,43.632z"/>
<path fill-rule="evenodd" clip-rule="evenodd" fill="#2A3A4B" d="M338.91,50.327c1.541-0.462,2.836-1.14,3.922-2.041
	c1.085-0.884,1.915-1.966,2.503-3.257c0.573-1.275,0.876-2.731,0.876-4.368c0-1.621-0.257-3.005-0.754-4.175
	c-0.513-1.157-1.22-2.146-2.142-2.988c-0.921-0.825-2.02-1.532-3.316-2.1c-1.3-0.572-2.748-1.082-4.331-1.561
	c-1.207-0.316-2.217-0.619-3-0.901c-0.8-0.286-1.448-0.585-1.932-0.888c-0.497-0.299-0.846-0.644-1.04-1.006
	c-0.214-0.358-0.303-0.778-0.303-1.258c0-0.993,0.421-1.789,1.284-2.391c0.842-0.597,2.049-0.9,3.619-0.9
	c0.707,0,1.372,0.093,1.99,0.273c0.602,0.177,1.162,0.434,1.675,0.749c0.513,0.316,0.947,0.673,1.343,1.094
	c0.391,0.421,0.724,0.842,0.993,1.292l5.791-3.467c-0.45-0.795-1.022-1.578-1.688-2.34c-0.677-0.753-1.494-1.444-2.445-2.058
	c-0.947-0.602-2.049-1.098-3.316-1.473s-2.714-0.568-4.343-0.568c-1.873,0-3.543,0.252-5.037,0.749
	c-1.494,0.497-2.76,1.17-3.8,2.041c-1.044,0.871-1.843,1.894-2.399,3.093c-0.577,1.199-0.846,2.508-0.846,3.905
	c0,1.62,0.24,2.983,0.753,4.082c0.497,1.111,1.191,2.024,2.083,2.761c0.888,0.753,1.932,1.368,3.106,1.847
	c1.178,0.497,2.474,0.947,3.863,1.368c2.26,0.631,3.994,1.334,5.172,2.117c1.174,0.778,1.78,1.754,1.78,2.941
	c0,1.229-0.484,2.13-1.418,2.732c-0.935,0.602-2.188,0.9-3.724,0.9c-0.8,0-1.524-0.105-2.189-0.315
	c-0.665-0.21-1.267-0.492-1.809-0.854c-0.543-0.362-1.027-0.75-1.418-1.2c-0.391-0.45-0.724-0.905-0.98-1.384l-5.702,3.636
	c0.425,0.901,0.98,1.738,1.674,2.538c0.694,0.795,1.541,1.498,2.521,2.1c0.98,0.614,2.125,1.094,3.421,1.456
	c1.296,0.345,2.76,0.526,4.418,0.526C335.669,51.034,337.374,50.794,338.91,50.327z"/>
<path fill-rule="evenodd" clip-rule="evenodd" fill="#2A3A4B" d="M365.359,50.327c1.541-0.462,2.836-1.14,3.922-2.041
	c1.086-0.884,1.915-1.966,2.504-3.257c0.572-1.275,0.875-2.731,0.875-4.368c0-1.621-0.257-3.005-0.753-4.175
	c-0.513-1.157-1.22-2.146-2.142-2.988c-0.921-0.825-2.02-1.532-3.32-2.1c-1.296-0.572-2.744-1.082-4.326-1.561
	c-1.208-0.316-2.218-0.619-3.001-0.901c-0.799-0.286-1.452-0.585-1.931-0.888c-0.497-0.299-0.846-0.644-1.04-1.006
	c-0.215-0.358-0.303-0.778-0.303-1.258c0-0.993,0.421-1.789,1.279-2.391c0.846-0.597,2.054-0.9,3.623-0.9
	c0.708,0,1.373,0.093,1.991,0.273c0.602,0.177,1.162,0.434,1.675,0.749c0.509,0.316,0.947,0.673,1.342,1.094
	c0.391,0.421,0.724,0.842,0.993,1.292l5.791-3.467c-0.45-0.795-1.023-1.578-1.688-2.34c-0.678-0.753-1.494-1.444-2.445-2.058
	c-0.947-0.602-2.049-1.098-3.316-1.473s-2.714-0.568-4.343-0.568c-1.872,0-3.547,0.252-5.037,0.749
	c-1.494,0.497-2.76,1.17-3.804,2.041c-1.04,0.871-1.839,1.894-2.394,3.093c-0.577,1.199-0.846,2.508-0.846,3.905
	c0,1.62,0.24,2.983,0.753,4.082c0.497,1.111,1.191,2.024,2.083,2.761c0.888,0.753,1.927,1.368,3.105,1.847
	c1.179,0.497,2.475,0.947,3.859,1.368c2.265,0.631,3.998,1.334,5.176,2.117c1.174,0.778,1.78,1.754,1.78,2.941
	c0,1.229-0.484,2.13-1.418,2.732c-0.934,0.602-2.188,0.9-3.724,0.9c-0.8,0-1.523-0.105-2.188-0.315
	c-0.665-0.21-1.267-0.492-1.809-0.854c-0.543-0.362-1.027-0.75-1.418-1.2c-0.392-0.45-0.724-0.905-0.98-1.384l-5.702,3.636
	c0.425,0.901,0.98,1.738,1.675,2.538c0.694,0.795,1.54,1.498,2.521,2.1c0.977,0.614,2.125,1.094,3.421,1.456
	c1.296,0.345,2.761,0.526,4.419,0.526C362.119,51.034,363.823,50.794,365.359,50.327z"/>
<g>
	<polygon fill-rule="evenodd" clip-rule="evenodd" fill="#2A394B" points="0.055,61.626 0.055,63.217 2.588,63.217 2.588,72.088 
		4.276,72.088 4.276,63.217 6.796,63.217 6.796,61.626 	"/>
	<path fill-rule="evenodd" clip-rule="evenodd" fill="#2A394B" d="M12.465,72.088h1.586v-4.474c0-0.391-0.063-0.749-0.181-1.111
		c-0.122-0.362-0.286-0.661-0.513-0.93c-0.228-0.256-0.497-0.467-0.83-0.614c-0.332-0.151-0.694-0.24-1.103-0.24
		c-0.269,0-0.513,0.029-0.724,0.088c-0.21,0.059-0.408,0.122-0.572,0.21c-0.168,0.088-0.303,0.193-0.421,0.299
		c-0.122,0.122-0.227,0.227-0.303,0.315v-4.006H7.823v10.462h1.583v-4.217c0-0.542,0.134-0.976,0.42-1.279
		c0.274-0.299,0.678-0.45,1.191-0.45c0.467,0,0.829,0.151,1.073,0.45c0.24,0.303,0.375,0.737,0.375,1.279V72.088z"/>
	<path fill-rule="evenodd" clip-rule="evenodd" fill="#2A394B" d="M19.451,66.31c0.228,0.089,0.421,0.194,0.589,0.329
		c0.164,0.151,0.299,0.303,0.404,0.48c0.092,0.181,0.151,0.362,0.181,0.542h-3.83c0.029-0.181,0.088-0.362,0.198-0.542
		c0.088-0.177,0.223-0.329,0.391-0.48c0.151-0.135,0.345-0.24,0.572-0.329c0.228-0.092,0.484-0.134,0.753-0.134
		C18.984,66.175,19.224,66.218,19.451,66.31z M18.033,70.678c-0.24-0.092-0.455-0.228-0.636-0.392
		c-0.181-0.164-0.315-0.362-0.421-0.568c-0.105-0.21-0.164-0.455-0.198-0.724h5.626v-0.269c0-0.568-0.088-1.111-0.256-1.607
		c-0.164-0.48-0.404-0.9-0.724-1.259c-0.315-0.362-0.707-0.631-1.162-0.841c-0.467-0.194-0.993-0.299-1.565-0.299
		c-0.513,0-0.997,0.105-1.435,0.299c-0.45,0.193-0.829,0.467-1.161,0.795c-0.333,0.345-0.602,0.75-0.783,1.217
		c-0.181,0.467-0.273,0.959-0.273,1.485c0,0.543,0.093,1.052,0.303,1.502c0.198,0.463,0.467,0.871,0.812,1.199
		c0.333,0.333,0.741,0.602,1.195,0.783c0.45,0.164,0.947,0.269,1.49,0.269c0.379,0,0.724-0.046,1.056-0.105
		c0.32-0.076,0.606-0.181,0.875-0.333c0.273-0.134,0.513-0.298,0.753-0.509c0.227-0.194,0.438-0.421,0.648-0.674l-1.099-0.93
		c-0.122,0.147-0.256,0.282-0.408,0.404c-0.151,0.135-0.332,0.253-0.513,0.358c-0.181,0.105-0.392,0.181-0.602,0.244
		c-0.21,0.059-0.454,0.088-0.711,0.088C18.546,70.812,18.272,70.767,18.033,70.678z"/>
</g>
<g>
	<path fill-rule="evenodd" clip-rule="evenodd" fill="#2A394B" d="M31.52,66.28c0.152,0.013,0.273,0.029,0.392,0.042v-1.562h-0.619
		c-0.181,0-0.345,0.029-0.497,0.076c-0.152,0.059-0.303,0.122-0.421,0.21c-0.139,0.088-0.257,0.194-0.349,0.299
		c-0.105,0.122-0.194,0.227-0.257,0.345v-0.808h-1.523v7.204h1.586v-4.082c0-0.303,0.029-0.555,0.088-0.783
		c0.063-0.21,0.151-0.388,0.274-0.539c0.105-0.151,0.239-0.257,0.404-0.316c0.151-0.059,0.333-0.105,0.53-0.105
		C31.251,66.264,31.369,66.28,31.52,66.28z"/>
	<path fill-rule="evenodd" clip-rule="evenodd" fill="#2A394B" d="M36.982,66.31c0.223,0.089,0.421,0.194,0.585,0.329
		c0.168,0.151,0.303,0.303,0.408,0.48c0.092,0.181,0.151,0.362,0.181,0.542h-3.83c0.03-0.181,0.089-0.362,0.194-0.542
		c0.093-0.177,0.227-0.329,0.396-0.48c0.147-0.135,0.345-0.24,0.572-0.329c0.223-0.092,0.48-0.134,0.753-0.134
		C36.511,66.175,36.755,66.218,36.982,66.31z M35.564,70.678c-0.244-0.092-0.455-0.228-0.636-0.392s-0.315-0.362-0.42-0.568
		c-0.105-0.21-0.168-0.455-0.198-0.724h5.626v-0.269c0-0.568-0.092-1.111-0.257-1.607c-0.164-0.48-0.408-0.9-0.724-1.259
		c-0.316-0.362-0.707-0.631-1.162-0.841c-0.467-0.194-0.993-0.299-1.569-0.299c-0.514,0-0.993,0.105-1.431,0.299
		c-0.454,0.193-0.829,0.467-1.162,0.795c-0.332,0.345-0.602,0.75-0.782,1.217c-0.186,0.467-0.274,0.959-0.274,1.485
		c0,0.543,0.088,1.052,0.303,1.502c0.193,0.463,0.467,0.871,0.812,1.199c0.333,0.333,0.741,0.602,1.191,0.783
		c0.455,0.164,0.951,0.269,1.494,0.269c0.378,0,0.724-0.046,1.056-0.105c0.316-0.076,0.602-0.181,0.875-0.333
		c0.269-0.134,0.514-0.298,0.753-0.509c0.228-0.194,0.438-0.421,0.648-0.674l-1.098-0.93c-0.123,0.147-0.257,0.282-0.408,0.404
		c-0.152,0.135-0.333,0.253-0.514,0.358c-0.181,0.105-0.391,0.181-0.602,0.244c-0.215,0.059-0.455,0.088-0.711,0.088
		C36.073,70.812,35.804,70.767,35.564,70.678z"/>
	<path fill-rule="evenodd" clip-rule="evenodd" fill="#2A394B" d="M45.592,66.352c0.274,0.122,0.514,0.273,0.711,0.467
		c0.194,0.21,0.345,0.45,0.45,0.736c0.105,0.286,0.168,0.602,0.168,0.93c0,0.345-0.063,0.661-0.168,0.947
		c-0.105,0.286-0.256,0.526-0.45,0.736c-0.198,0.207-0.438,0.357-0.711,0.479c-0.269,0.118-0.584,0.164-0.934,0.164
		c-0.303,0-0.589-0.046-0.829-0.164c-0.257-0.122-0.484-0.273-0.666-0.479c-0.193-0.198-0.345-0.438-0.45-0.736
		c-0.105-0.286-0.152-0.602-0.152-0.947c0-0.329,0.046-0.644,0.152-0.93c0.105-0.27,0.256-0.51,0.45-0.72
		c0.182-0.21,0.409-0.361,0.666-0.483c0.24-0.118,0.526-0.177,0.829-0.177C45.008,66.175,45.323,66.234,45.592,66.352z
		 M46.876,72.088h1.583v-7.204h-1.583v0.794c-0.093-0.122-0.21-0.227-0.362-0.345c-0.151-0.122-0.315-0.227-0.497-0.315
		c-0.198-0.088-0.408-0.152-0.636-0.21c-0.227-0.059-0.467-0.088-0.724-0.088c-0.526,0-1.027,0.105-1.494,0.282
		c-0.467,0.198-0.875,0.467-1.203,0.796c-0.349,0.345-0.619,0.753-0.816,1.203c-0.21,0.451-0.303,0.959-0.303,1.502
		c0,0.539,0.093,1.035,0.303,1.486c0.198,0.462,0.467,0.871,0.816,1.199c0.328,0.333,0.736,0.602,1.203,0.795
		c0.467,0.181,0.968,0.286,1.494,0.286c0.497,0,0.934-0.088,1.296-0.256c0.362-0.181,0.682-0.404,0.921-0.703V72.088z"/>
	<rect x="50.028" y="61.626" fill-rule="evenodd" clip-rule="evenodd" fill="#2A394B" width="1.582" height="10.462"/>
</g>
<g>
	<path fill-rule="evenodd" clip-rule="evenodd" fill="#2A394B" d="M61.854,66.31c0.227,0.089,0.425,0.194,0.589,0.329
		c0.164,0.151,0.303,0.303,0.408,0.48c0.088,0.181,0.151,0.362,0.181,0.542h-3.833c0.034-0.181,0.092-0.362,0.197-0.542
		c0.093-0.177,0.228-0.329,0.392-0.48c0.151-0.135,0.35-0.24,0.572-0.329c0.228-0.092,0.484-0.134,0.758-0.134
		C61.386,66.175,61.63,66.218,61.854,66.31z M60.435,70.678c-0.24-0.092-0.45-0.228-0.631-0.392
		c-0.181-0.164-0.316-0.362-0.421-0.568c-0.109-0.21-0.168-0.455-0.198-0.724h5.626v-0.269c0-0.568-0.093-1.111-0.257-1.607
		c-0.168-0.48-0.408-0.9-0.724-1.259c-0.315-0.362-0.711-0.631-1.161-0.841c-0.467-0.194-0.998-0.299-1.57-0.299
		c-0.513,0-0.993,0.105-1.431,0.299c-0.455,0.193-0.833,0.467-1.162,0.795c-0.333,0.345-0.606,0.75-0.787,1.217
		c-0.181,0.467-0.269,0.959-0.269,1.485c0,0.543,0.088,1.052,0.299,1.502c0.198,0.463,0.471,0.871,0.816,1.199
		c0.333,0.333,0.741,0.602,1.191,0.783c0.455,0.164,0.951,0.269,1.494,0.269c0.379,0,0.724-0.046,1.056-0.105
		c0.316-0.076,0.602-0.181,0.875-0.333c0.27-0.134,0.514-0.298,0.753-0.509c0.228-0.194,0.438-0.421,0.648-0.674l-1.103-0.93
		c-0.118,0.147-0.257,0.282-0.404,0.404c-0.151,0.135-0.333,0.253-0.514,0.358c-0.181,0.105-0.391,0.181-0.606,0.244
		c-0.21,0.059-0.45,0.088-0.707,0.088C60.949,70.812,60.679,70.767,60.435,70.678z"/>
	<polygon fill-rule="evenodd" clip-rule="evenodd" fill="#2A394B" points="68.856,69.723 70.59,72.096 72.686,72.096 69.866,68.389 
		72.563,64.892 70.603,64.892 68.898,67.172 67.21,64.892 65.174,64.892 67.905,68.494 65.145,72.096 67.105,72.096 	"/>
	<path fill-rule="evenodd" clip-rule="evenodd" fill="#2A394B" d="M76.38,70.648c-0.286-0.122-0.526-0.273-0.724-0.479
		c-0.194-0.21-0.345-0.45-0.45-0.736c-0.105-0.269-0.151-0.585-0.151-0.93c0-0.333,0.046-0.648,0.151-0.934
		c0.105-0.282,0.256-0.522,0.45-0.733c0.198-0.21,0.438-0.361,0.724-0.483c0.273-0.118,0.589-0.177,0.951-0.177
		c0.286,0,0.56,0.059,0.816,0.164c0.256,0.118,0.479,0.27,0.677,0.48c0.181,0.21,0.333,0.45,0.438,0.736
		c0.105,0.286,0.164,0.602,0.164,0.947c0,0.329-0.059,0.644-0.164,0.93c-0.105,0.286-0.257,0.526-0.438,0.736
		c-0.198,0.207-0.421,0.357-0.677,0.479c-0.257,0.118-0.53,0.164-0.816,0.164C76.97,70.812,76.654,70.767,76.38,70.648z
		 M75.101,64.884h-1.586v10.192h1.586v-3.783c0.088,0.122,0.21,0.24,0.362,0.362c0.135,0.117,0.299,0.223,0.497,0.315
		c0.181,0.088,0.392,0.147,0.619,0.223c0.228,0.046,0.467,0.076,0.741,0.076c0.526,0,1.022-0.105,1.49-0.286
		c0.467-0.181,0.875-0.45,1.225-0.795c0.333-0.329,0.602-0.737,0.812-1.199c0.198-0.451,0.303-0.964,0.303-1.502
		c0-0.539-0.105-1.035-0.303-1.486c-0.21-0.45-0.479-0.858-0.812-1.187c-0.349-0.328-0.757-0.602-1.225-0.795
		c-0.467-0.194-0.963-0.299-1.49-0.299c-0.501,0-0.938,0.088-1.3,0.27c-0.362,0.181-0.678,0.404-0.917,0.689V64.884z"/>
	<path fill-rule="evenodd" clip-rule="evenodd" fill="#2A394B" d="M85.479,66.28c0.147,0.013,0.269,0.029,0.391,0.042v-1.562h-0.619
		c-0.181,0-0.349,0.029-0.501,0.076c-0.147,0.059-0.299,0.122-0.421,0.21c-0.134,0.088-0.256,0.194-0.345,0.299
		c-0.105,0.122-0.198,0.227-0.257,0.345v-0.808h-1.523v7.204h1.583v-4.082c0-0.303,0.029-0.555,0.092-0.783
		c0.059-0.21,0.147-0.388,0.27-0.539c0.105-0.151,0.24-0.257,0.408-0.316c0.151-0.059,0.333-0.105,0.526-0.105
		C85.205,66.264,85.327,66.28,85.479,66.28z"/>
	<path fill-rule="evenodd" clip-rule="evenodd" fill="#2A394B" d="M90.937,66.31c0.227,0.089,0.421,0.194,0.589,0.329
		c0.165,0.151,0.299,0.303,0.404,0.48c0.092,0.181,0.151,0.362,0.181,0.542h-3.83c0.03-0.181,0.093-0.362,0.198-0.542
		c0.088-0.177,0.223-0.329,0.391-0.48c0.151-0.135,0.345-0.24,0.572-0.329c0.228-0.092,0.484-0.134,0.753-0.134
		C90.47,66.175,90.709,66.218,90.937,66.31z M89.519,70.678c-0.24-0.092-0.455-0.228-0.635-0.392
		c-0.181-0.164-0.315-0.362-0.421-0.568c-0.105-0.21-0.164-0.455-0.193-0.724h5.622v-0.269c0-0.568-0.088-1.111-0.257-1.607
		c-0.164-0.48-0.404-0.9-0.724-1.259c-0.316-0.362-0.707-0.631-1.162-0.841c-0.467-0.194-0.993-0.299-1.565-0.299
		c-0.513,0-0.998,0.105-1.435,0.299c-0.45,0.193-0.829,0.467-1.162,0.795c-0.332,0.345-0.602,0.75-0.783,1.217
		c-0.181,0.467-0.273,0.959-0.273,1.485c0,0.543,0.093,1.052,0.303,1.502c0.197,0.463,0.467,0.871,0.816,1.199
		c0.328,0.333,0.736,0.602,1.191,0.783c0.45,0.164,0.951,0.269,1.494,0.269c0.375,0,0.724-0.046,1.052-0.105
		c0.32-0.076,0.606-0.181,0.875-0.333c0.273-0.134,0.513-0.298,0.757-0.509c0.223-0.194,0.434-0.421,0.648-0.674l-1.103-0.93
		c-0.122,0.147-0.256,0.282-0.408,0.404c-0.151,0.135-0.333,0.253-0.513,0.358c-0.181,0.105-0.392,0.181-0.602,0.244
		c-0.21,0.059-0.455,0.088-0.707,0.088C90.032,70.812,89.758,70.767,89.519,70.678z"/>
	<path fill-rule="evenodd" clip-rule="evenodd" fill="#2A394B" d="M98.571,72.117c0.333-0.088,0.602-0.24,0.842-0.434
		c0.227-0.197,0.408-0.438,0.53-0.707c0.122-0.27,0.198-0.585,0.198-0.947c0-0.345-0.063-0.644-0.168-0.901
		c-0.105-0.24-0.257-0.463-0.45-0.644c-0.215-0.181-0.455-0.329-0.724-0.451c-0.273-0.122-0.589-0.227-0.921-0.333
		c-0.274-0.059-0.484-0.134-0.648-0.193c-0.181-0.059-0.316-0.134-0.425-0.194c-0.105-0.062-0.181-0.135-0.223-0.21
		c-0.046-0.076-0.063-0.165-0.063-0.27c0-0.21,0.093-0.391,0.273-0.526c0.181-0.122,0.45-0.197,0.783-0.197
		c0.151,0,0.286,0.029,0.425,0.063c0.118,0.042,0.24,0.105,0.362,0.164c0.105,0.076,0.193,0.151,0.286,0.24
		c0.088,0.088,0.164,0.181,0.223,0.27l1.237-0.75c-0.088-0.164-0.21-0.332-0.362-0.497c-0.152-0.151-0.316-0.298-0.526-0.433
		c-0.21-0.139-0.438-0.24-0.711-0.333c-0.27-0.076-0.585-0.118-0.935-0.118c-0.408,0-0.77,0.059-1.085,0.165
		c-0.333,0.117-0.602,0.269-0.812,0.45c-0.227,0.181-0.396,0.404-0.513,0.661c-0.122,0.252-0.181,0.539-0.181,0.841
		c0,0.358,0.046,0.645,0.152,0.884c0.105,0.24,0.256,0.438,0.45,0.585c0.181,0.164,0.408,0.303,0.665,0.404
		c0.257,0.105,0.543,0.198,0.846,0.286c0.479,0.135,0.841,0.286,1.098,0.45c0.257,0.181,0.392,0.392,0.392,0.648
		c0,0.269-0.105,0.463-0.299,0.585c-0.215,0.134-0.484,0.193-0.816,0.193c-0.181,0-0.333-0.013-0.467-0.076
		c-0.151-0.042-0.269-0.105-0.391-0.176c-0.122-0.076-0.21-0.169-0.303-0.257c-0.088-0.092-0.151-0.193-0.21-0.298l-1.22,0.778
		c0.088,0.193,0.193,0.375,0.345,0.539c0.151,0.181,0.333,0.333,0.542,0.45c0.21,0.139,0.455,0.245,0.741,0.315
		c0.27,0.076,0.589,0.122,0.951,0.122C97.859,72.269,98.238,72.21,98.571,72.117z"/>
	<path fill-rule="evenodd" clip-rule="evenodd" fill="#2A394B" d="M104.782,72.117c0.333-0.088,0.602-0.24,0.846-0.434
		c0.223-0.197,0.404-0.438,0.526-0.707c0.122-0.27,0.197-0.585,0.197-0.947c0-0.345-0.063-0.644-0.168-0.901
		c-0.105-0.24-0.257-0.463-0.45-0.644c-0.21-0.181-0.455-0.329-0.724-0.451c-0.273-0.122-0.589-0.227-0.921-0.333
		c-0.27-0.059-0.484-0.134-0.648-0.193c-0.181-0.059-0.315-0.134-0.42-0.194c-0.105-0.062-0.181-0.135-0.228-0.21
		c-0.046-0.076-0.059-0.165-0.059-0.27c0-0.21,0.088-0.391,0.269-0.526c0.181-0.122,0.455-0.197,0.783-0.197
		c0.152,0,0.291,0.029,0.425,0.063c0.118,0.042,0.24,0.105,0.362,0.164c0.105,0.076,0.193,0.151,0.286,0.24
		c0.088,0.088,0.164,0.181,0.227,0.27l1.237-0.75c-0.093-0.164-0.215-0.332-0.362-0.497c-0.151-0.151-0.32-0.298-0.53-0.433
		c-0.21-0.139-0.438-0.24-0.707-0.333c-0.273-0.076-0.589-0.118-0.938-0.118c-0.404,0-0.766,0.059-1.085,0.165
		c-0.329,0.117-0.602,0.269-0.812,0.45c-0.227,0.181-0.391,0.404-0.513,0.661c-0.122,0.252-0.181,0.539-0.181,0.841
		c0,0.358,0.046,0.645,0.151,0.884c0.105,0.24,0.257,0.438,0.45,0.585c0.181,0.164,0.409,0.303,0.665,0.404
		c0.257,0.105,0.543,0.198,0.846,0.286c0.479,0.135,0.842,0.286,1.098,0.45c0.257,0.181,0.396,0.392,0.396,0.648
		c0,0.269-0.105,0.463-0.303,0.585c-0.21,0.134-0.484,0.193-0.816,0.193c-0.181,0-0.328-0.013-0.467-0.076
		c-0.151-0.042-0.269-0.105-0.391-0.176c-0.122-0.076-0.21-0.169-0.303-0.257c-0.088-0.092-0.147-0.193-0.21-0.298l-1.22,0.778
		c0.088,0.193,0.198,0.375,0.345,0.539c0.152,0.181,0.333,0.333,0.543,0.45c0.215,0.139,0.455,0.245,0.741,0.315
		c0.273,0.076,0.589,0.122,0.951,0.122C104.075,72.269,104.45,72.21,104.782,72.117z"/>
</g>
<g>
	<path fill-rule="evenodd" clip-rule="evenodd" fill="#2A394B" d="M115.059,70.648c-0.286-0.122-0.526-0.273-0.724-0.479
		c-0.194-0.21-0.345-0.45-0.45-0.736c-0.105-0.269-0.152-0.585-0.152-0.93c0-0.333,0.046-0.648,0.152-0.934
		c0.105-0.282,0.256-0.522,0.45-0.733c0.198-0.21,0.438-0.361,0.724-0.483c0.273-0.118,0.589-0.177,0.951-0.177
		c0.286,0,0.56,0.059,0.816,0.164c0.257,0.118,0.479,0.27,0.678,0.48c0.181,0.21,0.333,0.45,0.438,0.736s0.164,0.602,0.164,0.947
		c0,0.329-0.059,0.644-0.164,0.93s-0.257,0.526-0.438,0.736c-0.198,0.207-0.421,0.357-0.678,0.479
		c-0.257,0.118-0.53,0.164-0.816,0.164C115.648,70.812,115.332,70.767,115.059,70.648z M113.779,64.884h-1.586v10.192h1.586v-3.783
		c0.088,0.122,0.21,0.24,0.362,0.362c0.135,0.117,0.299,0.223,0.497,0.315c0.181,0.088,0.392,0.147,0.619,0.223
		c0.227,0.046,0.467,0.076,0.741,0.076c0.526,0,1.022-0.105,1.49-0.286c0.471-0.181,0.875-0.45,1.225-0.795
		c0.333-0.329,0.602-0.737,0.812-1.199c0.198-0.451,0.303-0.964,0.303-1.502c0-0.539-0.105-1.035-0.303-1.486
		c-0.21-0.45-0.479-0.858-0.812-1.187c-0.349-0.328-0.753-0.602-1.225-0.795c-0.467-0.194-0.964-0.299-1.49-0.299
		c-0.5,0-0.938,0.088-1.3,0.27c-0.362,0.181-0.678,0.404-0.917,0.689V64.884z"/>
	<path fill-rule="evenodd" clip-rule="evenodd" fill="#2A394B" d="M124.788,66.31c0.227,0.089,0.421,0.194,0.589,0.329
		c0.164,0.151,0.303,0.303,0.408,0.48c0.088,0.181,0.147,0.362,0.181,0.542h-3.833c0.029-0.181,0.092-0.362,0.198-0.542
		c0.088-0.177,0.227-0.329,0.392-0.48c0.151-0.135,0.345-0.24,0.572-0.329c0.227-0.092,0.484-0.134,0.753-0.134
		C124.321,66.175,124.561,66.218,124.788,66.31z M123.37,70.678c-0.24-0.092-0.451-0.228-0.631-0.392
		c-0.181-0.164-0.32-0.362-0.425-0.568c-0.105-0.21-0.164-0.455-0.193-0.724h5.626v-0.269c0-0.568-0.093-1.111-0.257-1.607
		c-0.168-0.48-0.408-0.9-0.724-1.259c-0.32-0.362-0.711-0.631-1.162-0.841c-0.471-0.194-0.997-0.299-1.569-0.299
		c-0.514,0-0.998,0.105-1.435,0.299c-0.45,0.193-0.829,0.467-1.162,0.795c-0.328,0.345-0.602,0.75-0.783,1.217
		c-0.181,0.467-0.27,0.959-0.27,1.485c0,0.543,0.088,1.052,0.299,1.502c0.198,0.463,0.467,0.871,0.816,1.199
		c0.333,0.333,0.737,0.602,1.191,0.783c0.45,0.164,0.951,0.269,1.494,0.269c0.375,0,0.724-0.046,1.056-0.105
		c0.315-0.076,0.602-0.181,0.871-0.333c0.273-0.134,0.513-0.298,0.757-0.509c0.223-0.194,0.438-0.421,0.648-0.674l-1.103-0.93
		c-0.122,0.147-0.256,0.282-0.408,0.404c-0.147,0.135-0.329,0.253-0.509,0.358c-0.185,0.105-0.396,0.181-0.606,0.244
		c-0.21,0.059-0.451,0.088-0.707,0.088C123.883,70.812,123.614,70.767,123.37,70.678z"/>
	<path fill-rule="evenodd" clip-rule="evenodd" fill="#2A394B" d="M133.268,66.339c0.256,0.118,0.479,0.27,0.677,0.48
		c0.181,0.21,0.333,0.45,0.45,0.736c0.105,0.286,0.168,0.602,0.168,0.947s-0.063,0.661-0.168,0.942
		c-0.118,0.287-0.269,0.526-0.45,0.724c-0.198,0.207-0.421,0.357-0.677,0.479c-0.257,0.118-0.53,0.164-0.8,0.164
		c-0.303,0-0.577-0.046-0.829-0.164c-0.256-0.122-0.484-0.273-0.665-0.479c-0.181-0.198-0.332-0.438-0.438-0.724
		c-0.122-0.281-0.168-0.597-0.168-0.942s0.046-0.661,0.168-0.947c0.105-0.286,0.257-0.526,0.438-0.736
		c0.181-0.21,0.409-0.362,0.665-0.48c0.252-0.105,0.526-0.164,0.829-0.164C132.738,66.175,133.011,66.234,133.268,66.339z
		 M133.958,71.982c0.455-0.193,0.863-0.462,1.208-0.808c0.349-0.333,0.619-0.737,0.816-1.187c0.181-0.451,0.287-0.947,0.287-1.486
		c0-0.526-0.105-1.022-0.287-1.49c-0.197-0.45-0.467-0.854-0.799-1.2c-0.349-0.328-0.753-0.602-1.225-0.795
		c-0.467-0.194-0.963-0.299-1.49-0.299c-0.543,0-1.056,0.105-1.523,0.299c-0.467,0.193-0.875,0.467-1.208,0.795
		c-0.333,0.345-0.602,0.75-0.8,1.2c-0.198,0.467-0.286,0.964-0.286,1.49c0,0.539,0.088,1.035,0.286,1.486
		c0.198,0.45,0.467,0.854,0.816,1.187c0.328,0.345,0.736,0.614,1.204,0.808c0.455,0.181,0.968,0.286,1.511,0.286
		C132.995,72.269,133.491,72.164,133.958,71.982z"/>
	<path fill-rule="evenodd" clip-rule="evenodd" fill="#2A394B" d="M140.283,70.648c-0.291-0.122-0.53-0.273-0.728-0.479
		c-0.194-0.21-0.345-0.45-0.451-0.736c-0.105-0.269-0.151-0.585-0.151-0.93c0-0.333,0.046-0.648,0.151-0.934
		c0.105-0.282,0.257-0.522,0.451-0.733c0.198-0.21,0.438-0.361,0.728-0.483c0.27-0.118,0.585-0.177,0.947-0.177
		c0.286,0,0.56,0.059,0.816,0.164c0.257,0.118,0.484,0.27,0.677,0.48c0.181,0.21,0.333,0.45,0.438,0.736
		c0.105,0.286,0.164,0.602,0.164,0.947c0,0.329-0.059,0.644-0.164,0.93c-0.105,0.286-0.257,0.526-0.438,0.736
		c-0.193,0.207-0.42,0.357-0.677,0.479c-0.257,0.118-0.53,0.164-0.816,0.164C140.868,70.812,140.553,70.767,140.283,70.648z
		 M139,64.884h-1.583v10.192H139v-3.783c0.088,0.122,0.21,0.24,0.362,0.362c0.135,0.117,0.303,0.223,0.497,0.315
		c0.181,0.088,0.392,0.147,0.619,0.223c0.228,0.046,0.467,0.076,0.741,0.076c0.526,0,1.022-0.105,1.494-0.286
		c0.467-0.181,0.871-0.45,1.22-0.795c0.333-0.329,0.602-0.737,0.812-1.199c0.197-0.451,0.303-0.964,0.303-1.502
		c0-0.539-0.105-1.035-0.303-1.486c-0.21-0.45-0.48-0.858-0.812-1.187c-0.349-0.328-0.753-0.602-1.22-0.795
		c-0.472-0.194-0.968-0.299-1.494-0.299c-0.501,0-0.934,0.088-1.3,0.27c-0.362,0.181-0.678,0.404-0.917,0.689V64.884z"/>
	<rect x="146.524" y="61.626" fill-rule="evenodd" clip-rule="evenodd" fill="#2A394B" width="1.583" height="10.462"/>
	<path fill-rule="evenodd" clip-rule="evenodd" fill="#2A394B" d="M153.872,66.31c0.223,0.089,0.421,0.194,0.585,0.329
		c0.168,0.151,0.303,0.303,0.408,0.48c0.093,0.181,0.151,0.362,0.181,0.542h-3.83c0.029-0.181,0.088-0.362,0.198-0.542
		c0.088-0.177,0.223-0.329,0.391-0.48c0.151-0.135,0.345-0.24,0.572-0.329c0.228-0.092,0.484-0.134,0.753-0.134
		C153.405,66.175,153.645,66.218,153.872,66.31z M152.454,70.678c-0.244-0.092-0.455-0.228-0.636-0.392
		c-0.181-0.164-0.315-0.362-0.42-0.568c-0.105-0.21-0.169-0.455-0.198-0.724h5.626v-0.269c0-0.568-0.088-1.111-0.257-1.607
		c-0.164-0.48-0.408-0.9-0.724-1.259c-0.315-0.362-0.707-0.631-1.162-0.841c-0.467-0.194-0.993-0.299-1.569-0.299
		c-0.509,0-0.993,0.105-1.431,0.299c-0.455,0.193-0.829,0.467-1.161,0.795c-0.333,0.345-0.602,0.75-0.783,1.217
		c-0.181,0.467-0.273,0.959-0.273,1.485c0,0.543,0.093,1.052,0.303,1.502c0.193,0.463,0.467,0.871,0.812,1.199
		c0.333,0.333,0.741,0.602,1.195,0.783c0.45,0.164,0.947,0.269,1.49,0.269c0.379,0,0.724-0.046,1.056-0.105
		c0.316-0.076,0.606-0.181,0.875-0.333c0.273-0.134,0.514-0.298,0.753-0.509c0.227-0.194,0.438-0.421,0.648-0.674l-1.098-0.93
		c-0.122,0.147-0.257,0.282-0.409,0.404c-0.151,0.135-0.332,0.253-0.513,0.358c-0.181,0.105-0.391,0.181-0.602,0.244
		c-0.21,0.059-0.455,0.088-0.711,0.088C152.967,70.812,152.693,70.767,152.454,70.678z"/>
</g>
<polygon fill-rule="evenodd" clip-rule="evenodd" fill="#FE6625" points="170.667,41.212 164.19,41.212 160.424,46.392 
	164.19,51.606 170.667,51.606 166.896,46.392 "/>
<polygon fill-rule="evenodd" clip-rule="evenodd" fill="#FE6625" points="186.734,10.723 193.097,10.723 196.8,5.378 193.097,0 
	186.734,0 190.438,5.378 "/>
<polyline fill-rule="evenodd" clip-rule="evenodd" fill="#2A3A4B" points="172.283,37.529 172.283,28.978 189.612,28.978 
	189.612,21.551 172.283,21.551 172.283,9.044 183.38,9.044 185.392,5.361 183.38,1.629 164.438,1.629 164.438,37.529 
	171.967,37.529 "/>
</svg>
