<?xml version="1.0" encoding="utf-8"?>
<!-- Generator: Adobe Illustrator 24.1.1, SVG Export Plug-In . SVG Version: 6.00 Build 0)  -->
<svg version="1.1" id="Layer_1" xmlns="http://www.w3.org/2000/svg" xmlns:xlink="http://www.w3.org/1999/xlink" x="0px" y="0px"
	 viewBox="0 0 325 299" style="enable-background:new 0 0 325 299;" xml:space="preserve">
<style type="text/css">
	.st0{fill:#0F27FF;}
</style>
<g>
	<g>
		<path class="st0" d="M131.9,15.1c20.5-0.6,41.1-0.1,61.7-0.2c3.6-0.4,6.5,3.1,6.2,6.6c0,86,0,172.1,0,258.1
			c0.1,2.6-1.3,5.2-3.8,6.3c-1.8,0.4-3.7,0.3-5.5,0.3c-19-0.1-38,0.1-57-0.1c-3.4,0.2-5.7-3.6-5.7-6.7c0-86,0-171.9,0-257.9
			C127.8,18.9,129.4,16,131.9,15.1z M140.3,27.4c-0.6,3.7-0.7,7.4-0.6,11.1c0,73.3,0,146.7,0,220c0,5-0.3,10.1,0.6,15.1
			c1.6,0.6,3.3,1.3,5.1,1.2c12.7,0,25.4,0,38.1,0c1.8,0.3,3.3-1.1,4.1-2.5c0.6-3.2,0.3-6.5,0.4-9.8c0-76.7,0-153.4,0-230
			c-0.1-1.8,0.1-3.8-1.4-5.1c-1.2-1.6-3.4-1.1-5.1-1.2c-12.1,0.1-24.1,0-36.1,0C143.6,26.1,142,26.8,140.3,27.4z"/>
	</g>
	<g>
		<path class="st0" d="M231.1,95.3c1.7-0.6,3.5-0.4,5.3-0.5c19.3,0.1,38.7-0.1,58,0.1c2.9-0.1,5.1,2.8,4.8,5.5c0,60,0,120.1,0,180.1
			c0.4,3.2-2.5,6-5.7,5.6c-19.7,0-39.4,0-59.1,0c-3.7,0.5-6.7-3.2-6.5-6.6c0-58.7,0-117.4,0-176.1
			C227.5,100.4,228.5,97.2,231.1,95.3z M242.2,106.6c-3.7,1.7-2.1,6.7-2.5,9.9c0.1,51-0.1,102.1,0.1,153.1c-0.4,2.8,1.6,5.5,4.6,5.2
			c13.3,0,26.7,0.1,40-0.1c3.1-0.1,3.7-3.8,3.7-6.2c0-52,0-104,0-156c0-1.8-0.2-3.8-1.3-5.3c-1.4-1.3-3.4-1-5.2-1.1
			c-11.7,0-23.4,0-35.2,0C245,106.2,243.5,106,242.2,106.6z"/>
	</g>
	<g>
		<path class="st0" d="M31.9,125.1c1.8-0.3,3.7-0.3,5.6-0.3c19,0.1,38-0.1,57,0.1c3.3-0.1,5.4,3.5,5.3,6.5c0,49.4,0,98.8,0,148.1
			c0.2,3.4-2.5,7.1-6.2,6.6c-19.7,0-39.4,0-59.1,0c-4.1,0.5-6.9-4-6.7-7.6c0-48.7,0-97.4,0-146.1C27.6,129.6,29.3,126.4,31.9,125.1z
			 M42.7,136.4c-1.6,1.2-3.7,2.8-3.4,5.1c0,42.4,0,84.7,0,127.1c-0.6,3.4,2.8,6.8,6.3,6.3c12.7,0,25.4,0,38.1,0
			c2.8,0.3,4.8-2.7,4.4-5.3c0.1-41,0-82,0-123c0-2.6,0.1-5.2-0.3-7.8c-1.5-3.3-5.3-2.5-8.1-2.6C67.2,136.3,54.9,135.8,42.7,136.4z"
			/>
	</g>
</g>
</svg>
