<?xml version="1.0" encoding="utf-8"?>
<!-- Generator: Adobe Illustrator 24.1.1, SVG Export Plug-In . SVG Version: 6.00 Build 0)  -->
<svg version="1.1" id="Layer_1" xmlns="http://www.w3.org/2000/svg" xmlns:xlink="http://www.w3.org/1999/xlink" x="0px" y="0px"
	 viewBox="0 0 325 299" style="enable-background:new 0 0 325 299;" xml:space="preserve">
<style type="text/css">
	.st0{fill:#00FBBA;}
</style>
<g>
	<g>
		<path class="st0" d="M121.1,34.4c0-2.9,2.1-6.1,5.3-5.7c64.4-0.1,128.8,0,193.2,0c2.4-0.3,4.5,1,5.9,2.9v204.9
			c-0.7,2.2-2.7,3.8-5,3.7c-9.4,0.2-18.8-0.2-28.2,0.2c-4.1,0.6-5.3,5.1-6.4,8.4c-1.6,6.2-6.7,10.6-11.1,14.9
			c-4.4,2.9-9,5.7-14.2,6.8c-13.1,3.1-27.5-1.6-36.2-11.8c-2.7-4-5.6-7.9-7.2-12.5c-0.8-3-3-6.1-6.5-5.9c-34.8-0.1-69.5,0-104.3,0
			c-5-0.3-6.3,5.1-7.7,8.7c-3,5.3-6,11-11.2,14.5c-13.1,11.1-34,10.3-46.8-0.9c-3.7-4.3-8.5-8.3-9.9-14.1c-0.7-3.3-2.2-7.5-6.1-8.1
			c-6.3-0.4-12.7,0.2-19-0.2c-2.8-0.3-4.2-3.1-5.2-5.4v-86.7c1.7-6.8,6.4-12.2,9.3-18.4c2.4-7.3,7.4-13.3,10.4-20.3
			c3.1-7.9,8.4-14.8,11.4-22.8c1.2-3.2,4.9-4,7.9-4c25-0.1,50,0,75,0c2.5,0.1,4.6-1.3,6.3-3C121.6,64.4,120.8,49.4,121.1,34.4z
			 M135.6,40.3c-1.6,1.7-3.5,3.6-3.3,6.2c0,58.7,0,117.4,0,176.2c-0.2,2.6,1.8,4.5,3.4,6.1c23.9,0.6,47.9,0.1,71.8,0.3
			c2.9-0.1,7.1,0.4,8.6-2.9c1.4-4.1,2.8-8.1,5.4-11.6c9.4-15.6,31.6-21.5,47.5-12.4c5.4,2.1,9.1,6.7,12.9,10.8
			c3.6,3.8,4.1,9.3,6.3,13.9c1.2,1.7,3.3,2.1,5.3,2.1c4.3,0.1,8.6,0,13,0.1c2.3-0.1,5,0.1,6.8-1.6c2.1-2.1,1.3-5.3,1.4-7.9
			c0-57,0-114,0-170.9c-0.1-2.1,0.5-4.5-1-6.4c-1.5-1.9-4-2.3-6.3-2.2c-55.7,0-111.4,0-167,0C138.8,39.9,137.2,40.1,135.6,40.3z
			 M41.6,94.3c-4,4.4-6.3,10-9.2,15.2c-2.7,7.5-7.7,13.8-10.8,21.2c-0.9,2.3-3,4.5-2.3,7.2c0.5,2.8,3.5,4.3,6.2,4
			c29.3,0,58.6,0,87.9,0c2.1,0,4.5,0.1,6-1.6c2.1-2.4,1.6-5.8,1.7-8.8c-0.2-11.5,0.4-23-0.3-34.5c-0.9-0.9-1.9-1.9-2.8-2.8
			c-1.8-0.2-3.6-0.4-5.4-0.4c-21.7,0-43.4,0-65,0C45.5,93.8,43.6,94.1,41.6,94.3z M12.3,158.4c0,21.7,0,43.4,0,65.2
			c-0.3,2.5,1.8,4.8,4.2,5.2c3.2,0.5,6.5,0.2,9.7,0c1.9-1.8,3.7-3.8,4.2-6.5c0.9-6.3,6-10.7,10-15.1c2.5-3,6.4-4,9.5-6.2
			c10.4-4.4,22.7-4.1,32.6,1.5c3.9,2.7,8.3,5.1,10.8,9.2c2.4,3.7,5.2,7.1,6.5,11.4c0.5,2.4,2.3,4,4,5.7c4.7,0.4,9.4,0.3,14.1,0
			c1-1,2-2,3-3c0.5-4.1,0.3-8.2,0.3-12.3c0-17.7,0-35.4,0-53.1c0-2.3-0.3-5.1-2.4-6.4c-1.5-1.1-3.5-0.9-5.2-1c-31.7,0-63.3,0-94.9,0
			C15.4,152.7,11.9,155,12.3,158.4z M41.4,224.3c-0.7,3.4-1.6,6.8-2.1,10.2c0.6,4.3,1.1,8.8,3.2,12.8c2.4,4.6,6.6,7.7,11,10.2
			c7.5,4,16.8,3,24.2-0.7c5.3-4.2,10.6-9.6,11.9-16.5c2.2-8.7-1.1-18.3-7.7-24.2c-4.3-4.9-11.1-6.6-17.3-6.9
			C54.9,209.5,45.2,215.2,41.4,224.3z M248.5,209.6c-15,1.7-26,18.8-20.6,33c3,7.6,9.2,14.5,17.3,16.4c6.7,1.9,14.3,1.2,20.1-2.8
			c15.2-8,15.9-33,1.5-42.2C261.7,210.3,254.9,208.5,248.5,209.6z"/>
	</g>
	<path class="st0" d="M264.5,92.6c3.8-3.3,10.4-0.1,9.8,5c-1.1,4.1-5.6,5.7-8.2,8.7c-3.1,3.6-7.3,6-10.5,9.5
		c-3.2,3.5-7.4,5.9-10.6,9.4c-2.7,3-6.3,5-9,7.9c-4,4.4-9.5,7.2-13.1,11.9c-4.9,3.3-8.5,8.3-13.6,11.4c-1.9,1.3-4.3,0.5-6.2-0.4
		c-2.8-4.2-7.3-7-10.5-10.8c-3.4-4.3-8-7.4-11.4-11.7c-2.6-3-5.9-5.4-8.4-8.5c-0.6-2.5-0.5-5.4,1.6-7.2c3.2-1.7,7.3-1,9.3,2.1
		c3.6,5,9,8.3,12.7,13.3c2.7,2.3,5.3,4.9,8,7.2c2.2,0.9,5.4,1.3,7-0.8c3.5-3.9,8-6.6,11.6-10.4c2.8-3,6.4-5,9.1-8.1
		c3.3-3.7,7.6-6.2,11-9.8c3.1-3.3,7.1-5.6,10-9C257.1,99.2,261,96.1,264.5,92.6z"/>
</g>
</svg>
