<?xml version="1.0" encoding="utf-8"?>
<!-- Generator: Adobe Illustrator 24.1.1, SVG Export Plug-In . SVG Version: 6.00 Build 0)  -->
<svg version="1.1" id="Layer_1" xmlns="http://www.w3.org/2000/svg" xmlns:xlink="http://www.w3.org/1999/xlink" x="0px" y="0px"
	 viewBox="0 0 325 299" style="enable-background:new 0 0 325 299;" xml:space="preserve">
<style type="text/css">
	.st0{fill:#FF879B;}
</style>
<g>
	<g>
		<path class="st0" d="M56.8,5.8c3.2-3.4,8-4.9,12.6-4.9c46,0,92,0,138.1,0c6.4-0.1,13.3,3.1,16.4,8.9c12.8,22.9,25.2,46.1,38.1,69
			c0.6,1.1,0.9,2.3,0.8,3.5c-0.1,16.1,0,32.1-0.1,48.2c0.3,4.1-4.1,7.7-8,6.1c-1.9-1.4-3.9-3.5-3.7-6.1c0-14.5,0-29.1,0-43.6
			c-75,0.2-150,0.1-225.1,0c0.1,48.9,0,97.7,0.1,146.6c-0.2,2.7,3,4.5,5.4,4.3c63,0,126,0,189,0c6.1,0.2,6.1,11-0.1,11.1
			c-63.3,0.1-126.6,0-189.9,0.1c-9.6,0.3-17.2-9.4-16.5-18.5c0.1-49.9-0.1-99.9,0.1-149.8c10.9-19.3,21.5-39.1,32.4-58.5
			C49.7,16.6,52,10.3,56.8,5.8z M64.7,13C54.6,30,45.5,47.7,35.8,65c-1.8,3.7-4.6,6.8-5.3,10.9C64.7,76,98.9,75.8,133,76
			c-0.1-21.1,0-42.2,0-63.4c-20.5,0-41,0-61.5,0C69.2,12.6,67,12.8,64.7,13z M144.1,12.6c0,21.1,0.1,42.3-0.1,63.4
			c34.2-0.2,68.5,0.1,102.7-0.1c-1-3.5-3.1-6.5-4.8-9.7c-9.4-17-18.6-34-28.1-50.9c-1.1-2.4-3.9-2.6-6.3-2.6
			C186.4,12.6,165.2,12.7,144.1,12.6z"/>
	</g>
	<path class="st0" d="M247.5,151.6c2.9-1.9,6.9-0.6,8.5,2.4c0.2,2.2,0.6,5-1.5,6.5c-6.5,5.4-12.9,11-19.4,16.5
		c-3.8,3.7-8.5,6.5-11.7,10.8c5.3,0.2,10.7-0.1,16,0.3c17.6,1.9,34.9,9.4,47.6,21.8c13.9,12.7,22.7,30.7,24.9,49.3
		c0.3,11.7,0.1,23.4,0.1,35.2c0.3,2.6-2.5,3.9-4.5,4.6c-3,0.5-5.4-2.1-6.5-4.6c-0.2-10,0-19.9-0.1-29.9c-0.2-4.7-1.7-9.2-2.2-13.9
		c-6.3-23.1-25-42.7-48.3-48.9c-8.7-2.7-18-1.9-26.9-2.7c2.3,4,6.6,6.5,9.9,9.5c7,6.4,14.7,12,21.2,18.8c2.3,1.9,2.1,6.3-0.6,7.7
		c-1.1,0.8-2.4,1.3-3.6,1.9c-3.4-1.6-6.4-3.9-9-6.5c-12.7-11-25.5-21.8-38.1-32.8c-2.4-1.6-3.6-5.4-0.8-7.3
		c8.2-7.8,17.2-14.8,25.6-22.4C234.6,162.7,240.8,156.8,247.5,151.6z"/>
</g>
</svg>
