<?xml version="1.0" encoding="utf-8"?>
<!-- Generator: Adobe Illustrator 24.1.1, SVG Export Plug-In . SVG Version: 6.00 Build 0)  -->
<svg version="1.1" id="Layer_1" xmlns="http://www.w3.org/2000/svg" xmlns:xlink="http://www.w3.org/1999/xlink" x="0px" y="0px"
	 viewBox="0 0 325 299" style="enable-background:new 0 0 325 299;" xml:space="preserve">
<style type="text/css">
	.st0{fill:#FFD100;}
</style>
<g>
	<g>
		<path class="st0" d="M34.8,18.9c1.8-1.9,3.7-4.4,6.7-3.9c81.4,0,162.7,0,244.1,0c2.3-0.3,4.2,1.1,5.6,2.8c1.2,2,0.5,4.3,0.2,6.4
			c-1.7,1.3-3.5,2.9-5.8,2.6c-5.9,0.1-11.8,0-17.7,0c0.1,83.6,0,167.1,0,250.7c0.3,2.6-1.2,4.8-2.7,6.7c-2.3,0.6-4.9,1.2-6.8-0.5
			c-4.5-3.5-8.5-7.7-12.9-11.2c-4.7-4.4-9.6-8.4-14.3-12.8c-1.3-1.3-2.8-2.4-4.4-3.2c-6.4,6.4-12.9,12.6-19.3,18.8
			c-1,1-2.1,2-3.2,2.9c-0.3,0.4-1,1.1-1.3,1.5c-2.9,2.9-6.6,6.9-11.1,4.4c-9.2-9.3-18.7-18.2-27.8-27.7c-2,1.5-3.8,3.2-5.6,4.9
			c-1.5,1.5-3.2,2.8-4.8,4.3c-2.8,2.6-5.5,5.2-8.3,7.7c-3.6,3.7-7.8,6.8-11.4,10.6c-1.6,0.5-3.3,1.3-5,0.7c-3.2-1.2-5-4.3-7.5-6.4
			c-4.5-4.2-8.7-8.6-13.1-12.9c-1-1-2.1-2-3.1-3c-1-1-2-2-2.9-3.1c-1-0.9-2-1.8-3.1-2.7c-3.3,2.3-6,5.2-9,7.9
			c-6.4,5.6-12.8,11.2-19.1,16.9c-2.2,1.9-4.8,4.4-8,3.3c-3.2-0.7-4.4-4.3-4.3-7.2c0-83.6,0-167.1,0-250.7
			c-7.1-0.3-14.3,0.7-21.3-0.6C35.6,24.4,34.3,21.9,34.8,18.9z M70.9,26.9c0,79.5,0.1,159,0,238.4c0.4-0.1,1.3-0.4,1.7-0.6
			c3.7-3.7,7.7-7.1,11.7-10.6c4.2-3.9,8.6-7.5,12.8-11.4c2.3,0.1,5.1-0.7,6.8,1.3c3.2,3.1,6.4,6.3,9.6,9.4c2,2.1,4,4,6,6
			c1.3,1.3,2.7,2.6,4,3.9c1,1,2,2,3,3c1.7,1.5,3.2,3.1,4.9,4.6c2.1-3.1,5.2-5.4,7.9-7.9c2.9-2.5,5.4-5.3,8.3-7.8
			c4-3.7,8.1-7.3,11.9-11.1c2.4-2.4,6.8-2.5,9.1,0.1c8.7,8.7,17.6,17.3,26.3,26.1c0.4-0.3,1.3-0.7,1.8-1c7.5-7.5,15.4-14.7,23-22.1
			c1.5-1.5,2.9-3.1,4.7-4.4c1.8-0.8,3.8-0.4,5.6-0.3c2.4,2.3,5,4.5,7.6,6.7c6.2,5.3,12,11.2,18.6,16.1c0.1-79.6,0-159.1,0.1-238.7
			C194.3,26.9,132.6,26.9,70.9,26.9z"/>
	</g>
	<path class="st0" d="M182.1,55.8c1.6-2,3.5-4.2,6.4-3.8c4.4,0,6.7,5.3,4.7,9c-10,15.6-19.4,31.6-29.3,47.3
		c-6.7,11-13.4,21.9-20.2,32.8c-1.6,2.8-5,2.3-7.7,2.1c-1.1-1.3-2.2-2.6-3.2-3.9c0.1-1.1,0.1-2.1,0.2-3.2
		c5.5-8.8,10.9-17.6,16.3-26.4c7.6-11.9,14.6-24.2,22.4-36C174.6,67.5,179,62,182.1,55.8z"/>
	<g>
		<path class="st0" d="M109.9,68.8c3.9-5.8,10.3-10.5,17.6-10.2c9.6-0.7,18.3,6.7,20.6,15.8c0.2,3.5,0.3,7-0.2,10.4
			c-2,4.8-5,9.6-9.8,12c-5.9,3.5-13.5,3.7-19.5,0.5c-6.8-3.3-11-10.6-11.5-18C107,75.7,108.8,72.3,109.9,68.8z M122.3,72.2
			c-1,1.3-2.1,2.7-3.1,4c0,1.8-0.1,3.7,0.1,5.5c1,2.8,3.5,4.7,6,6.2c1.8,0,3.5-0.1,5.3-0.1c0.5-0.3,1.5-0.8,2-1c3-2.2,4.1-6,4.3-9.6
			c-0.3-0.1-0.8-0.2-1-0.3c-0.3-1.2-0.7-2.3-1.1-3.5C131.4,70.1,126.2,69.1,122.3,72.2z"/>
	</g>
	<g>
		<path class="st0" d="M180.5,107.6c3.3-7.2,11.2-12.1,19.1-11.7c4.9,0,9.6,2.1,13.3,5.3c3.6,3.3,5.6,7.8,6.9,12.4
			c0.2,2,0.2,3.9,0,5.9c-0.9,2.7-2.1,5.4-3.2,8c-3.2,4-7.1,7.7-12.2,8.8c-8.3,2.6-17.3-1.3-22.4-8.1c-0.6-1.4-1.3-2.8-2.1-4.1
			C177.7,118.9,177.7,112.6,180.5,107.6z M194.9,108.2c-1.6,1.7-3.7,3.2-4.2,5.7c-1,2.4,0.1,4.9,0.6,7.3c3.1,4.1,9.6,5.5,13.5,1.8
			c2.9-2,3-5.6,3.1-8.7c-1.2-2.3-2.8-4.5-5.1-5.8C200.3,107.3,197.5,107.8,194.9,108.2z"/>
	</g>
	<path class="st0" d="M97.1,170.7c1.7-0.9,3.3-2.1,5.4-1.9c40.4,0,80.8,0,121.1,0c2.3-0.2,4.7,0.5,6.3,2.2c0.7,2.3,0.7,4.8,0,7.1
		c-1.9,2.6-5.5,2.4-8.3,2.5c-39,0-78,0-117.1,0c-2.8-0.1-6.5-0.2-7.8-3.2C95.4,175.2,96.3,172.8,97.1,170.7z"/>
	<path class="st0" d="M96.9,201.6c1.9-1.4,4.1-2.4,6.5-2.3c23.4,0,46.8,0,70.2,0c2.4,0,5.1,0.3,6.9,2.1c2.2,3.4,0.8,9.4-3.9,9.6
		c-24.7,0.2-49.4,0-74.1,0.1c-2.2,0.3-3.9-1.2-5.6-2.2C95.9,206.6,95.9,204,96.9,201.6z"/>
</g>
</svg>
